<?xml version="1.0" standalone="no"?>
<!DOCTYPE svg PUBLIC "-//W3C//DTD SVG 20010904//EN"
 "http://www.w3.org/TR/2001/REC-SVG-20010904/DTD/svg10.dtd">
<svg version="1.0" xmlns="http://www.w3.org/2000/svg"
 width="1280.000000pt" height="687.000000pt" viewBox="0 0 1280.000000 687.000000"
 preserveAspectRatio="xMidYMid meet">
<metadata>
Created by potrace 1.15, written by Peter Selinger 2001-2017
</metadata>
<g transform="translate(0.000000,687.000000) scale(0.100000,-0.100000)"
fill="#2196f3" stroke="none">
<path d="M3307 6719 c-72 -8 -102 -25 -118 -66 -7 -20 -16 -23 -59 -23 -36 0
-52 -4 -56 -15 -4 -9 -20 -15 -43 -15 -51 -1 -144 -24 -148 -37 -2 -6 11 -14
29 -18 18 -4 43 -19 55 -34 18 -22 30 -26 75 -27 66 -1 178 -24 178 -37 0 -5
-27 -6 -63 -2 -53 6 -67 4 -81 -10 -16 -16 -16 -18 1 -37 27 -30 88 -58 125
-58 25 0 29 -3 18 -10 -35 -23 -150 -1 -150 28 0 10 -9 25 -20 35 -11 9 -20
23 -20 32 0 18 -146 87 -175 83 -11 -2 -24 -13 -30 -25 -5 -13 -17 -23 -26
-23 -17 0 -49 -30 -49 -47 0 -18 35 -42 76 -51 l39 -9 -28 -12 -28 -11 23 -29
c39 -49 95 -55 152 -16 37 25 56 25 56 2 0 -7 -9 -18 -20 -25 -11 -7 -20 -18
-20 -26 0 -7 -7 -19 -15 -26 -39 -32 -3 -48 142 -61 157 -14 156 -14 200 7 46
23 50 47 8 54 l-29 5 39 17 c22 10 52 22 67 27 31 12 63 55 53 72 -4 6 -20 9
-36 7 -43 -7 -35 10 11 22 23 6 40 17 40 25 0 12 6 12 42 -1 40 -14 44 -13 70
6 16 12 74 44 128 72 99 50 114 63 85 74 -20 8 -19 24 0 24 19 0 111 46 119
59 9 15 -61 64 -92 64 -15 1 -44 -3 -65 -7 -31 -7 -36 -6 -31 7 4 11 -4 18
-28 25 -42 13 -312 20 -401 11z"/>
<path d="M4668 6707 l-24 -26 -41 19 c-51 23 -189 22 -204 -1 -22 -35 5 -67
38 -44 18 13 23 12 44 -12 l24 -26 -103 7 c-127 8 -152 3 -152 -32 0 -23 -1
-24 -17 -10 -29 24 -53 29 -59 13 -5 -12 -25 -15 -86 -15 -95 0 -142 -18 -156
-60 -9 -24 -17 -29 -64 -35 -55 -8 -148 -48 -148 -65 0 -20 40 -31 77 -21 20
6 39 8 42 5 3 -2 -9 -18 -25 -35 -30 -30 -62 -42 -156 -59 -47 -9 -98 -35 -98
-51 0 -17 44 -31 114 -38 68 -7 69 -8 31 -15 -60 -11 -95 -27 -95 -42 0 -8 7
-14 16 -14 9 0 28 -12 41 -26 22 -24 28 -26 81 -19 31 4 106 10 165 14 102 6
110 5 120 -14 5 -11 24 -38 41 -60 58 -75 86 -130 86 -169 0 -36 20 -43 42
-16 21 26 25 25 30 -10 2 -17 -3 -27 -20 -36 -45 -23 -46 -32 -6 -43 22 -6 45
-11 52 -11 23 0 24 -29 2 -60 -22 -30 -22 -32 -4 -45 16 -12 16 -14 3 -15 -23
0 -53 -36 -45 -56 6 -15 8 -15 31 0 31 21 31 16 -1 -35 -19 -30 -24 -48 -19
-70 4 -16 12 -29 18 -29 7 0 20 -21 31 -46 10 -25 44 -72 75 -105 45 -47 63
-59 88 -59 22 0 32 -5 36 -20 6 -24 34 -26 67 -4 39 26 50 45 50 83 0 20 7 49
15 65 8 15 15 34 15 40 0 15 77 89 108 105 12 7 27 9 32 6 26 -16 110 58 110
96 0 11 7 19 15 19 8 0 31 11 51 25 31 21 48 25 111 25 49 0 92 7 131 21 31
11 71 25 88 30 39 11 60 34 43 44 -6 4 -43 8 -81 7 -65 0 -68 1 -54 17 9 10
16 25 16 34 0 28 48 22 62 -8 9 -20 18 -25 37 -23 34 4 41 46 11 73 l-20 18
22 11 c30 15 29 40 0 44 -13 2 -26 10 -29 18 -3 8 -15 14 -28 14 -26 0 -39 22
-23 38 13 13 41 3 93 -32 44 -30 53 -32 62 -9 4 10 -2 23 -16 35 l-23 18 29 0
c16 0 37 6 47 13 17 12 16 15 -10 45 -16 18 -38 32 -49 32 -14 1 -11 5 13 15
40 17 35 32 -14 41 -49 9 -33 18 34 19 67 0 79 23 22 41 -36 12 -53 34 -26 34
22 0 20 21 -3 27 -16 4 -11 12 30 55 27 28 49 55 49 60 0 4 -16 8 -36 8 -54 0
-32 17 33 25 31 4 62 13 68 19 5 7 31 21 57 30 56 21 79 43 57 57 -20 12 -102
11 -171 -3 -61 -13 -79 -8 -59 16 22 26 -9 29 -33 3 -31 -34 -66 -44 -78 -23
-7 13 -27 16 -104 16 -84 0 -105 -4 -185 -35 -95 -37 -114 -41 -104 -25 10 17
218 77 288 84 79 8 147 32 147 52 0 11 -17 14 -72 14 -56 0 -69 3 -60 12 20
20 14 26 -33 34 -30 4 -86 -1 -163 -15 -65 -11 -129 -21 -142 -20 l-25 1 25 8
c14 4 37 11 53 14 31 7 36 22 10 30 -10 2 -68 8 -130 11 -111 7 -112 7 -135
-18z"/>
<path d="M4316 6681 c-3 -5 0 -14 8 -20 10 -8 16 -8 25 2 6 8 8 17 4 20 -9 10
-31 9 -37 -2z"/>
<path d="M4260 6666 c0 -9 7 -16 16 -16 17 0 14 22 -4 28 -7 2 -12 -3 -12 -12z"/>
<path d="M5442 6578 c5 -15 37 -18 41 -3 1 6 -9 12 -22 13 -16 3 -22 -1 -19
-10z"/>
<path d="M8100 6561 c0 -14 -5 -18 -19 -14 -26 7 -35 -12 -15 -31 8 -9 18 -16
22 -16 10 1 41 67 35 74 -12 12 -23 6 -23 -13z"/>
<path d="M8225 6560 c-4 -7 -3 -16 3 -22 14 -14 45 -2 40 15 -6 16 -34 21 -43
7z"/>
<path d="M7830 6535 c0 -9 5 -15 11 -13 6 2 11 8 11 13 0 5 -5 11 -11 13 -6 2
-11 -4 -11 -13z"/>
<path d="M7915 6530 c-9 -15 3 -30 19 -24 8 3 17 1 21 -5 9 -15 38 -14 61 3
15 11 16 17 7 27 -9 9 -19 9 -42 -1 -24 -9 -34 -10 -45 -1 -10 8 -16 9 -21 1z"/>
<path d="M8142 6526 c1 -10 8 -17 13 -17 15 1 12 24 -3 29 -9 3 -13 -2 -10
-12z"/>
<path d="M9185 6530 c-4 -7 -3 -16 3 -22 14 -14 45 -2 40 15 -6 16 -34 21 -43
7z"/>
<path d="M9319 6518 c-19 -11 -51 -39 -72 -60 l-39 -40 23 -24 c14 -15 63 -36
136 -60 135 -43 146 -40 141 40 -3 44 -6 51 -26 54 -13 2 -25 -3 -28 -12 -12
-30 -26 -16 -23 23 3 43 -5 58 -48 83 -28 16 -31 16 -64 -4z"/>
<path d="M7690 6503 c-24 -9 -50 -35 -44 -44 8 -13 81 -49 99 -49 22 0 18 21
-5 27 -24 6 -26 26 -5 43 25 21 -7 37 -45 23z"/>
<path d="M7788 6496 c-10 -7 -18 -20 -18 -29 0 -20 57 -80 72 -75 22 8 20 28
-2 28 -28 0 -21 24 9 28 13 2 28 -4 36 -14 11 -15 17 -16 38 -7 17 8 28 8 35
1 11 -11 52 6 52 22 0 16 -19 21 -39 10 -15 -8 -22 -7 -29 6 -5 9 -26 16 -56
18 -26 2 -53 9 -59 15 -14 14 -18 14 -39 -3z"/>
<path d="M8163 6486 c-22 -19 -25 -27 -16 -37 14 -14 36 0 54 32 15 29 -7 32
-38 5z"/>
<path d="M8263 6498 c-28 -13 -32 -44 -5 -33 9 4 26 8 37 9 26 1 34 36 8 35
-10 0 -28 -5 -40 -11z"/>
<path d="M8028 6484 c-5 -5 7 -47 19 -63 2 -2 12 4 23 14 23 21 26 45 6 45 -8
0 -21 2 -28 5 -8 3 -17 3 -20 -1z"/>
<path d="M6845 6453 c-8 -8 -15 -19 -15 -24 0 -5 -13 -3 -30 6 -38 20 -100 20
-100 1 0 -8 4 -17 10 -21 12 -8 1 -35 -15 -35 -6 0 -20 9 -30 20 -24 27 -53
25 -81 -5 -13 -14 -29 -25 -35 -25 -7 0 -3 11 10 24 l22 24 -24 6 c-42 10
-125 -23 -111 -45 3 -5 14 -9 26 -9 17 0 18 -2 8 -15 -7 -8 -21 -15 -31 -15
-23 0 -24 -9 -5 -36 20 -27 102 -29 135 -3 13 11 31 19 40 19 11 0 7 -7 -13
-23 -29 -24 -29 -47 0 -47 8 0 12 -4 9 -10 -3 -5 -17 -10 -31 -10 -13 0 -24
-6 -24 -13 0 -18 79 -69 96 -63 7 3 24 27 38 53 38 74 49 86 74 79 12 -4 25
-18 28 -32 7 -29 45 -41 83 -28 42 15 30 37 -38 72 -35 17 -60 32 -55 32 5 1
-2 10 -16 22 l-25 21 40 -7 c112 -20 123 -20 165 8 22 14 44 26 49 26 5 0 14
6 21 14 9 12 5 17 -28 26 -93 25 -132 28 -147 13z"/>
<path d="M7165 6430 c-4 -7 -3 -16 3 -22 14 -14 47 -6 47 12 0 18 -40 26 -50
10z"/>
<path d="M7337 6433 c-12 -11 -8 -23 8 -23 8 0 15 7 15 15 0 16 -12 20 -23 8z"/>
<path d="M8110 6426 c0 -9 7 -16 16 -16 9 0 14 5 12 12 -6 18 -28 21 -28 4z"/>
<path d="M2610 6405 c0 -15 26 -32 36 -23 2 3 2 13 -2 22 -8 20 -34 21 -34 1z"/>
<path d="M5475 6390 c-4 -6 -3 -16 3 -22 6 -6 12 -6 17 2 4 6 3 16 -3 22 -6 6
-12 6 -17 -2z"/>
<path d="M2414 6376 c-8 -22 43 -66 76 -66 31 0 39 -17 18 -38 -9 -9 -8 -12 5
-12 9 0 17 7 17 15 0 21 10 19 41 -11 30 -29 59 -27 59 5 0 24 -68 86 -116
106 -45 19 -93 19 -100 1z"/>
<path d="M9571 6359 c-28 -23 -71 -79 -71 -91 0 -12 28 -10 105 9 107 25 121
45 56 81 -47 27 -59 27 -90 1z"/>
<path d="M7047 6354 c-14 -15 -6 -34 14 -34 14 0 19 5 17 17 -3 18 -20 27 -31
17z"/>
<path d="M6965 6331 c-7 -12 12 -24 25 -16 11 7 4 25 -10 25 -5 0 -11 -4 -15
-9z"/>
<path d="M2167 6309 c-13 -8 -15 -14 -7 -30 9 -16 7 -19 -13 -19 -12 0 -28 5
-34 11 -6 6 -16 8 -22 5 -12 -8 -15 -36 -3 -37 4 0 17 -2 29 -3 13 -2 31 -10
41 -19 17 -16 21 -15 63 11 24 16 51 37 59 46 13 16 12 20 -5 32 -22 16 -82
18 -108 3z"/>
<path d="M2680 6297 c0 -16 31 -47 47 -47 6 0 17 7 24 16 11 14 10 18 -6 30
-24 18 -65 18 -65 1z"/>
<path d="M9280 6295 c0 -8 7 -15 15 -15 8 0 15 7 15 15 0 8 -7 15 -15 15 -8 0
-15 -7 -15 -15z"/>
<path d="M9730 6295 c0 -8 7 -15 15 -15 8 0 15 7 15 15 0 8 -7 15 -15 15 -8 0
-15 -7 -15 -15z"/>
<path d="M5442 6268 c6 -18 28 -21 28 -4 0 9 -7 16 -16 16 -9 0 -14 -5 -12
-12z"/>
<path d="M9240 6264 c0 -9 5 -14 12 -12 18 6 21 28 4 28 -9 0 -16 -7 -16 -16z"/>
<path d="M9622 6262 c-6 -5 -23 -23 -37 -42 -19 -26 -22 -37 -14 -52 9 -18 8
-19 -23 -13 -23 4 -51 0 -86 -14 -42 -17 -57 -19 -74 -10 -15 8 -41 7 -102 -4
-44 -9 -110 -20 -145 -26 -100 -16 -134 -49 -94 -93 15 -17 15 -18 -8 -18 -36
0 -99 20 -99 30 0 6 -8 10 -17 10 -13 0 -14 -3 -5 -12 20 -20 14 -31 -14 -24
-43 11 -64 -1 -64 -38 0 -29 6 -36 45 -56 36 -19 46 -29 51 -57 4 -19 4 -36 1
-39 -11 -11 -27 7 -27 30 0 29 -23 49 -78 71 -23 10 -47 26 -53 36 -11 21 -34
25 -44 8 -4 -6 1 -16 11 -24 25 -17 12 -30 -15 -15 -17 9 -22 8 -28 -6 -4 -12
4 -26 25 -46 18 -15 26 -28 19 -28 -25 0 -65 39 -77 75 -6 19 -17 35 -23 35
-7 0 -23 -20 -36 -45 -17 -33 -21 -51 -16 -72 5 -15 7 -35 6 -44 -2 -20 44
-59 71 -59 32 0 59 -20 74 -55 16 -39 17 -45 6 -45 -4 0 -13 13 -19 29 -6 16
-23 37 -37 46 -25 17 -29 17 -43 2 -9 -9 -28 -37 -42 -63 -14 -26 -32 -50 -40
-52 -11 -4 -12 0 -5 14 5 11 9 89 10 174 1 173 -5 190 -61 190 -38 0 -53 -11
-89 -68 -15 -24 -33 -45 -41 -49 -31 -11 -10 -74 39 -114 12 -10 17 -22 13
-33 -6 -16 -12 -14 -61 13 -36 21 -73 33 -116 38 -62 6 -62 6 -96 -30 -39 -43
-57 -48 -48 -12 3 14 3 25 0 25 -4 0 -33 -13 -66 -30 -69 -35 -95 -37 -110
-11 -10 19 -11 19 -57 1 -27 -11 -60 -21 -74 -24 -14 -3 -45 -21 -70 -41 -43
-34 -82 -45 -94 -25 -3 6 3 10 14 10 49 0 25 37 -42 65 -34 14 -38 14 -43 0
-4 -9 -1 -35 6 -60 15 -52 7 -69 -27 -60 -32 8 -103 -36 -103 -65 0 -28 -15
-32 -56 -15 -62 26 -84 14 -47 -27 22 -25 11 -33 -24 -16 -16 7 -36 30 -46 53
-11 22 -29 51 -40 64 l-22 23 25 -7 c14 -4 37 -14 52 -21 54 -28 163 -11 197
29 11 14 11 21 -3 42 -16 24 -153 97 -208 110 -15 4 -32 13 -39 21 -7 9 -32
14 -72 14 -56 0 -59 1 -41 15 16 13 17 16 4 25 -8 5 -26 10 -41 10 -14 0 -30
5 -35 10 -13 13 -214 22 -214 10 0 -5 9 -12 21 -15 14 -5 18 -10 11 -17 -9 -9
-47 -4 -111 13 -7 2 -16 -2 -18 -8 -3 -7 2 -13 11 -13 9 0 16 -6 16 -14 0 -17
-50 -36 -94 -36 -17 0 -38 -5 -46 -10 -13 -9 -13 -12 3 -24 22 -17 22 -46 -1
-46 -10 0 -40 -22 -67 -50 -27 -27 -55 -50 -62 -50 -7 0 -13 -9 -13 -19 0 -13
-11 -23 -35 -31 -36 -12 -46 -35 -24 -57 6 -6 9 -23 7 -39 -3 -28 -5 -29 -52
-26 -41 3 -48 2 -43 -12 5 -11 -4 -21 -31 -35 -56 -29 -64 -48 -56 -142 10
-119 41 -137 132 -75 l50 33 31 -91 c16 -50 36 -95 45 -100 9 -7 28 -4 58 8
23 10 53 22 66 27 18 7 22 16 22 53 0 34 5 48 21 60 12 8 27 26 34 40 12 22
11 28 -4 48 -28 36 -32 57 -21 99 7 24 21 45 38 56 49 30 92 76 92 98 0 29 30
55 64 55 35 0 44 -25 20 -55 -11 -13 -38 -46 -61 -75 -46 -55 -53 -88 -32
-149 16 -47 34 -51 114 -30 84 21 109 23 138 7 21 -11 20 -13 -18 -19 -22 -5
-61 -8 -87 -8 -34 -1 -54 -7 -68 -21 -24 -24 -24 -30 -5 -56 15 -19 21 -64 8
-64 -4 0 -17 9 -29 21 l-21 20 -27 -31 c-19 -23 -24 -38 -20 -56 5 -18 -1 -31
-24 -54 -27 -26 -34 -29 -57 -20 -33 13 -91 -1 -128 -30 l-26 -21 -11 21 c-10
19 -17 21 -65 15 -65 -9 -77 5 -61 66 8 32 7 42 -5 54 -13 13 -17 13 -38 -2
-22 -15 -23 -20 -17 -84 l6 -69 -28 0 c-39 0 -115 -43 -130 -74 -7 -14 -30
-35 -51 -46 -21 -10 -41 -26 -44 -35 -8 -20 -67 -55 -94 -55 -12 0 -27 -9 -33
-20 -6 -11 -19 -20 -30 -20 -58 0 -64 -27 -14 -65 60 -46 84 -135 46 -173 -16
-16 -27 -17 -110 -8 -137 14 -138 14 -145 -125 -7 -128 3 -162 50 -174 15 -3
37 -15 48 -25 20 -19 22 -19 95 6 87 29 116 53 132 107 8 27 23 46 47 62 47
29 70 56 80 91 7 26 13 30 64 36 31 4 66 12 76 18 38 20 57 10 125 -65 45 -50
78 -78 97 -82 36 -7 61 -35 57 -65 -2 -19 -11 -24 -56 -31 -64 -10 -67 -32 -9
-60 42 -21 67 -12 67 24 0 11 7 19 15 19 21 0 38 38 31 71 -6 31 2 37 22 17 9
-9 13 -7 18 5 9 23 -11 44 -68 73 -34 17 -58 40 -82 77 -36 54 -55 107 -39
107 17 0 212 -181 219 -203 3 -12 24 -52 45 -88 21 -36 39 -75 39 -87 0 -32
16 -35 60 -11 38 22 41 22 53 5 12 -16 14 -16 26 -2 14 17 7 36 -15 36 -8 0
-14 5 -14 11 0 5 -15 23 -32 40 -18 16 -27 29 -20 29 7 0 26 9 41 21 41 30 71
19 71 -28 0 -31 -2 -34 -15 -23 -12 10 -19 10 -27 2 -8 -8 -4 -14 16 -21 14
-6 31 -22 36 -35 5 -13 14 -27 20 -31 7 -4 9 -19 5 -36 -7 -32 13 -43 22 -11
4 15 15 17 86 15 45 -2 89 -4 97 -5 8 -1 29 2 47 6 l32 7 -15 -63 c-16 -72
-42 -147 -57 -166 -7 -9 -22 -12 -46 -7 -20 3 -47 6 -61 5 -14 0 -45 -1 -70
-2 -31 0 -76 11 -144 37 -111 44 -120 42 -151 -23 -27 -55 -49 -54 -155 8 -47
27 -93 50 -103 50 -10 0 -29 11 -42 24 -21 21 -23 29 -15 52 13 34 5 77 -20
99 -16 15 -33 16 -132 10 -90 -6 -138 -15 -236 -46 -137 -43 -154 -46 -172
-24 -18 22 -28 19 -45 -17 -9 -18 -39 -54 -67 -80 -49 -44 -52 -49 -54 -101
-2 -62 -19 -93 -70 -132 -19 -14 -58 -60 -87 -102 -28 -42 -59 -85 -67 -96
-11 -15 -15 -57 -18 -166 -2 -97 -8 -156 -18 -180 -12 -28 -12 -37 -2 -52 74
-101 130 -192 132 -212 6 -49 80 -128 158 -168 35 -18 46 -19 84 -10 23 6 70
11 103 11 37 0 91 10 138 25 43 14 88 25 99 25 12 0 38 -17 58 -37 33 -34 42
-38 89 -38 l52 0 0 -126 0 -125 43 -64 c23 -35 45 -76 49 -90 3 -14 14 -36 23
-50 9 -14 22 -57 28 -96 11 -66 10 -76 -13 -143 -49 -139 -50 -157 -14 -246
17 -43 39 -124 49 -179 21 -118 32 -148 94 -275 49 -101 56 -135 29 -145 -14
-6 -12 -11 13 -37 47 -50 55 -51 172 -34 151 22 163 28 232 102 71 77 120 170
120 225 0 34 7 45 55 92 61 58 59 51 33 154 -15 58 -2 82 71 131 90 61 115 99
119 180 2 40 -3 87 -13 121 -35 119 -47 200 -35 235 21 62 88 153 187 252 86
85 106 111 151 201 29 56 57 123 63 148 6 24 21 51 32 59 16 11 18 18 10 26
-8 8 -41 5 -126 -12 -123 -25 -159 -21 -174 18 -9 23 -89 139 -125 181 -15 18
-28 39 -28 46 0 7 -11 23 -24 35 -17 16 -25 37 -29 82 -4 33 -16 79 -27 104
-11 24 -20 47 -20 51 0 4 -25 52 -56 106 -31 54 -54 102 -50 105 3 4 6 2 6 -3
0 -5 4 -16 10 -24 7 -12 12 -12 29 4 19 17 20 17 50 -36 17 -29 34 -69 37 -88
4 -21 20 -47 40 -66 27 -25 34 -39 34 -70 0 -42 21 -82 77 -151 29 -35 36 -54
44 -115 10 -73 33 -120 61 -126 8 -2 93 36 188 84 160 80 179 92 251 165 44
43 79 86 79 94 0 9 7 26 15 39 15 22 14 25 -20 55 -20 17 -40 31 -45 31 -5 0
-19 19 -31 43 -12 23 -23 44 -25 46 -2 2 -24 -15 -49 -38 -24 -22 -51 -41 -59
-41 -8 0 -21 -3 -30 -6 -10 -4 -16 -1 -16 9 0 8 -8 25 -18 38 -11 13 -23 38
-29 54 -6 17 -24 52 -42 79 -35 57 -37 62 -16 70 23 8 57 -12 80 -46 11 -17
37 -45 58 -62 34 -27 46 -31 93 -29 41 1 54 -2 54 -12 0 -31 47 -46 167 -55
65 -5 123 -10 130 -10 7 0 28 -16 48 -35 19 -20 48 -38 65 -41 32 -7 36 -14
19 -31 -15 -15 4 -50 33 -59 16 -5 27 -1 40 16 18 22 18 22 18 -43 0 -63 40
-231 61 -251 5 -6 9 -16 9 -24 0 -21 101 -232 111 -232 12 0 56 61 69 95 7 17
16 72 20 124 7 76 12 96 27 104 17 9 194 185 221 220 7 9 27 17 43 17 17 0 44
8 60 17 15 9 30 15 31 12 2 -2 25 -36 51 -75 42 -64 47 -77 47 -128 0 -69 16
-79 72 -49 l38 21 4 -21 c2 -12 10 -44 16 -72 7 -27 15 -100 19 -161 5 -86 10
-116 23 -131 10 -11 21 -35 24 -54 16 -80 97 -194 133 -187 38 8 5 138 -54
208 -19 22 -37 50 -41 63 -3 12 -15 32 -26 43 -17 19 -18 26 -8 65 19 70 24
76 65 71 29 -3 38 -10 49 -36 7 -17 23 -40 35 -50 12 -11 21 -31 21 -48 0 -16
5 -28 13 -28 7 0 45 28 85 62 68 58 72 64 72 103 0 70 -24 138 -73 207 -26 36
-47 72 -47 80 0 8 16 30 35 48 l36 35 31 -18 c28 -16 31 -16 42 -1 14 18 63
38 143 58 86 22 137 71 223 218 43 72 49 102 23 112 -15 6 -14 8 2 20 19 14
13 36 -11 36 -22 0 -17 17 7 23 l22 6 -23 38 c-63 104 -62 124 11 164 66 37
62 49 -16 49 -117 0 -136 32 -54 92 65 48 86 50 64 8 -28 -55 -9 -83 27 -40
39 45 102 33 92 -18 -4 -20 1 -33 20 -51 21 -20 26 -34 26 -73 0 -57 10 -64
66 -46 33 11 39 18 42 45 2 18 -8 64 -22 103 l-26 70 71 80 c70 80 85 90 106
69 20 -20 70 18 136 103 101 131 106 143 142 302 12 56 27 9 34 -112 8 -123
13 -142 35 -142 28 0 38 27 22 59 -9 16 -16 42 -16 56 0 22 3 25 26 19 30 -8
30 -10 0 96 -9 30 -19 90 -22 133 -5 55 -11 77 -20 77 -8 0 -14 -5 -14 -10 0
-6 -7 -26 -15 -46 l-14 -35 -29 32 c-29 32 -31 33 -69 21 -52 -16 -63 -15 -63
3 0 8 -10 19 -21 26 -21 11 -20 12 22 56 59 60 166 146 208 168 32 16 46 16
113 -1 17 -4 48 0 77 10 44 14 53 14 85 1 36 -15 127 -21 139 -8 4 3 2 11 -3
18 -15 18 14 51 73 85 29 16 64 30 79 30 25 0 26 -2 21 -36 -6 -37 -6 -37 23
-30 27 7 25 3 -26 -49 -30 -31 -67 -63 -82 -71 -42 -22 -78 -92 -78 -151 0
-57 15 -145 31 -186 l11 -27 50 50 c27 27 53 50 59 50 5 0 9 10 9 23 0 31 27
67 50 67 15 0 21 9 26 39 4 28 12 41 26 45 15 3 19 9 13 23 -4 10 -8 25 -10
33 -1 8 -5 25 -9 37 -10 30 1 48 20 32 8 -6 17 -9 20 -6 10 10 -5 39 -16 32
-5 -3 -10 -1 -10 5 0 6 8 13 18 16 9 3 31 12 47 19 17 8 51 19 77 25 38 8 52
7 76 -7 28 -16 30 -16 76 16 73 50 151 81 205 81 67 0 82 19 56 68 -11 20 -34
46 -52 57 -42 26 -42 36 1 23 50 -16 85 -3 98 34 9 26 12 28 20 14 8 -14 18
-16 47 -11 30 5 41 2 56 -14 10 -12 24 -21 30 -21 7 0 24 -9 38 -20 34 -27 46
-25 59 10 6 20 24 38 48 50 66 34 61 53 -24 89 -60 26 -76 26 -83 1 -7 -25
-23 -26 -23 -1 0 24 -56 74 -118 105 -88 44 -180 66 -334 81 l-68 7 0 -41 c0
-23 -3 -41 -7 -41 -4 0 -26 9 -49 20 -32 16 -68 22 -148 25 -124 4 -146 10
-146 35 0 38 -37 50 -154 50 -91 0 -117 4 -153 21 -24 11 -43 27 -43 35 0 8
-11 20 -25 26 -22 10 -33 8 -70 -10 -43 -21 -58 -19 -33 6 16 16 -35 34 -76
27 -17 -3 -44 -1 -61 4 l-30 9 31 1 c56 2 59 23 9 65 -25 20 -50 34 -55 31 -6
-3 -10 -22 -10 -41 0 -19 -7 -49 -16 -66 -9 -17 -14 -41 -12 -53 4 -20 0 -23
-36 -28 -23 -4 -55 -1 -73 5 -24 9 -38 9 -58 0 -19 -9 -31 -9 -51 0 -27 13
-30 11 -59 -38 -13 -21 -37 -10 -96 43 -44 40 -47 49 -19 56 28 7 25 32 -6 56
-33 26 -139 30 -170 6 -27 -20 -144 -21 -144 -1 0 21 -80 31 -136 17 -26 -7
-48 -11 -49 -9 -2 2 -10 20 -19 42 -15 36 -15 40 1 52 14 10 15 15 6 25 -9 9
-9 16 -2 25 13 16 3 34 -19 34 -10 0 -28 7 -41 17 -21 14 -31 15 -86 4 -46 -9
-68 -10 -83 -2 -12 6 -30 11 -41 11 -24 0 -28 15 -6 24 24 9 17 23 -16 35 -38
13 -50 13 -67 3z"/>
<path d="M2410 6234 c0 -17 22 -14 28 4 2 7 -3 12 -12 12 -9 0 -16 -7 -16 -16z"/>
<path d="M9170 6234 c0 -9 5 -14 12 -12 18 6 21 28 4 28 -9 0 -16 -7 -16 -16z"/>
<path d="M1995 6228 c-74 -25 -105 -43 -136 -74 -18 -19 -31 -35 -28 -37 2 -3
23 -7 46 -10 39 -5 45 -2 69 26 19 22 34 31 50 29 17 -3 29 5 43 29 29 48 18
58 -44 37z"/>
<path d="M2779 6233 c-1 -5 -1 -11 0 -16 1 -4 -12 -10 -28 -13 -65 -13 -34
-63 44 -72 41 -4 48 -9 63 -40 16 -34 21 -36 106 -53 76 -15 109 -17 215 -9
69 5 127 10 129 10 1 0 2 10 2 23 0 13 5 28 12 35 17 17 -5 40 -24 24 -7 -5
-79 -13 -160 -17 -162 -8 -197 -2 -216 40 -8 17 -22 26 -49 30 -88 14 -90 15
-69 30 10 8 15 18 11 24 -7 12 -34 15 -36 4z"/>
<path d="M2930 6225 c0 -8 7 -15 15 -15 8 0 15 7 15 15 0 8 -7 15 -15 15 -8 0
-15 -7 -15 -15z"/>
<path d="M9380 6225 c0 -8 7 -15 15 -15 8 0 15 7 15 15 0 8 -7 15 -15 15 -8 0
-15 -7 -15 -15z"/>
<path d="M9124 6219 c-10 -17 13 -36 27 -22 12 12 4 33 -11 33 -5 0 -12 -5
-16 -11z"/>
<path d="M9765 6220 c-4 -6 -3 -16 3 -22 6 -6 12 -6 17 2 4 6 3 16 -3 22 -6 6
-12 6 -17 -2z"/>
<path d="M2112 6198 c6 -18 28 -21 28 -4 0 9 -7 16 -16 16 -9 0 -14 -5 -12
-12z"/>
<path d="M3565 6201 c-7 -12 12 -24 25 -16 11 7 4 25 -10 25 -5 0 -11 -4 -15
-9z"/>
<path d="M6940 6186 c0 -9 7 -16 16 -16 9 0 14 5 12 12 -6 18 -28 21 -28 4z"/>
<path d="M8345 6175 c-33 -13 -82 -24 -109 -24 -27 -1 -77 -10 -110 -20 -34
-10 -79 -23 -101 -28 -30 -6 -40 -13 -38 -27 1 -10 -20 -46 -46 -80 -71 -91
-90 -136 -57 -136 7 0 19 -6 25 -14 9 -10 8 -15 -4 -20 -37 -14 -11 -26 58
-26 90 0 113 11 69 34 -62 32 -50 77 45 168 53 50 106 78 150 78 25 0 199 62
213 76 13 14 13 17 -4 30 -24 17 -18 18 -91 -11z"/>
<path d="M11200 6186 c0 -9 7 -16 16 -16 17 0 14 22 -4 28 -7 2 -12 -3 -12
-12z"/>
<path d="M2551 6178 c-36 -19 -35 -30 6 -70 47 -44 75 -54 97 -33 22 23 20 49
-6 79 -28 31 -65 40 -97 24z"/>
<path d="M2287 6173 c-4 -3 -7 -20 -7 -36 0 -27 -2 -29 -32 -24 -18 3 -53 12
-77 21 -24 10 -63 16 -85 14 -38 -3 -41 -5 -44 -34 -4 -42 15 -57 55 -42 17 6
38 8 49 3 17 -7 17 -8 -6 -14 -14 -4 -25 -13 -25 -21 0 -24 59 -24 135 -1 37
12 79 21 93 21 34 0 72 32 64 53 -4 10 -17 17 -31 17 -14 0 -30 10 -40 25 -16
24 -36 32 -49 18z"/>
<path d="M9410 6164 c0 -9 5 -14 12 -12 18 6 21 28 4 28 -9 0 -16 -7 -16 -16z"/>
<path d="M2465 6161 c-7 -12 12 -24 25 -16 11 7 4 25 -10 25 -5 0 -11 -4 -15
-9z"/>
<path d="M11317 6163 c-12 -11 -8 -23 8 -23 8 0 15 7 15 15 0 16 -12 20 -23 8z"/>
<path d="M10823 6134 c-15 -24 -15 -29 -2 -53 16 -28 61 -40 83 -22 8 7 24 7
45 1 48 -14 64 -4 44 26 -18 28 -12 30 23 8 20 -14 30 -15 49 -6 66 30 -17 71
-101 50 -33 -8 -48 -7 -72 6 -42 21 -49 20 -69 -10z"/>
<path d="M10745 6131 c-8 -15 3 -31 21 -31 9 0 14 7 12 17 -4 20 -24 28 -33
14z"/>
<path d="M1955 6120 c-3 -6 1 -13 10 -16 19 -8 30 0 20 15 -8 14 -22 14 -30 1z"/>
<path d="M2494 6118 c-8 -12 24 -40 37 -32 11 7 0 31 -16 38 -8 3 -17 0 -21
-6z"/>
<path d="M2696 6123 c-11 -11 -6 -23 9 -23 8 0 15 4 15 9 0 13 -16 22 -24 14z"/>
<path d="M2740 6095 c-17 -20 -6 -43 25 -51 33 -8 55 1 55 24 0 39 -55 58 -80
27z"/>
<path d="M5430 6094 c0 -9 5 -14 12 -12 18 6 21 28 4 28 -9 0 -16 -7 -16 -16z"/>
<path d="M11130 6102 c0 -19 27 -32 67 -32 46 0 56 13 24 30 -23 12 -91 14
-91 2z"/>
<path d="M2435 6091 c-7 -12 12 -24 25 -16 11 7 4 25 -10 25 -5 0 -11 -4 -15
-9z"/>
<path d="M8885 6091 c-7 -12 12 -24 25 -16 11 7 4 25 -10 25 -5 0 -11 -4 -15
-9z"/>
<path d="M5475 6080 c-4 -6 -3 -16 3 -22 6 -6 12 -6 17 2 4 6 3 16 -3 22 -6 6
-12 6 -17 -2z"/>
<path d="M6725 6061 c-7 -12 12 -24 25 -16 11 7 4 25 -10 25 -5 0 -11 -4 -15
-9z"/>
<path d="M1854 6043 c-32 -6 -52 -33 -56 -73 -2 -27 -10 -38 -32 -49 l-29 -13
44 -39 c24 -21 48 -38 52 -39 19 -1 125 61 131 77 6 15 8 15 16 3 6 -8 10 -27
10 -42 0 -41 33 -58 115 -59 50 -1 63 -3 45 -9 -14 -4 -44 -8 -67 -9 -77 -2
-96 -22 -38 -41 18 -6 51 -23 72 -37 33 -22 44 -24 92 -19 30 4 67 9 81 13 25
6 25 6 7 -15 -18 -19 -18 -22 -3 -44 18 -25 22 -78 6 -78 -5 0 -10 8 -10 18 0
40 -37 57 -132 61 -88 3 -89 3 -71 23 17 19 17 21 -7 40 -19 15 -33 18 -63 14
-28 -5 -50 -1 -85 16 -34 16 -68 22 -122 23 -41 0 -92 7 -113 14 -37 13 -41
12 -100 -25 -84 -50 -85 -51 -58 -21 42 47 3 54 -75 14 -20 -10 -35 -12 -46
-6 -25 14 -30 -4 -13 -45 17 -40 20 -80 5 -71 -5 3 -10 19 -10 34 0 16 -6 34
-13 40 -18 14 -203 71 -233 71 -12 0 -25 4 -28 9 -3 4 -47 11 -97 15 -51 4
-101 12 -111 17 -13 7 -29 7 -47 1 -23 -8 -34 -6 -57 9 -16 10 -39 19 -52 19
-13 0 -32 5 -43 11 -14 7 -24 7 -32 0 -8 -6 -18 -6 -26 -1 -9 5 -27 3 -45 -5
-119 -52 -154 -70 -176 -90 -14 -13 -36 -26 -50 -30 -14 -4 -37 -16 -52 -27
l-28 -19 47 -41 c43 -37 79 -57 126 -72 10 -3 15 -10 12 -16 -8 -13 -41 -13
-79 1 -25 9 -41 8 -76 -4 -64 -21 -69 -35 -28 -80 29 -31 44 -39 86 -44 39 -4
58 -2 77 11 24 16 25 16 25 -3 0 -23 -45 -61 -72 -61 -31 0 -78 -54 -78 -89 0
-36 52 -101 82 -101 11 0 36 -12 55 -27 29 -23 47 -28 90 -28 41 0 53 -4 53
-15 -1 -36 -33 -68 -111 -110 -45 -25 -84 -51 -87 -57 -5 -16 44 -18 53 -3 11
18 35 11 35 -10 0 -11 6 -20 14 -20 23 0 31 22 13 35 -14 10 -5 18 61 55 77
44 188 141 179 157 -6 10 54 95 72 101 8 3 4 -8 -9 -26 -18 -24 -20 -34 -11
-50 10 -18 15 -19 43 -10 18 6 47 11 65 12 39 2 54 15 25 23 -12 3 -22 12 -22
19 0 18 30 31 39 17 13 -20 68 -41 163 -61 53 -12 116 -31 139 -42 23 -12 57
-22 76 -22 27 0 36 -6 48 -29 23 -43 20 -61 -9 -53 -36 9 -40 -13 -4 -25 39
-14 38 -14 38 4 0 21 12 19 59 -12 44 -28 50 -40 26 -49 -8 -4 -15 -13 -15
-22 0 -12 3 -13 12 -4 7 7 18 12 25 12 15 0 18 -46 3 -55 -6 -4 -8 -11 -4 -16
3 -5 0 -17 -7 -25 -9 -11 -9 -18 0 -27 9 -9 13 -7 17 11 7 24 12 26 32 13 10
-6 11 -13 1 -34 -15 -33 -8 -42 20 -27 29 15 37 -7 17 -54 l-15 -35 41 -35
c69 -60 138 -83 138 -48 1 15 2 15 15 -2 26 -35 16 -73 -12 -45 -22 22 -31
-25 -38 -186 -8 -175 -2 -209 48 -259 13 -13 27 -36 31 -51 12 -48 55 -105
116 -152 47 -36 62 -55 75 -94 9 -26 28 -65 41 -85 17 -24 23 -45 20 -60 -5
-17 4 -33 34 -65 22 -24 40 -51 40 -60 0 -45 97 -116 123 -90 9 10 7 16 -8 29
-38 31 -168 275 -163 306 3 19 5 18 23 -9 47 -74 189 -285 220 -329 25 -35 35
-59 35 -86 0 -33 6 -44 43 -75 23 -20 91 -61 152 -91 96 -49 115 -55 150 -49
36 5 50 0 125 -45 46 -27 100 -55 120 -60 47 -13 87 -56 98 -105 6 -32 13 -40
29 -40 12 0 31 -9 41 -21 11 -12 44 -29 72 -38 52 -17 53 -17 76 5 19 18 26
20 39 9 20 -17 35 -74 35 -136 0 -44 -6 -61 -45 -120 -25 -38 -53 -93 -62
-122 -16 -50 -16 -56 -1 -82 15 -26 15 -29 -5 -48 l-20 -21 35 -83 c20 -46 52
-128 72 -183 49 -135 60 -151 161 -235 47 -40 89 -79 92 -87 9 -22 -27 -540
-42 -608 -7 -33 -25 -87 -39 -120 -17 -40 -26 -78 -26 -115 0 -30 -4 -70 -9
-88 -7 -24 -6 -42 5 -67 15 -37 19 -115 6 -115 -4 0 -13 5 -20 12 -9 9 -12 8
-12 -4 0 -9 7 -18 15 -22 9 -3 15 -18 15 -36 0 -33 -14 -40 -28 -14 -8 14 -11
14 -26 -7 -22 -32 -20 -46 7 -60 26 -14 67 -50 67 -60 0 -3 -8 -9 -18 -11 -15
-4 -20 -19 -25 -76 -4 -39 -10 -77 -13 -86 -4 -11 0 -16 12 -16 35 0 84 -38
84 -65 0 -28 21 -33 40 -10 18 22 30 18 30 -10 0 -20 -5 -25 -24 -25 -28 0
-38 -10 -27 -28 9 -15 104 -44 140 -44 13 0 30 7 39 16 14 14 13 19 -14 53
-17 20 -49 47 -71 58 -40 22 -40 22 -21 44 10 13 18 31 18 41 0 10 10 31 23
47 12 15 28 39 35 53 7 14 24 40 37 59 25 34 21 61 -10 61 -7 0 -18 13 -23 29
-11 32 -3 50 33 69 10 5 24 27 30 47 5 21 19 43 30 49 11 6 22 12 24 13 2 1
-8 16 -23 33 -32 38 -33 54 -4 47 33 -9 78 19 85 54 4 21 13 31 32 35 92 19
118 28 139 46 26 25 29 73 6 106 -15 22 -15 22 32 22 45 0 51 4 99 53 33 34
69 89 105 159 50 100 53 109 43 143 -10 33 -9 38 14 60 15 13 42 32 62 42 20
10 45 26 57 35 11 10 42 22 69 27 57 11 73 29 110 119 18 46 28 95 35 179 8
102 13 121 36 152 79 108 98 146 102 202 4 55 4 57 -34 85 -21 16 -50 41 -65
57 -22 22 -41 29 -103 37 -83 10 -107 20 -146 56 -14 12 -38 27 -53 33 -25 10
-31 7 -63 -24 -19 -19 -45 -35 -57 -35 -19 0 -18 3 11 20 34 21 43 56 17 66
-8 3 -31 -4 -50 -16 -20 -12 -38 -20 -41 -17 -8 8 47 67 62 67 18 0 18 9 1 29
-8 9 -19 35 -26 58 -13 48 -76 109 -122 117 -16 4 -43 9 -61 12 -33 7 -159
116 -190 166 -11 18 -26 28 -41 28 -13 0 -32 7 -43 15 -27 20 -37 18 -24 -5 9
-17 8 -20 -14 -20 -14 0 -27 4 -30 9 -3 5 -21 12 -41 15 -19 4 -48 18 -64 32
l-30 25 -16 -31 c-8 -16 -22 -30 -30 -30 -14 0 -13 3 0 24 26 39 -1 42 -50 7
-24 -17 -50 -31 -58 -31 -21 0 -46 -32 -53 -68 -4 -18 -9 -32 -11 -32 -3 0
-19 12 -36 26 -26 22 -36 24 -71 18 -71 -13 -79 -11 -104 26 -22 33 -23 41
-17 121 l6 87 -50 17 c-28 9 -68 15 -88 13 -37 -3 -38 -2 -35 26 2 16 9 41 16
55 7 14 16 55 20 90 l7 64 -38 -6 c-21 -4 -46 -7 -55 -7 -28 0 -58 -37 -58
-69 0 -36 -6 -40 -69 -48 -65 -7 -95 12 -127 81 -31 69 -34 155 -8 283 2 12
20 31 40 43 37 24 33 24 202 4 l52 -7 -2 34 -3 34 70 -3 c86 -4 111 -19 125
-74 15 -62 50 -126 71 -133 46 -15 50 21 14 150 -14 50 -25 97 -25 106 0 8 40
60 90 114 49 55 87 101 85 104 -3 2 0 10 6 17 8 10 8 22 0 45 -6 18 -11 44
-10 58 0 26 0 26 9 4 14 -35 36 -27 49 16 14 50 62 101 93 101 13 0 33 7 45
15 19 13 20 19 10 44 -9 23 -7 34 6 55 10 14 25 26 35 26 9 0 41 11 71 25 30
14 56 23 58 21 3 -2 -3 -15 -11 -29 -14 -21 -13 -57 1 -57 2 0 19 11 36 24 18
13 48 31 67 41 19 10 44 26 55 36 11 10 25 17 30 16 6 -1 11 8 13 21 5 34 -23
38 -59 8 -35 -30 -57 -33 -55 -8 1 11 -6 17 -20 17 -12 0 -31 9 -43 19 l-21
19 26 24 c21 19 24 26 14 38 -7 8 -29 15 -49 15 -33 0 -57 -11 -120 -57 -24
-17 -24 -17 -12 5 7 13 33 36 58 52 46 29 83 39 224 59 92 13 170 37 187 59
19 25 15 86 -8 107 -17 15 -25 16 -66 6 -25 -7 -49 -10 -52 -7 -4 5 10 11 66
31 25 9 6 28 -55 59 -44 22 -64 39 -72 59 -6 16 -22 42 -36 59 -14 16 -30 50
-36 75 -7 24 -18 47 -25 50 -8 3 -29 -8 -48 -24 -43 -38 -114 -52 -133 -27
-16 21 -16 39 -3 64 13 24 5 45 -23 57 -12 6 -42 27 -65 47 -39 32 -50 36 -99
36 -30 0 -62 -4 -72 -10 -24 -12 -54 -86 -45 -112 3 -10 0 -41 -6 -68 -11 -45
-10 -53 9 -83 26 -43 27 -86 1 -134 -11 -21 -22 -70 -26 -111 -9 -99 -18 -109
-66 -77 -53 36 -70 74 -62 134 l6 49 -53 7 c-44 6 -114 36 -214 92 -11 6 -28
14 -37 17 -11 3 -18 15 -18 30 0 25 -36 60 -52 50 -12 -8 -38 15 -38 33 0 29
55 125 87 154 18 16 38 40 43 54 7 19 17 25 38 25 33 0 95 38 100 61 2 10 -11
22 -35 32 l-38 16 39 -2 c23 -1 43 -8 49 -18 12 -19 3 -62 -18 -83 -20 -20
-19 -23 15 -41 41 -21 60 -19 91 11 27 26 27 26 58 8 28 -17 32 -17 47 -2 29
29 -19 82 -98 107 -20 7 -42 18 -48 26 -10 12 -6 15 17 20 39 8 114 46 120 61
2 7 -2 25 -10 41 -8 15 -13 40 -10 55 4 22 -1 30 -28 47 -19 12 -51 21 -72 21
l-39 0 7 -40 c6 -38 -5 -55 -20 -30 -9 15 -25 12 -25 -5 0 -8 7 -15 15 -15 19
0 19 -14 0 -30 -19 -16 -35 -4 -35 26 0 31 -24 80 -44 87 -9 4 -25 -6 -40 -23
-30 -37 -36 -37 -36 -4 0 18 -6 28 -21 31 -14 4 -19 12 -16 24 3 10 -7 34 -24
56 -16 21 -29 46 -29 55 0 10 23 40 52 67 46 44 50 51 38 66 -11 14 -25 16
-64 11 -75 -8 -89 -26 -80 -103 4 -38 3 -63 -3 -63 -6 0 -18 -15 -28 -34 -16
-29 -17 -39 -7 -60 14 -31 3 -34 -38 -10 -27 16 -29 16 -64 -12 -42 -34 -44
-41 -14 -46 32 -5 34 -26 3 -38 -29 -11 -124 -14 -149 -4 -13 5 -14 9 -5 21 9
10 9 17 1 25 -8 8 -14 6 -20 -11 l-8 -22 -18 20 c-13 15 -32 21 -60 21 -38 1
-40 2 -22 15 28 21 58 19 132 -11 36 -14 68 -23 71 -20 3 3 -2 17 -11 30 -16
25 -15 26 14 41 16 9 30 19 30 24 0 12 -26 21 -56 21 -14 0 -34 4 -44 10 -27
15 -54 92 -46 135 9 44 -17 60 -43 28 -9 -11 -24 -23 -34 -26 -9 -4 -20 -20
-23 -37 -7 -32 -18 -39 -27 -15 -4 8 -24 23 -46 34 -34 18 -41 18 -51 6 -9
-11 -17 -12 -31 -4 -11 5 -23 8 -28 5 -5 -3 -14 1 -21 9 -7 8 -23 15 -36 15
-15 0 -24 6 -24 15 0 21 -46 41 -112 49 -31 3 -62 8 -70 10 -7 2 -23 1 -34 -1z"/>
<path d="M10732 6028 c5 -15 28 -18 29 -3 0 6 -7 12 -17 13 -10 3 -15 -1 -12
-10z"/>
<path d="M2622 6000 c-36 -16 -42 -23 -37 -40 7 -23 2 -25 -26 -10 -26 15 -44
3 -27 -18 32 -38 112 -92 137 -92 55 0 92 55 59 89 -7 7 -13 29 -13 49 0 32
-3 37 -25 39 -14 1 -44 -7 -68 -17z"/>
<path d="M3283 6004 c-19 -8 -16 -61 3 -68 40 -16 124 0 124 23 0 19 -103 55
-127 45z"/>
<path d="M8492 5999 c2 -6 8 -10 13 -10 5 0 11 4 13 10 2 6 -4 11 -13 11 -9 0
-15 -5 -13 -11z"/>
<path d="M8677 5994 c-8 -8 1 -24 14 -24 5 0 9 7 9 15 0 15 -12 20 -23 9z"/>
<path d="M3015 5978 c-40 -22 -75 -62 -75 -86 0 -33 28 -89 56 -111 19 -15 48
-19 171 -24 129 -4 159 -9 236 -34 48 -17 90 -33 93 -36 3 -3 0 -14 -7 -26
-16 -25 -7 -36 19 -22 16 8 21 7 26 -5 12 -31 6 -51 -24 -79 -16 -16 -30 -35
-30 -42 0 -8 -13 -13 -37 -13 -50 0 -87 -20 -91 -48 -4 -30 35 -45 77 -31 38
14 89 -2 121 -36 13 -14 29 -25 36 -25 7 0 18 -8 23 -19 6 -11 25 -20 51 -24
22 -3 65 -15 95 -28 59 -24 79 -21 52 9 -21 23 -21 32 -2 32 22 0 34 30 23 59
-5 14 -31 49 -59 78 -54 57 -58 69 -29 78 23 7 47 -4 79 -39 32 -34 58 -33 79
4 9 17 27 33 40 37 l23 6 -28 29 c-15 16 -39 32 -52 35 -14 3 -40 17 -59 30
-19 12 -45 23 -57 23 -12 0 -28 7 -35 15 -11 13 -10 18 6 30 15 11 17 18 8 32
-14 25 -92 63 -128 63 l-30 0 22 16 c32 22 17 37 -31 30 -35 -6 -45 -3 -76 22
-20 16 -46 34 -58 40 -28 16 -80 4 -98 -21 -14 -20 -14 -20 -56 1 -37 19 -43
26 -43 54 -1 30 -4 33 -33 36 -17 2 -46 -4 -63 -13 -29 -15 -33 -15 -49 -1
-20 18 -57 20 -86 4z"/>
<path d="M12255 5850 c-12 -4 -27 -15 -34 -24 -11 -13 -11 -17 3 -22 24 -9
115 1 128 14 30 30 -44 54 -97 32z"/>
<path d="M12417 5853 c-12 -11 -8 -23 8 -23 8 0 15 7 15 15 0 16 -12 20 -23 8z"/>
<path d="M1620 5814 c0 -9 5 -14 12 -12 18 6 21 28 4 28 -9 0 -16 -7 -16 -16z"/>
<path d="M5795 5821 c-7 -12 12 -24 25 -16 11 7 4 25 -10 25 -5 0 -11 -4 -15
-9z"/>
<path d="M5752 5788 c6 -18 28 -21 28 -4 0 9 -7 16 -16 16 -9 0 -14 -5 -12
-12z"/>
<path d="M8094 5788 c-8 -12 30 -48 52 -48 25 0 27 23 4 42 -26 21 -46 23 -56
6z"/>
<path d="M6700 5776 c0 -9 7 -16 16 -16 9 0 14 5 12 12 -6 18 -28 21 -28 4z"/>
<path d="M4187 5744 c-11 -12 13 -44 33 -44 25 0 35 17 20 35 -13 15 -42 20
-53 9z"/>
<path d="M7756 5734 c-22 -21 -20 -44 2 -44 28 0 55 33 40 48 -16 16 -23 15
-42 -4z"/>
<path d="M3300 5714 c0 -9 5 -14 12 -12 18 6 21 28 4 28 -9 0 -16 -7 -16 -16z"/>
<path d="M3385 5699 c-4 -6 -2 -16 3 -21 8 -8 8 -17 1 -30 -15 -27 -4 -48 24
-48 47 0 63 43 22 62 -14 6 -25 17 -25 24 0 18 -17 27 -25 13z"/>
<path d="M6575 5700 c-4 -6 -3 -16 3 -22 6 -6 12 -6 17 2 4 6 3 16 -3 22 -6 6
-12 6 -17 -2z"/>
<path d="M3315 5670 c-4 -6 -3 -16 3 -22 6 -6 12 -6 17 2 4 6 3 16 -3 22 -6 6
-12 6 -17 -2z"/>
<path d="M6515 5670 c-11 -17 5 -32 21 -19 7 6 11 15 8 20 -7 12 -21 11 -29
-1z"/>
<path d="M5438 5556 c-49 -8 -71 -17 -85 -35 -11 -13 -39 -28 -66 -35 -55 -14
-61 -27 -20 -41 15 -5 39 -21 52 -34 21 -21 30 -23 80 -18 63 5 157 44 184 75
19 20 18 22 -14 61 -35 44 -33 44 -131 27z"/>
<path d="M5245 5537 c-23 -17 -12 -37 21 -37 33 0 64 17 64 35 0 19 -59 20
-85 2z"/>
<path d="M6392 5426 c1 -10 8 -17 13 -17 15 1 12 24 -3 29 -9 3 -13 -2 -10
-12z"/>
<path d="M170 5370 c8 -15 21 -20 50 -20 22 0 40 4 40 10 0 15 -35 30 -70 30
-28 0 -30 -2 -20 -20z"/>
<path d="M3395 5381 c-3 -5 -1 -12 5 -16 12 -7 30 2 30 16 0 12 -27 12 -35 0z"/>
<path d="M3340 5365 c0 -8 7 -15 15 -15 8 0 15 7 15 15 0 8 -7 15 -15 15 -8 0
-15 -7 -15 -15z"/>
<path d="M3166 5324 c-9 -8 -14 -20 -11 -24 8 -14 50 5 53 24 4 21 -22 21 -42
0z"/>
<path d="M3284 5325 c-7 -18 2 -45 15 -45 5 0 11 7 15 15 7 18 -2 45 -15 45
-5 0 -12 -7 -15 -15z"/>
<path d="M5810 5296 c0 -14 -4 -28 -10 -31 -17 -11 -11 -25 11 -25 14 0 19 5
16 15 -4 8 -2 17 3 20 16 10 11 45 -5 45 -9 0 -15 -9 -15 -24z"/>
<path d="M6006 5231 c-9 -14 5 -42 18 -38 15 5 14 39 -1 44 -6 2 -14 0 -17 -6z"/>
<path d="M3695 5220 c-4 -6 -3 -16 3 -22 6 -6 12 -6 17 2 4 6 3 16 -3 22 -6 6
-12 6 -17 -2z"/>
<path d="M6745 5220 c-4 -6 -3 -16 3 -22 6 -6 12 -6 17 2 4 6 3 16 -3 22 -6 6
-12 6 -17 -2z"/>
<path d="M305 5201 c-7 -12 12 -24 25 -16 11 7 4 25 -10 25 -5 0 -11 -4 -15
-9z"/>
<path d="M5936 5150 c-16 -10 -42 -37 -57 -60 -22 -33 -27 -49 -24 -87 2 -25
11 -53 20 -63 11 -12 14 -26 9 -44 -4 -17 -2 -26 6 -26 6 0 14 9 17 20 6 23
26 22 31 -2 3 -15 -17 -42 -37 -50 -5 -1 -12 -17 -15 -34 -6 -29 -4 -32 21
-39 l28 -7 -37 -19 c-39 -20 -51 -49 -20 -49 9 0 60 7 112 14 75 12 98 19 112
36 26 32 23 69 -6 80 -16 6 -27 20 -31 40 -4 17 -27 57 -52 87 -45 56 -46 56
-29 85 18 30 16 34 -32 40 l-22 3 27 38 c32 46 21 65 -21 37z"/>
<path d="M466 5123 c-11 -11 -6 -23 9 -23 8 0 15 4 15 9 0 13 -16 22 -24 14z"/>
<path d="M5816 5123 c-11 -11 -6 -23 9 -23 8 0 15 4 15 9 0 13 -16 22 -24 14z"/>
<path d="M6825 5119 c-10 -15 1 -23 20 -15 9 3 13 10 10 16 -8 13 -22 13 -30
-1z"/>
<path d="M779 5087 c-35 -24 -51 -57 -27 -57 8 0 28 15 46 33 50 51 40 64 -19
24z"/>
<path d="M1352 5069 c2 -6 8 -10 13 -10 5 0 11 4 13 10 2 6 -4 11 -13 11 -9 0
-15 -5 -13 -11z"/>
<path d="M5810 5055 c0 -8 7 -15 15 -15 8 0 15 7 15 15 0 8 -7 15 -15 15 -8 0
-15 -7 -15 -15z"/>
<path d="M6683 5054 c-9 -23 11 -38 26 -20 13 16 7 36 -10 36 -5 0 -12 -7 -16
-16z"/>
<path d="M197 5023 c-12 -11 -8 -23 8 -23 8 0 15 7 15 15 0 16 -12 20 -23 8z"/>
<path d="M712 4998 c5 -15 28 -18 29 -3 0 6 -7 12 -17 13 -10 3 -15 -1 -12
-10z"/>
<path d="M3287 4993 c-12 -11 -8 -23 8 -23 8 0 15 7 15 15 0 16 -12 20 -23 8z"/>
<path d="M1450 4956 c0 -17 5 -26 16 -26 10 0 14 7 12 22 -5 32 -28 35 -28 4z"/>
<path d="M685 4961 c-7 -12 12 -24 25 -16 11 7 4 25 -10 25 -5 0 -11 -4 -15
-9z"/>
<path d="M11765 4961 c-7 -12 12 -24 25 -16 11 7 4 25 -10 25 -5 0 -11 -4 -15
-9z"/>
<path d="M5754 4917 c-22 -24 -39 -53 -39 -67 -1 -14 -4 -34 -8 -46 -4 -11 -2
-27 5 -37 12 -15 16 -15 55 3 67 30 93 61 93 113 0 44 -4 48 -61 74 -3 1 -24
-17 -45 -40z"/>
<path d="M6443 4944 c-7 -19 11 -39 26 -30 16 10 13 33 -4 40 -9 3 -18 -1 -22
-10z"/>
<path d="M6560 4924 c0 -17 22 -14 28 4 2 7 -3 12 -12 12 -9 0 -16 -7 -16 -16z"/>
<path d="M390 4915 c0 -8 7 -15 15 -15 8 0 15 7 15 15 0 8 -7 15 -15 15 -8 0
-15 -7 -15 -15z"/>
<path d="M11835 4910 c-7 -12 2 -30 16 -30 12 0 12 27 0 35 -5 3 -12 1 -16 -5z"/>
<path d="M290 4886 c0 -19 26 -27 39 -12 13 15 4 26 -21 26 -10 0 -18 -6 -18
-14z"/>
<path d="M1445 4891 c-8 -15 3 -31 21 -31 9 0 14 7 12 17 -4 20 -24 28 -33 14z"/>
<path d="M235 4851 c-7 -12 12 -24 25 -16 11 7 4 25 -10 25 -5 0 -11 -4 -15
-9z"/>
<path d="M3210 4832 c0 -22 13 -42 27 -42 21 0 12 44 -9 48 -10 2 -18 -1 -18
-6z"/>
<path d="M12002 4828 c6 -18 28 -21 28 -4 0 9 -7 16 -16 16 -9 0 -14 -5 -12
-12z"/>
<path d="M1465 4798 c16 -75 62 -108 52 -38 -6 45 -22 70 -44 70 -11 0 -13 -8
-8 -32z"/>
<path d="M11410 4710 c0 -11 6 -20 13 -20 19 0 27 10 20 26 -8 21 -33 17 -33
-6z"/>
<path d="M4074 4672 c-53 -39 -66 -57 -62 -84 3 -20 9 -23 48 -23 25 0 55 4
67 8 18 7 21 5 16 -12 -3 -12 -2 -28 1 -37 6 -15 8 -15 25 0 11 10 27 16 36
14 10 -2 20 3 22 10 3 6 -2 12 -11 12 -11 0 -16 9 -16 30 0 37 -38 65 -76 56
-25 -7 -25 -6 -10 16 33 46 16 50 -40 10z"/>
<path d="M3840 4650 c0 -6 16 -18 35 -27 27 -13 38 -14 47 -5 18 18 -9 42 -48
42 -19 0 -34 -5 -34 -10z"/>
<path d="M11382 4648 c6 -18 28 -21 28 -4 0 9 -7 16 -16 16 -9 0 -14 -5 -12
-12z"/>
<path d="M11340 4605 c0 -8 7 -15 15 -15 8 0 15 7 15 15 0 8 -7 15 -15 15 -8
0 -15 -7 -15 -15z"/>
<path d="M11300 4544 c0 -9 5 -14 12 -12 18 6 21 28 4 28 -9 0 -16 -7 -16 -16z"/>
<path d="M4090 4536 c0 -9 7 -16 16 -16 9 0 14 5 12 12 -6 18 -28 21 -28 4z"/>
<path d="M11215 4500 c-8 -13 4 -32 16 -25 12 8 12 35 0 35 -6 0 -13 -4 -16
-10z"/>
<path d="M11167 4464 c-14 -15 -6 -34 14 -34 14 0 19 5 17 17 -3 18 -20 27
-31 17z"/>
<path d="M10947 4453 c-4 -3 -7 -18 -7 -32 0 -31 -9 -45 -32 -54 -20 -7 -23
-38 -8 -68 13 -23 40 -26 40 -4 0 9 9 15 22 15 12 0 41 9 65 21 67 32 82 79
26 79 -14 0 -38 11 -55 25 -31 26 -40 29 -51 18z"/>
<path d="M11115 4430 c-11 -17 5 -32 21 -19 7 6 11 15 8 20 -7 12 -21 11 -29
-1z"/>
<path d="M11100 4365 c0 -8 7 -15 15 -15 8 0 15 7 15 15 0 8 -7 15 -15 15 -8
0 -15 -7 -15 -15z"/>
<path d="M6357 4327 c-3 -8 -1 -20 4 -28 11 -19 34 3 26 25 -8 20 -23 21 -30
3z"/>
<path d="M6347 4243 c-4 -3 -7 -21 -7 -40 0 -37 21 -44 55 -19 17 12 18 18 7
40 -11 24 -40 35 -55 19z"/>
<path d="M10890 4231 c-5 -11 -10 -32 -10 -48 0 -40 -13 -56 -39 -48 -19 6
-21 3 -19 -27 3 -31 1 -33 -28 -31 -24 2 -33 -3 -42 -22 -10 -21 -61 -45 -99
-45 -6 0 -32 -16 -58 -36 -38 -28 -49 -33 -61 -23 -24 20 -30 0 -10 -34 11
-18 22 -52 25 -77 8 -60 27 -58 60 5 19 36 33 51 51 53 26 4 50 19 50 32 0 4
-10 12 -22 18 -19 9 -20 11 -5 11 10 1 29 -11 43 -26 l24 -26 23 21 c14 13 43
23 78 27 l56 7 17 72 c9 39 23 85 31 100 19 36 19 66 -1 94 -19 27 -50 29 -64
3z"/>
<path d="M6188 4213 c-10 -2 -18 -11 -18 -20 0 -10 5 -13 18 -8 9 4 25 10 34
12 10 3 15 9 12 14 -5 9 -17 10 -46 2z"/>
<path d="M6105 4161 c-7 -12 12 -24 25 -16 11 7 4 25 -10 25 -5 0 -11 -4 -15
-9z"/>
<path d="M6755 4101 c-7 -12 12 -24 25 -16 11 7 4 25 -10 25 -5 0 -11 -4 -15
-9z"/>
<path d="M6460 4056 c0 -9 7 -16 16 -16 9 0 14 5 12 12 -6 18 -28 21 -28 4z"/>
<path d="M6965 4061 c-7 -12 12 -24 25 -16 11 7 4 25 -10 25 -5 0 -11 -4 -15
-9z"/>
<path d="M6894 4049 c-10 -17 13 -36 27 -22 12 12 4 33 -11 33 -5 0 -12 -5
-16 -11z"/>
<path d="M7187 4013 c-15 -14 -6 -33 16 -33 30 0 40 10 26 27 -12 14 -32 17
-42 6z"/>
<path d="M6530 3994 c0 -17 22 -14 28 4 2 7 -3 12 -12 12 -9 0 -16 -7 -16 -16z"/>
<path d="M6477 3993 c-12 -11 -8 -23 8 -23 8 0 15 7 15 15 0 16 -12 20 -23 8z"/>
<path d="M6896 3991 c-8 -13 21 -34 39 -27 25 9 18 36 -9 36 -14 0 -27 -4 -30
-9z"/>
<path d="M10422 3898 c6 -18 28 -21 28 -4 0 9 -7 16 -16 16 -9 0 -14 -5 -12
-12z"/>
<path d="M3795 3880 c-4 -6 -3 -16 3 -22 6 -6 12 -6 17 2 4 6 3 16 -3 22 -6 6
-12 6 -17 -2z"/>
<path d="M5455 3861 c-7 -12 12 -24 25 -16 11 7 4 25 -10 25 -5 0 -11 -4 -15
-9z"/>
<path d="M10480 3855 c0 -8 7 -15 15 -15 8 0 15 7 15 15 0 8 -7 15 -15 15 -8
0 -15 -7 -15 -15z"/>
<path d="M5430 3684 c0 -17 22 -14 28 4 2 7 -3 12 -12 12 -9 0 -16 -7 -16 -16z"/>
<path d="M5555 3681 c-7 -12 12 -24 25 -16 11 7 4 25 -10 25 -5 0 -11 -4 -15
-9z"/>
<path d="M10527 3683 c-12 -11 -8 -23 8 -23 8 0 15 7 15 15 0 16 -12 20 -23 8z"/>
<path d="M5485 3670 c-7 -12 2 -30 16 -30 12 0 12 27 0 35 -5 3 -12 1 -16 -5z"/>
<path d="M3325 3639 c-10 -15 1 -23 20 -15 9 3 13 10 10 16 -8 13 -22 13 -30
-1z"/>
<path d="M5432 3636 c1 -10 8 -17 13 -17 15 1 12 24 -3 29 -9 3 -13 -2 -10
-12z"/>
<path d="M3382 3618 c6 -18 28 -21 28 -4 0 9 -7 16 -16 16 -9 0 -14 -5 -12
-12z"/>
<path d="M10460 3615 c-7 -8 -9 -22 -6 -32 6 -15 9 -15 28 4 11 12 17 26 14
32 -10 15 -21 14 -36 -4z"/>
<path d="M7925 3581 c-7 -12 12 -24 25 -16 11 7 4 25 -10 25 -5 0 -11 -4 -15
-9z"/>
<path d="M3327 3574 c-13 -13 -7 -24 14 -24 11 0 19 5 17 12 -5 14 -22 21 -31
12z"/>
<path d="M3395 3570 c-3 -6 1 -13 10 -16 19 -8 30 0 20 15 -8 14 -22 14 -30 1z"/>
<path d="M10231 3526 c-17 -18 -22 -33 -19 -67 2 -36 7 -44 23 -44 17 0 22 10
29 58 11 70 0 88 -33 53z"/>
<path d="M10387 3543 c-12 -11 -8 -23 8 -23 8 0 15 7 15 15 0 16 -12 20 -23 8z"/>
<path d="M3352 3518 c6 -18 28 -21 28 -4 0 9 -7 16 -16 16 -9 0 -14 -5 -12
-12z"/>
<path d="M3422 3518 c6 -18 28 -21 28 -4 0 9 -7 16 -16 16 -9 0 -14 -5 -12
-12z"/>
<path d="M10322 3518 c5 -15 28 -18 29 -3 0 6 -7 12 -17 13 -10 3 -15 -1 -12
-10z"/>
<path d="M3395 3481 c-7 -12 1 -17 43 -26 19 -4 32 -3 32 4 0 12 -7 16 -42 25
-15 3 -29 2 -33 -3z"/>
<path d="M3171 3458 c-34 -18 -36 -33 -6 -46 14 -6 25 -19 25 -27 0 -9 5 -13
11 -9 6 3 8 17 5 30 -6 22 -4 23 18 14 64 -24 146 -72 146 -85 0 -30 85 -27
104 4 13 21 -168 116 -241 126 -22 3 -48 0 -62 -7z"/>
<path d="M3495 3441 c-7 -12 12 -24 25 -16 11 7 4 25 -10 25 -5 0 -11 -4 -15
-9z"/>
<path d="M545 3430 c-10 -17 12 -37 25 -24 8 8 6 15 -4 23 -10 9 -16 9 -21 1z"/>
<path d="M3555 3430 c-4 -6 -3 -16 3 -22 6 -6 12 -6 17 2 4 6 3 16 -3 22 -6 6
-12 6 -17 -2z"/>
<path d="M592 3393 c4 -21 33 -25 33 -3 0 8 -8 16 -18 18 -14 3 -18 -1 -15
-15z"/>
<path d="M3522 3378 c6 -18 28 -21 28 -4 0 9 -7 16 -16 16 -9 0 -14 -5 -12
-12z"/>
<path d="M666 3343 c8 -47 12 -53 29 -53 22 0 28 20 12 38 -7 9 -17 25 -20 35
-12 34 -28 18 -21 -20z"/>
<path d="M9814 3315 c-28 -43 8 -63 46 -25 11 11 17 26 14 35 -9 23 -42 18
-60 -10z"/>
<path d="M3518 3293 c-16 -16 -28 -32 -28 -35 0 -25 194 -17 204 8 8 21 -36
45 -96 51 -49 5 -55 3 -80 -24z"/>
<path d="M3736 3271 c-9 -15 23 -36 36 -23 5 5 7 15 4 21 -9 13 -33 14 -40 2z"/>
<path d="M10214 3268 c-4 -6 -9 -44 -12 -83 -4 -69 -3 -73 23 -93 15 -12 34
-22 41 -22 22 0 52 -49 65 -106 7 -30 16 -54 21 -54 15 0 21 31 9 43 -17 17
-13 25 11 29 38 5 31 25 -36 96 -36 38 -66 76 -66 83 0 8 7 23 15 33 20 26 19
72 -1 80 -26 10 -62 7 -70 -6z"/>
<path d="M3345 3260 c-4 -7 -3 -16 3 -22 14 -14 47 -6 47 12 0 18 -40 26 -50
10z"/>
<path d="M3805 3241 c-7 -12 12 -24 25 -16 11 7 4 25 -10 25 -5 0 -11 -4 -15
-9z"/>
<path d="M3100 3226 c0 -9 7 -16 16 -16 9 0 14 5 12 12 -6 18 -28 21 -28 4z"/>
<path d="M3867 3233 c-12 -11 -8 -23 8 -23 8 0 15 7 15 15 0 16 -12 20 -23 8z"/>
<path d="M3920 3204 c0 -9 5 -14 12 -12 18 6 21 28 4 28 -9 0 -16 -7 -16 -16z"/>
<path d="M5175 3190 c-4 -6 -3 -16 3 -22 6 -6 12 -6 17 2 4 6 3 16 -3 22 -6 6
-12 6 -17 -2z"/>
<path d="M5260 3164 c0 -17 22 -14 28 4 2 7 -3 12 -12 12 -9 0 -16 -7 -16 -16z"/>
<path d="M3920 3156 c0 -9 7 -16 16 -16 17 0 14 22 -4 28 -7 2 -12 -3 -12 -12z"/>
<path d="M11090 3134 c0 -17 22 -14 28 4 2 7 -3 12 -12 12 -9 0 -16 -7 -16
-16z"/>
<path d="M11835 3131 c-7 -12 12 -24 25 -16 11 7 4 25 -10 25 -5 0 -11 -4 -15
-9z"/>
<path d="M5205 3120 c-4 -6 -3 -16 3 -22 6 -6 12 -6 17 2 4 6 3 16 -3 22 -6 6
-12 6 -17 -2z"/>
<path d="M5265 3120 c-4 -6 -3 -16 3 -22 6 -6 12 -6 17 2 4 6 3 16 -3 22 -6 6
-12 6 -17 -2z"/>
<path d="M3930 3098 c0 -7 -3 -23 -6 -35 -5 -17 -2 -23 10 -23 9 0 16 6 16 13
0 6 3 22 6 35 5 16 2 22 -10 22 -9 0 -16 -6 -16 -12z"/>
<path d="M10352 3098 c6 -18 28 -21 28 -4 0 9 -7 16 -16 16 -9 0 -14 -5 -12
-12z"/>
<path d="M11047 3093 c-12 -11 -8 -23 8 -23 8 0 15 7 15 15 0 16 -12 20 -23 8z"/>
<path d="M3992 3039 c2 -6 8 -10 13 -10 5 0 11 4 13 10 2 6 -4 11 -13 11 -9 0
-15 -5 -13 -11z"/>
<path d="M10222 3033 c2 -10 10 -18 18 -18 22 0 18 29 -3 33 -14 3 -18 -1 -15
-15z"/>
<path d="M3680 3024 c0 -9 5 -14 12 -12 18 6 21 28 4 28 -9 0 -16 -7 -16 -16z"/>
<path d="M9240 3025 c0 -9 5 -15 11 -13 6 2 11 8 11 13 0 5 -5 11 -11 13 -6 2
-11 -4 -11 -13z"/>
<path d="M3735 3019 c-10 -15 1 -23 20 -15 9 3 13 10 10 16 -8 13 -22 13 -30
-1z"/>
<path d="M7900 3016 c0 -9 7 -16 16 -16 9 0 14 5 12 12 -6 18 -28 21 -28 4z"/>
<path d="M3902 2998 c6 -18 28 -21 28 -4 0 9 -7 16 -16 16 -9 0 -14 -5 -12
-12z"/>
<path d="M10182 2998 c6 -18 28 -21 28 -4 0 9 -7 16 -16 16 -9 0 -14 -5 -12
-12z"/>
<path d="M9240 2964 c0 -17 22 -14 28 4 2 7 -3 12 -12 12 -9 0 -16 -7 -16 -16z"/>
<path d="M10270 2964 c0 -9 5 -14 12 -12 18 6 21 28 4 28 -9 0 -16 -7 -16 -16z"/>
<path d="M3945 2961 c-7 -12 12 -24 25 -16 11 7 4 25 -10 25 -5 0 -11 -4 -15
-9z"/>
<path d="M10137 2936 c-22 -32 -31 -72 -19 -80 15 -9 62 52 62 80 0 31 -23 31
-43 0z"/>
<path d="M10395 2931 c-7 -12 12 -24 25 -16 11 7 4 25 -10 25 -5 0 -11 -4 -15
-9z"/>
<path d="M9620 2916 c0 -9 7 -16 16 -16 17 0 14 22 -4 28 -7 2 -12 -3 -12 -12z"/>
<path d="M10283 2878 c-1 -18 -4 -48 -8 -65 -7 -32 6 -46 20 -23 11 17 30 11
40 -12 24 -54 95 -23 95 41 0 55 -11 65 -64 59 -39 -5 -48 -2 -57 13 -15 28
-25 23 -26 -13z"/>
<path d="M8809 2874 c-19 -23 -17 -90 3 -111 14 -14 22 -15 43 -5 36 17 39 34
16 86 -21 48 -39 57 -62 30z"/>
<path d="M11354 2879 c-10 -17 13 -36 27 -22 12 12 4 33 -11 33 -5 0 -12 -5
-16 -11z"/>
<path d="M11955 2880 c-4 -6 -3 -16 3 -22 6 -6 12 -6 17 2 4 6 3 16 -3 22 -6
6 -12 6 -17 -2z"/>
<path d="M8566 2853 c-11 -11 -6 -23 9 -23 8 0 15 4 15 9 0 13 -16 22 -24 14z"/>
<path d="M11255 2850 c-3 -6 1 -13 10 -16 19 -8 30 0 20 15 -8 14 -22 14 -30
1z"/>
<path d="M11312 2828 c6 -18 28 -21 28 -4 0 9 -7 16 -16 16 -9 0 -14 -5 -12
-12z"/>
<path d="M8560 2785 c0 -8 7 -15 15 -15 8 0 15 7 15 15 0 8 -7 15 -15 15 -8 0
-15 -7 -15 -15z"/>
<path d="M10694 2785 c-8 -20 3 -48 16 -40 13 8 13 55 0 55 -6 0 -13 -7 -16
-15z"/>
<path d="M9286 2783 c-11 -11 -6 -23 9 -23 8 0 15 4 15 9 0 13 -16 22 -24 14z"/>
<path d="M10025 2729 c-33 -33 -79 -72 -101 -85 -23 -14 -44 -33 -47 -44 -3
-12 -14 -20 -25 -20 -34 0 -54 -28 -46 -64 9 -45 38 -97 72 -134 25 -26 38
-32 72 -32 23 0 50 -5 61 -10 30 -17 69 14 69 55 0 18 9 44 20 58 11 14 20 30
20 35 0 6 12 24 26 41 20 24 23 34 15 49 -6 11 -7 23 -3 26 4 4 -4 15 -17 25
l-23 18 31 36 32 35 -44 36 c-24 20 -46 36 -48 36 -3 0 -31 -27 -64 -61z"/>
<path d="M10920 2776 c0 -9 7 -16 16 -16 17 0 14 22 -4 28 -7 2 -12 -3 -12
-12z"/>
<path d="M11160 2776 c0 -9 7 -16 16 -16 17 0 14 22 -4 28 -7 2 -12 -3 -12
-12z"/>
<path d="M10217 2753 c-12 -11 -8 -23 8 -23 8 0 15 7 15 15 0 16 -12 20 -23 8z"/>
<path d="M11100 2745 c0 -8 7 -15 15 -15 8 0 15 7 15 15 0 8 -7 15 -15 15 -8
0 -15 -7 -15 -15z"/>
<path d="M8572 2728 c5 -15 28 -18 29 -3 0 6 -7 12 -17 13 -10 3 -15 -1 -12
-10z"/>
<path d="M9350 2725 c0 -3 25 -42 55 -86 30 -44 55 -87 55 -94 0 -8 13 -29 29
-47 15 -18 36 -50 46 -70 9 -21 43 -66 75 -100 57 -63 58 -63 79 -44 11 11 21
29 21 40 0 12 7 34 15 50 17 32 6 56 -24 56 -18 0 -81 59 -81 76 0 6 -14 23
-31 40 -17 16 -54 56 -82 89 -27 33 -64 68 -81 77 -29 16 -76 24 -76 13z"/>
<path d="M11680 2715 c0 -8 7 -15 15 -15 8 0 15 7 15 15 0 8 -7 15 -15 15 -8
0 -15 -7 -15 -15z"/>
<path d="M8567 2683 c-12 -11 -8 -23 8 -23 8 0 15 7 15 15 0 16 -12 20 -23 8z"/>
<path d="M9772 2658 c6 -18 28 -21 28 -4 0 9 -7 16 -16 16 -9 0 -14 -5 -12
-12z"/>
<path d="M6320 2645 c0 -9 5 -15 11 -13 6 2 11 8 11 13 0 5 -5 11 -11 13 -6 2
-11 -4 -11 -13z"/>
<path d="M9350 2615 c0 -8 7 -15 15 -15 8 0 15 7 15 15 0 8 -7 15 -15 15 -8 0
-15 -7 -15 -15z"/>
<path d="M10480 2615 c0 -8 7 -15 15 -15 8 0 15 7 15 15 0 8 -7 15 -15 15 -8
0 -15 -7 -15 -15z"/>
<path d="M6290 2584 c0 -17 22 -14 28 4 2 7 -3 12 -12 12 -9 0 -16 -7 -16 -16z"/>
<path d="M2905 2570 c-4 -6 -3 -16 3 -22 6 -6 12 -6 17 2 4 6 3 16 -3 22 -6 6
-12 6 -17 -2z"/>
<path d="M10462 2568 c-25 -25 -6 -154 21 -145 6 2 11 19 13 37 1 19 6 50 10
69 5 23 3 36 -7 42 -18 12 -23 11 -37 -3z"/>
<path d="M9410 2544 c0 -17 22 -14 28 4 2 7 -3 12 -12 12 -9 0 -16 -7 -16 -16z"/>
<path d="M10205 2536 c-38 -38 -53 -115 -40 -204 16 -108 73 -126 61 -20 -8
65 8 75 20 12 14 -76 64 -78 64 -2 0 32 -6 46 -32 69 -34 32 -30 45 15 51 40
4 35 22 -10 32 -70 16 -70 16 -48 32 13 10 31 13 51 9 37 -6 94 12 94 31 0 11
-17 14 -75 14 -67 0 -79 -3 -100 -24z"/>
<path d="M11975 2551 c-7 -12 12 -24 25 -16 11 7 4 25 -10 25 -5 0 -11 -4 -15
-9z"/>
<path d="M6245 2540 c-3 -6 1 -13 10 -16 19 -8 30 0 20 15 -8 14 -22 14 -30 1z"/>
<path d="M10535 2511 c-7 -12 12 -24 25 -16 11 7 4 25 -10 25 -5 0 -11 -4 -15
-9z"/>
<path d="M2905 2500 c-4 -6 -3 -16 3 -22 6 -6 12 -6 17 2 4 6 3 16 -3 22 -6 6
-12 6 -17 -2z"/>
<path d="M11795 2500 c-4 -6 -3 -16 3 -22 6 -6 12 -6 17 2 4 6 3 16 -3 22 -6
6 -12 6 -17 -2z"/>
<path d="M2842 2483 c4 -21 33 -25 33 -3 0 8 -8 16 -18 18 -14 3 -18 -1 -15
-15z"/>
<path d="M2960 2474 c0 -9 5 -14 12 -12 18 6 21 28 4 28 -9 0 -16 -7 -16 -16z"/>
<path d="M10580 2475 c0 -9 16 -25 35 -37 32 -18 34 -22 19 -32 -24 -18 -1
-60 29 -52 23 6 109 -33 145 -66 23 -22 30 -62 12 -73 -5 -3 -10 -14 -10 -24
0 -13 8 -18 28 -18 15 0 55 -11 90 -24 l63 -24 21 28 c28 38 82 38 102 -1 31
-60 97 -87 156 -62 38 16 39 30 2 30 -41 0 -72 27 -97 84 -39 88 -136 157
-299 212 l-69 24 -29 -25 c-16 -14 -33 -25 -38 -25 -12 0 -27 22 -34 52 -5 21
-15 30 -44 37 -53 15 -82 14 -82 -4z"/>
<path d="M12007 2473 c-12 -11 -8 -23 8 -23 8 0 15 7 15 15 0 16 -12 20 -23 8z"/>
<path d="M9462 2448 c6 -18 28 -21 28 -4 0 9 -7 16 -16 16 -9 0 -14 -5 -12
-12z"/>
<path d="M10534 2449 c-10 -17 13 -36 27 -22 12 12 4 33 -11 33 -5 0 -12 -5
-16 -11z"/>
<path d="M10732 2448 c5 -15 28 -18 29 -3 0 6 -7 12 -17 13 -10 3 -15 -1 -12
-10z"/>
<path d="M10960 2444 c0 -9 5 -14 12 -12 18 6 21 28 4 28 -9 0 -16 -7 -16 -16z"/>
<path d="M11230 2444 c0 -9 5 -14 12 -12 18 6 21 28 4 28 -9 0 -16 -7 -16 -16z"/>
<path d="M6220 2436 c0 -9 7 -16 16 -16 9 0 14 5 12 12 -6 18 -28 21 -28 4z"/>
<path d="M9790 2436 c0 -9 7 -16 16 -16 9 0 14 5 12 12 -6 18 -28 21 -28 4z"/>
<path d="M11115 2441 c-7 -12 12 -24 25 -16 11 7 4 25 -10 25 -5 0 -11 -4 -15
-9z"/>
<path d="M10355 2430 c-7 -12 2 -30 16 -30 12 0 12 27 0 35 -5 3 -12 1 -16 -5z"/>
<path d="M10415 2430 c-4 -6 -3 -16 3 -22 6 -6 12 -6 17 2 4 6 3 16 -3 22 -6
6 -12 6 -17 -2z"/>
<path d="M12050 2414 c0 -9 5 -14 12 -12 18 6 21 28 4 28 -9 0 -16 -7 -16 -16z"/>
<path d="M12100 2405 c0 -8 7 -15 15 -15 8 0 15 7 15 15 0 8 -7 15 -15 15 -8
0 -15 -7 -15 -15z"/>
<path d="M9496 2401 c-8 -12 10 -51 24 -51 20 0 21 23 2 42 -13 13 -22 16 -26
9z"/>
<path d="M9765 2400 c-4 -6 -3 -16 3 -22 6 -6 12 -6 17 2 4 6 3 16 -3 22 -6 6
-12 6 -17 -2z"/>
<path d="M11317 2404 c-10 -10 22 -64 38 -64 16 0 20 18 7 35 -13 19 -39 35
-45 29z"/>
<path d="M10493 2393 c-7 -2 -13 -11 -13 -19 0 -16 75 -20 85 -5 11 19 -42 37
-72 24z"/>
<path d="M10410 2366 c0 -9 7 -16 16 -16 9 0 14 5 12 12 -6 18 -28 21 -28 4z"/>
<path d="M7970 2336 c0 -9 7 -16 16 -16 9 0 14 5 12 12 -6 18 -28 21 -28 4z"/>
<path d="M11255 2324 c-42 -25 -53 -56 -22 -62 23 -5 77 45 77 70 0 23 -5 22
-55 -8z"/>
<path d="M7445 2311 c-7 -12 12 -24 25 -16 11 7 4 25 -10 25 -5 0 -11 -4 -15
-9z"/>
<path d="M10635 2301 c-7 -12 12 -24 25 -16 11 7 4 25 -10 25 -5 0 -11 -4 -15
-9z"/>
<path d="M11160 2296 c0 -9 7 -16 16 -16 9 0 14 5 12 12 -6 18 -28 21 -28 4z"/>
<path d="M10340 2274 c0 -9 5 -14 12 -12 18 6 21 28 4 28 -9 0 -16 -7 -16 -16z"/>
<path d="M10692 2278 c6 -18 28 -21 28 -4 0 9 -7 16 -16 16 -9 0 -14 -5 -12
-12z"/>
<path d="M11400 2274 c0 -9 5 -14 12 -12 18 6 21 28 4 28 -9 0 -16 -7 -16 -16z"/>
<path d="M7900 2266 c0 -9 7 -16 16 -16 17 0 14 22 -4 28 -7 2 -12 -3 -12 -12z"/>
<path d="M9700 2261 c-5 -11 -10 -22 -10 -25 0 -15 86 -46 181 -65 130 -26
129 -26 129 -1 0 32 -68 70 -146 81 -38 5 -82 14 -98 19 -40 14 -44 13 -56 -9z"/>
<path d="M7435 2260 c-4 -6 -3 -16 3 -22 6 -6 12 -6 17 2 4 6 3 16 -3 22 -6 6
-12 6 -17 -2z"/>
<path d="M11455 2260 c-4 -6 -3 -16 3 -22 6 -6 12 -6 17 2 4 6 3 16 -3 22 -6
6 -12 6 -17 -2z"/>
<path d="M9970 2236 c0 -19 26 -27 39 -12 13 15 4 26 -21 26 -10 0 -18 -6 -18
-14z"/>
<path d="M10042 2238 c6 -18 28 -21 28 -4 0 9 -7 16 -16 16 -9 0 -14 -5 -12
-12z"/>
<path d="M12115 2241 c-7 -12 12 -24 25 -16 11 7 4 25 -10 25 -5 0 -11 -4 -15
-9z"/>
<path d="M10257 2233 c-12 -11 -8 -23 8 -23 8 0 15 7 15 15 0 16 -12 20 -23 8z"/>
<path d="M11515 2230 c-8 -14 3 -30 21 -30 8 0 14 9 14 20 0 21 -24 28 -35 10z"/>
<path d="M10452 2208 c6 -18 28 -21 28 -4 0 9 -7 16 -16 16 -9 0 -14 -5 -12
-12z"/>
<path d="M10566 2201 c-9 -15 23 -36 36 -23 5 5 7 15 4 21 -9 13 -33 14 -40 2z"/>
<path d="M11470 2196 c0 -9 7 -16 16 -16 9 0 14 5 12 12 -6 18 -28 21 -28 4z"/>
<path d="M12190 2196 c0 -9 7 -16 16 -16 9 0 14 5 12 12 -6 18 -28 21 -28 4z"/>
<path d="M7450 2190 c-12 -7 -12 -12 -2 -22 9 -9 15 -9 24 0 16 16 -2 34 -22
22z"/>
<path d="M10515 2190 c-4 -6 -3 -16 3 -22 6 -6 12 -6 17 2 4 6 3 16 -3 22 -6
6 -12 6 -17 -2z"/>
<path d="M11584 2189 c-10 -17 23 -46 38 -31 8 8 8 15 -2 27 -15 18 -26 19
-36 4z"/>
<path d="M10395 2171 c-41 -25 -78 -67 -71 -80 17 -27 135 52 123 82 -8 21
-15 21 -52 -2z"/>
<path d="M10030 2165 c0 -8 7 -15 15 -15 8 0 15 7 15 15 0 8 -7 15 -15 15 -8
0 -15 -7 -15 -15z"/>
<path d="M10310 2165 c0 -8 7 -15 15 -15 8 0 15 7 15 15 0 8 -7 15 -15 15 -8
0 -15 -7 -15 -15z"/>
<path d="M10085 2159 c-10 -15 0 -21 30 -21 32 0 44 10 25 22 -20 13 -47 12
-55 -1z"/>
<path d="M10202 2153 c2 -12 12 -18 28 -18 36 0 33 29 -3 33 -23 3 -28 0 -25
-15z"/>
<path d="M11552 2138 c6 -18 28 -21 28 -4 0 9 -7 16 -16 16 -9 0 -14 -5 -12
-12z"/>
<path d="M10172 2109 c2 -6 8 -10 13 -10 5 0 11 4 13 10 2 6 -4 11 -13 11 -9
0 -15 -5 -13 -11z"/>
<path d="M10255 2101 c-7 -12 12 -24 25 -16 11 7 4 25 -10 25 -5 0 -11 -4 -15
-9z"/>
<path d="M11627 2103 c-12 -11 -8 -23 8 -23 8 0 15 7 15 15 0 16 -12 20 -23 8z"/>
<path d="M11312 2068 c6 -18 28 -21 28 -4 0 9 -7 16 -16 16 -9 0 -14 -5 -12
-12z"/>
<path d="M11565 2060 c-3 -6 1 -13 10 -16 19 -8 30 0 20 15 -8 14 -22 14 -30
1z"/>
<path d="M10598 2037 c-15 -19 -17 -19 -18 -4 0 9 -7 17 -15 17 -11 0 -14 -7
-9 -25 4 -16 -1 -39 -14 -63 -15 -29 -17 -43 -10 -57 10 -16 7 -18 -27 -12
-21 3 -48 15 -60 27 -12 11 -26 20 -33 20 -6 0 -32 -20 -57 -45 -37 -35 -45
-49 -40 -67 l6 -23 -20 23 c-19 22 -20 22 -30 3 -6 -11 -11 -30 -11 -43 0 -35
-42 -68 -152 -122 -153 -75 -183 -114 -138 -181 26 -39 26 -65 1 -34 -18 22
-20 23 -27 6 -4 -12 4 -43 24 -85 39 -82 62 -173 62 -241 0 -43 4 -56 26 -76
41 -38 59 -39 118 -6 29 17 74 34 100 37 29 4 60 18 82 35 20 16 53 31 73 34
20 3 53 11 74 17 31 9 48 8 95 -6 67 -21 77 -29 108 -78 14 -21 30 -38 37 -38
7 0 24 18 36 41 25 44 37 47 21 5 -17 -46 -13 -59 15 -52 18 5 23 3 19 -7 -3
-8 6 -27 19 -43 13 -16 32 -44 41 -61 17 -33 61 -63 93 -63 10 0 29 7 42 16
22 16 24 15 47 -10 31 -33 38 -33 66 4 15 20 30 30 49 30 33 0 44 13 59 70 6
25 25 77 40 115 38 93 47 131 60 248 14 125 9 152 -36 173 -19 9 -40 26 -46
38 -6 11 -24 36 -39 54 -16 18 -29 39 -29 48 0 8 -11 20 -25 26 -38 17 -65 70
-76 145 -6 46 -19 80 -39 111 -17 25 -30 51 -30 58 0 27 -24 64 -41 64 -20 0
-29 -24 -54 -145 -10 -44 -24 -93 -32 -108 l-14 -28 -30 18 c-17 10 -48 33
-70 51 -43 37 -48 61 -24 119 22 51 19 61 -21 78 -55 23 -125 19 -146 -8z"/>
<path d="M7530 2025 c0 -8 7 -15 15 -15 8 0 15 7 15 15 0 8 -7 15 -15 15 -8 0
-15 -7 -15 -15z"/>
<path d="M7572 1998 c6 -18 28 -21 28 -4 0 9 -7 16 -16 16 -9 0 -14 -5 -12
-12z"/>
<path d="M7728 1963 c-17 -33 -39 -58 -74 -80 -63 -42 -84 -81 -83 -153 0 -31
-6 -72 -16 -94 -19 -45 -14 -89 15 -147 23 -43 34 -49 77 -37 22 6 38 19 50
41 18 34 91 323 100 392 5 44 -15 116 -34 122 -6 2 -22 -17 -35 -44z"/>
<path d="M7615 1961 c-7 -12 12 -24 25 -16 11 7 4 25 -10 25 -5 0 -11 -4 -15
-9z"/>
<path d="M10775 1961 c-7 -12 12 -24 25 -16 11 7 4 25 -10 25 -5 0 -11 -4 -15
-9z"/>
<path d="M12530 1950 c0 -17 5 -25 15 -25 6 0 16 -4 23 -8 13 -9 32 -1 32 14
0 5 -9 9 -19 9 -11 0 -23 5 -26 10 -3 6 -10 10 -16 10 -5 0 -9 -4 -9 -10z"/>
<path d="M11780 1886 c0 -9 7 -16 16 -16 9 0 14 5 12 12 -6 18 -28 21 -28 4z"/>
<path d="M7925 1850 c-3 -6 1 -13 10 -16 19 -8 30 0 20 15 -8 14 -22 14 -30 1z"/>
<path d="M11792 1828 c6 -18 28 -21 28 -4 0 9 -7 16 -16 16 -9 0 -14 -5 -12
-12z"/>
<path d="M12215 1831 c-7 -12 12 -24 25 -16 11 7 4 25 -10 25 -5 0 -11 -4 -15
-9z"/>
<path d="M11832 1798 c5 -15 28 -18 29 -3 0 6 -7 12 -17 13 -10 3 -15 -1 -12
-10z"/>
<path d="M887 1794 c-8 -8 1 -24 14 -24 5 0 9 7 9 15 0 15 -12 20 -23 9z"/>
<path d="M12177 1794 c-8 -8 1 -24 14 -24 5 0 9 7 9 15 0 15 -12 20 -23 9z"/>
<path d="M925 1761 c-7 -12 12 -24 25 -16 11 7 4 25 -10 25 -5 0 -11 -4 -15
-9z"/>
<path d="M12430 1684 c0 -9 5 -14 12 -12 18 6 21 28 4 28 -9 0 -16 -7 -16 -16z"/>
<path d="M1322 1658 c6 -18 28 -21 28 -4 0 9 -7 16 -16 16 -9 0 -14 -5 -12
-12z"/>
<path d="M8022 1658 c5 -15 28 -18 29 -3 0 6 -7 12 -17 13 -10 3 -15 -1 -12
-10z"/>
<path d="M11720 1661 c0 -13 49 -51 66 -51 25 0 27 23 4 42 -23 19 -70 25 -70
9z"/>
<path d="M7970 1646 c0 -9 7 -16 16 -16 17 0 14 22 -4 28 -7 2 -12 -3 -12 -12z"/>
<path d="M12385 1651 c-7 -12 12 -24 25 -16 11 7 4 25 -10 25 -5 0 -11 -4 -15
-9z"/>
<path d="M1185 1640 c-4 -6 -3 -16 3 -22 6 -6 12 -6 17 2 4 6 3 16 -3 22 -6 6
-12 6 -17 -2z"/>
<path d="M1405 1581 c-7 -12 12 -24 25 -16 11 7 4 25 -10 25 -5 0 -11 -4 -15
-9z"/>
<path d="M1602 1518 c6 -18 28 -21 28 -4 0 9 -7 16 -16 16 -9 0 -14 -5 -12
-12z"/>
<path d="M1735 1500 c-4 -6 -3 -16 3 -22 6 -6 12 -6 17 2 4 6 3 16 -3 22 -6 6
-12 6 -17 -2z"/>
<path d="M2427 1443 c-12 -11 -8 -23 8 -23 8 0 15 7 15 15 0 16 -12 20 -23 8z"/>
<path d="M2257 1413 c-12 -11 -8 -23 8 -23 8 0 15 7 15 15 0 16 -12 20 -23 8z"/>
<path d="M3300 1095 c0 -9 5 -15 11 -13 6 2 11 8 11 13 0 5 -5 11 -11 13 -6 2
-11 -4 -11 -13z"/>
<path d="M12000 1053 c0 -5 14 -30 30 -58 32 -55 37 -99 15 -129 -20 -27 -19
-35 9 -45 15 -6 25 -20 29 -41 9 -42 36 -37 60 13 9 20 26 46 37 57 27 27 27
80 1 80 -10 0 -25 10 -33 22 -13 19 -18 21 -31 10 -13 -11 -16 -10 -22 8 -14
45 -96 116 -95 83z"/>
<path d="M10765 1020 c-4 -6 -3 -16 3 -22 6 -6 12 -6 17 2 4 6 3 16 -3 22 -6
6 -12 6 -17 -2z"/>
<path d="M11142 828 c6 -18 28 -21 28 -4 0 9 -7 16 -16 16 -9 0 -14 -5 -12
-12z"/>
<path d="M11015 820 c-3 -6 1 -13 10 -16 19 -8 30 0 20 15 -8 14 -22 14 -30 1z"/>
<path d="M11073 783 c-26 -5 -28 -15 -12 -64 26 -80 92 -86 119 -11 13 37 13
44 0 56 -17 16 -73 26 -107 19z"/>
<path d="M11988 763 c-9 -10 -22 -31 -31 -48 -8 -16 -29 -40 -46 -53 -36 -26
-101 -119 -101 -144 0 -12 8 -18 25 -18 13 0 36 -5 50 -12 22 -10 29 -8 55 17
18 17 30 39 30 55 0 14 14 42 31 63 17 21 32 43 33 51 1 7 9 21 19 30 21 22
22 40 1 60 -20 21 -47 20 -66 -1z"/>
<path d="M3454 715 c-3 -8 -3 -19 1 -25 10 -16 35 7 28 26 -7 18 -22 18 -29
-1z"/>
<path d="M11855 470 c-4 -6 -3 -16 3 -22 6 -6 12 -6 17 2 4 6 3 16 -3 22 -6 6
-12 6 -17 -2z"/>
<path d="M3425 451 c-7 -12 12 -24 25 -16 11 7 4 25 -10 25 -5 0 -11 -4 -15
-9z"/>
<path d="M8420 402 c0 -11 8 -27 19 -36 17 -16 20 -16 35 -1 9 9 16 21 16 27
0 6 -3 8 -6 5 -4 -3 -16 0 -28 8 -27 20 -36 19 -36 -3z"/>
<path d="M3427 384 c-8 -8 1 -24 14 -24 5 0 9 7 9 15 0 15 -12 20 -23 9z"/>
<path d="M11765 339 c-10 -15 1 -23 20 -15 9 3 13 10 10 16 -8 13 -22 13 -30
-1z"/>
<path d="M3427 314 c-8 -8 1 -24 14 -24 5 0 9 7 9 15 0 15 -12 20 -23 9z"/>
<path d="M4000 278 c0 -7 -3 -23 -6 -35 -5 -17 -2 -23 10 -23 9 0 16 6 16 13
0 6 3 22 6 35 5 16 2 22 -10 22 -9 0 -16 -6 -16 -12z"/>
<path d="M3933 264 c-9 -25 12 -38 31 -19 9 9 14 21 11 26 -10 14 -35 10 -42
-7z"/>
<path d="M3470 206 c0 -8 7 -16 15 -20 8 -3 15 -12 15 -21 0 -8 5 -15 11 -15
7 0 9 9 5 23 -3 12 -6 28 -6 35 0 6 -9 12 -20 12 -11 0 -20 -6 -20 -14z"/>
<path d="M8575 199 c-10 -15 1 -23 20 -15 9 3 13 10 10 16 -8 13 -22 13 -30
-1z"/>
<path d="M4720 142 c0 -15 40 -42 62 -42 21 0 33 19 21 31 -15 15 -83 24 -83
11z"/>
<path d="M3792 108 c6 -18 28 -21 28 -4 0 9 -7 16 -16 16 -9 0 -14 -5 -12 -12z"/>
<path d="M3625 60 c-8 -13 3 -30 20 -30 14 0 27 24 18 34 -10 9 -31 7 -38 -4z"/>
</g>
</svg>
