<?xml version="1.0" standalone="no"?>
<!DOCTYPE svg PUBLIC "-//W3C//DTD SVG 20010904//EN"
 "http://www.w3.org/TR/2001/REC-SVG-20010904/DTD/svg10.dtd">
<svg version="1.0" xmlns="http://www.w3.org/2000/svg"
 width="868.000000pt" height="1280.000000pt" viewBox="0 0 868.000000 1280.000000"
 preserveAspectRatio="xMidYMid meet">
<metadata>
Created by potrace 1.15, written by Peter Selinger 2001-2017
</metadata>
<g transform="translate(0.000000,1280.000000) scale(0.100000,-0.100000)"
fill="#000000" stroke="none">
<path d="M1784 12781 c-22 -10 -60 -41 -85 -68 -27 -31 -63 -59 -94 -72 -27
-12 -63 -34 -78 -49 -25 -24 -38 -28 -119 -33 -89 -5 -92 -6 -117 -39 -14 -19
-36 -45 -48 -59 l-22 -26 -16 23 c-20 28 -54 28 -89 1 -39 -31 -96 -156 -96
-213 0 -44 -1 -46 -30 -46 -33 0 -42 -8 -73 -64 -12 -22 -42 -53 -66 -70 -47
-33 -65 -64 -50 -87 12 -19 11 -99 -1 -99 -5 0 -10 7 -10 16 0 9 -14 36 -32
60 -23 32 -38 44 -52 42 -18 -3 -20 -9 -18 -48 2 -29 -4 -63 -17 -93 -16 -38
-24 -46 -43 -44 -20 2 -23 -3 -26 -36 -2 -23 3 -48 12 -62 9 -14 16 -31 16
-39 0 -7 12 -17 26 -20 24 -6 26 -10 22 -49 -3 -24 1 -58 10 -80 11 -30 12
-40 2 -52 -9 -11 -13 -62 -14 -168 -2 -154 3 -187 29 -187 29 0 26 -22 -8 -60
-50 -55 -63 -78 -77 -137 -8 -37 -17 -53 -28 -54 -10 -1 -28 -4 -42 -6 -14 -3
-40 -5 -58 -6 -38 -2 -49 -25 -38 -80 15 -74 13 -82 -21 -85 -39 -4 -51 -38
-28 -82 17 -34 16 -35 -50 -45 -55 -8 -94 -25 -115 -51 -24 -27 -40 -87 -34
-124 4 -29 -1 -44 -30 -84 -22 -30 -36 -61 -36 -79 0 -18 -13 -45 -32 -70
l-33 -41 -1 -132 -1 -132 33 -16 c31 -14 39 -14 115 5 64 16 84 18 90 8 11
-19 -27 -87 -59 -103 -15 -8 -47 -38 -72 -68 -24 -29 -70 -80 -101 -113 -64
-67 -91 -134 -70 -174 7 -12 16 -21 21 -21 6 0 10 -15 10 -33 0 -30 29 -88 30
-60 0 6 -5 15 -10 18 -6 3 -10 19 -10 36 0 26 3 29 33 29 37 0 55 12 79 50 9
15 34 34 57 44 38 17 42 18 65 2 14 -9 31 -16 38 -16 6 0 21 -9 32 -19 12 -11
37 -22 56 -26 34 -6 37 -4 68 43 37 57 56 101 67 151 13 62 35 105 48 92 6 -6
14 -11 17 -11 10 0 30 48 30 69 0 28 27 46 145 96 130 56 182 91 234 159 40
55 81 157 81 206 0 19 5 30 14 30 8 0 18 4 21 10 8 12 -22 69 -39 76 -18 7 28
54 52 54 28 -1 123 -67 143 -99 12 -20 40 -40 84 -60 36 -16 65 -34 65 -40 0
-6 18 -23 40 -37 26 -17 39 -33 35 -41 -2 -8 0 -23 5 -34 8 -13 7 -25 0 -39
-9 -16 -7 -21 7 -27 10 -3 25 -15 34 -26 13 -16 20 -17 37 -8 11 6 32 11 47
11 14 0 52 14 85 30 70 35 100 38 125 10 24 -27 47 -25 76 6 22 24 28 25 79
19 64 -8 90 -20 90 -41 0 -8 9 -18 21 -22 19 -7 13 -17 -66 -115 -47 -59 -81
-107 -75 -107 6 0 28 9 50 20 51 26 70 26 70 -2 0 -12 14 -37 32 -55 30 -32
31 -33 9 -33 -12 0 -31 -5 -41 -10 -13 -7 -27 -6 -44 2 -32 14 -86 0 -140 -37
-22 -15 -51 -25 -71 -25 -19 0 -59 -9 -89 -21 -67 -25 -108 -69 -172 -188 -45
-82 -46 -86 -36 -135 12 -58 5 -71 -45 -93 -28 -11 -35 -22 -53 -85 -11 -40
-25 -83 -30 -96 -11 -26 -3 -47 29 -76 11 -10 23 -34 27 -52 3 -19 24 -54 46
-79 43 -49 61 -95 51 -133 -6 -24 -5 -25 39 -20 59 7 96 -9 141 -62 35 -42 37
-43 87 -38 41 4 59 12 88 40 40 38 105 78 126 78 19 0 27 -54 25 -164 -2 -116
7 -136 62 -136 22 0 56 8 77 19 24 12 44 16 58 11 11 -5 57 -65 102 -135 l81
-127 -15 -46 c-37 -120 -38 -129 -27 -209 11 -76 11 -79 -13 -104 -19 -20 -26
-40 -30 -95 -6 -70 -20 -124 -34 -124 -4 0 -13 7 -20 15 -7 8 -19 15 -26 15
-18 0 -30 -48 -15 -63 18 -18 13 -24 -26 -32 l-38 -7 80 -39 c44 -21 90 -39
103 -39 12 0 22 -6 22 -14 0 -8 3 -21 6 -30 4 -11 -9 -23 -50 -43 -81 -40 -89
-68 -41 -152 11 -21 11 -27 -2 -48 -8 -12 -13 -32 -10 -42 10 -41 -49 -81
-119 -81 -30 0 -160 110 -211 178 -29 38 -170 112 -215 112 -19 0 -49 11 -70
25 -20 14 -43 25 -50 25 -7 0 -62 22 -123 49 -60 27 -131 56 -156 65 -33 12
-55 28 -74 56 -15 22 -31 40 -36 40 -4 0 -22 12 -40 28 -18 15 -53 38 -77 52
-31 17 -53 39 -69 69 -27 52 -28 71 -7 113 21 41 11 78 -20 78 -20 0 -30 11
-52 58 -15 31 -45 76 -67 100 -21 24 -49 67 -62 95 -13 29 -44 72 -70 97 -28
28 -59 73 -81 120 -20 41 -47 98 -60 126 -13 29 -35 68 -49 88 -40 59 -58 97
-75 161 -15 56 -20 63 -84 111 -58 43 -73 61 -90 105 -29 74 -107 153 -166
169 -102 27 -124 36 -134 52 -8 13 -5 21 16 38 15 11 30 29 33 40 7 21 -10 60
-26 60 -5 0 -2 -11 6 -24 15 -23 15 -27 0 -49 -9 -14 -23 -28 -31 -31 -8 -3
-14 -14 -14 -25 0 -24 38 -46 95 -57 59 -10 130 -49 159 -87 14 -18 37 -58 51
-90 21 -46 39 -66 96 -108 38 -29 69 -57 69 -64 0 -36 37 -122 90 -210 33 -55
60 -104 60 -110 0 -5 20 -50 44 -98 30 -60 59 -101 90 -128 26 -23 49 -55 57
-77 6 -20 30 -61 53 -90 22 -29 57 -80 76 -114 24 -43 43 -64 60 -68 31 -7 36
-30 16 -69 -20 -38 -20 -85 -1 -101 8 -7 15 -21 15 -31 0 -19 31 -44 97 -78
24 -12 74 -52 111 -90 52 -52 77 -70 107 -75 21 -4 83 -30 137 -57 53 -27 107
-49 117 -49 11 0 37 -11 57 -25 21 -15 51 -25 71 -25 55 0 151 -55 225 -128
81 -81 152 -144 176 -155 13 -6 17 -21 18 -65 1 -41 9 -71 28 -106 25 -47 26
-56 26 -203 0 -130 3 -158 18 -180 30 -47 13 -290 -24 -334 -18 -20 -17 -59 1
-83 20 -26 11 -352 -12 -414 -17 -48 -12 -96 13 -123 20 -23 12 -77 -32 -220
-8 -26 -14 -62 -14 -82 0 -19 -7 -74 -15 -122 -13 -71 -13 -99 -4 -147 8 -42
9 -66 1 -82 -8 -18 -7 -29 3 -44 13 -17 12 -27 -7 -79 -22 -60 -22 -60 -4
-154 12 -64 25 -101 39 -117 18 -20 22 -34 20 -89 -1 -37 3 -75 8 -86 8 -14 6
-28 -7 -55 -14 -31 -15 -42 -5 -83 10 -39 10 -52 -2 -76 -8 -15 -18 -73 -22
-128 -5 -62 -14 -113 -25 -135 -10 -19 -21 -51 -25 -70 -4 -19 -14 -46 -22
-59 -11 -17 -15 -46 -14 -91 2 -70 -21 -141 -57 -174 -28 -24 -34 -68 -17
-117 8 -23 15 -70 15 -105 0 -47 7 -78 25 -119 28 -60 31 -117 9 -171 -8 -20
-13 -83 -12 -182 0 -138 2 -153 18 -162 10 -6 22 -19 25 -30 5 -16 15 -20 51
-20 38 0 46 4 53 24 22 56 75 37 65 -24 -5 -29 -2 -38 10 -43 24 -10 21 -41
-4 -34 -24 6 -25 3 -3 -29 14 -21 15 -31 5 -56 -6 -16 -9 -35 -6 -42 2 -6 -2
-30 -10 -52 -9 -26 -11 -46 -5 -55 5 -8 9 -34 9 -59 0 -65 9 -89 35 -96 38 -9
58 -38 50 -73 -3 -16 -15 -33 -25 -36 -37 -12 -76 -106 -58 -139 7 -12 5 -24
-5 -40 -10 -15 -12 -28 -6 -37 5 -8 9 -30 9 -50 l0 -36 -34 11 c-31 9 -34 13
-29 40 5 21 1 33 -12 43 -20 14 -91 18 -99 5 -2 -4 13 -6 35 -4 52 5 72 -12
65 -53 -6 -29 -4 -31 35 -42 49 -13 54 -5 45 66 -3 26 -3 51 1 55 4 4 8 34 8
68 0 58 2 62 39 94 31 27 39 40 40 71 1 34 -3 40 -33 55 -19 10 -38 23 -42 30
-15 27 -11 221 5 280 4 15 4 34 -2 44 -7 12 -4 22 11 37 l20 20 -22 17 c-19
14 -21 22 -16 52 6 31 4 38 -14 48 -29 15 -55 5 -69 -25 -17 -37 -65 -34 -102
5 -27 29 -27 30 -28 175 -1 105 3 155 14 180 22 53 18 118 -11 175 -20 39 -25
64 -25 120 0 39 -6 86 -15 106 -16 38 -10 90 11 98 7 3 25 28 39 56 22 43 26
63 24 125 -1 41 3 80 9 87 26 32 64 170 76 273 6 61 18 121 25 134 10 19 11
32 1 67 -11 39 -10 50 5 83 13 29 14 44 7 58 -6 11 -10 49 -9 86 2 55 -2 69
-20 89 -14 16 -27 53 -39 115 -17 91 -17 93 4 154 18 54 19 65 7 82 -10 15
-11 25 -2 44 8 17 7 40 -2 88 -7 36 -10 73 -6 82 4 10 13 65 20 123 17 127 32
200 53 260 21 58 21 58 -8 112 -24 47 -24 48 -8 100 12 35 19 104 23 208 7
203 7 198 -10 223 -20 28 -19 56 2 79 9 10 18 26 19 36 27 217 26 266 -2 307
-10 14 -14 59 -14 171 0 139 -2 154 -23 195 -28 51 -40 108 -32 141 5 18 17
27 48 35 62 17 80 34 81 78 1 21 6 40 11 41 15 4 85 -91 85 -115 0 -42 28 -88
83 -136 l55 -49 -15 -34 c-35 -84 -22 -210 29 -273 19 -23 32 -55 38 -91 5
-31 17 -73 28 -95 31 -61 37 -101 17 -123 -15 -17 -16 -22 -4 -36 20 -24 94
-54 118 -47 11 3 23 14 26 24 13 39 28 20 21 -27 -3 -26 -6 -73 -6 -106 l0
-59 -93 -60 c-53 -33 -99 -70 -105 -84 -7 -14 -9 -44 -6 -68 5 -32 2 -46 -10
-56 -22 -18 -20 -59 5 -117 17 -37 19 -52 10 -66 -16 -26 -14 -53 9 -95 19
-36 19 -37 0 -50 -11 -8 -20 -24 -20 -37 0 -12 -13 -35 -29 -50 -34 -32 -97
-173 -117 -259 -8 -32 -22 -74 -32 -95 -20 -38 -16 -73 17 -155 9 -23 7 -35
-10 -69 -15 -28 -19 -50 -15 -76 7 -42 -1 -59 -35 -76 -40 -20 -35 -48 20
-108 45 -49 48 -56 35 -70 -14 -14 -13 -21 13 -74 16 -33 28 -67 25 -77 -2
-10 10 -42 26 -71 22 -38 32 -73 37 -124 7 -65 6 -71 -14 -84 -11 -7 -21 -19
-21 -28 0 -30 -33 -100 -50 -105 -31 -10 -33 -52 -5 -112 15 -34 22 -60 16
-67 -5 -6 -12 -22 -16 -36 -4 -14 -21 -44 -38 -67 -28 -40 -29 -43 -17 -93 10
-40 10 -57 0 -81 -12 -27 -9 -37 23 -107 55 -118 55 -124 9 -161 -47 -36 -48
-45 -58 -311 l-6 -155 31 -59 c37 -70 41 -124 10 -152 -29 -26 -20 -78 21
-115 23 -22 30 -36 30 -67 0 -50 20 -153 33 -170 7 -9 22 -11 48 -7 31 5 39 3
53 -16 14 -21 14 -24 -2 -35 -9 -6 -37 -15 -62 -18 -83 -13 -85 -15 -50 -41
17 -13 45 -29 61 -35 34 -15 37 -35 9 -65 -29 -31 -33 -156 -6 -200 17 -29 17
-33 2 -69 -9 -21 -16 -53 -16 -70 -1 -17 -7 -42 -15 -56 -20 -34 -20 -134 0
-150 22 -18 18 -41 -16 -95 -42 -67 -50 -88 -59 -175 -7 -69 -6 -78 17 -113
33 -53 66 -63 111 -37 43 26 55 14 48 -48 -4 -29 1 -58 14 -92 11 -28 20 -59
20 -70 0 -28 35 -43 89 -36 25 3 84 9 131 12 73 5 88 4 100 -11 20 -25 1 -49
-43 -53 -23 -2 -47 -14 -67 -32 -30 -28 -30 -29 -30 -129 0 -96 -1 -101 -21
-101 -27 0 -96 39 -104 58 -7 20 14 34 42 29 17 -3 28 4 42 29 32 53 32 104 0
104 -15 0 -25 -11 -36 -40 -13 -32 -21 -40 -41 -40 -29 0 -51 -25 -52 -57 0
-31 -18 -29 -32 2 -9 19 -9 28 0 37 7 7 12 23 12 36 0 13 5 32 10 42 8 15 6
21 -11 31 -27 14 -42 -4 -35 -41 5 -30 -9 -60 -29 -60 -9 0 -15 14 -18 38 l-4
37 -1 -42 c-2 -36 1 -43 16 -43 31 0 55 34 47 68 -3 17 -2 33 4 36 17 11 20
-7 9 -54 -14 -63 -13 -101 3 -111 26 -16 39 -9 39 19 0 34 16 52 48 52 18 0
27 9 39 40 15 38 42 54 44 28 5 -54 -23 -98 -61 -98 -35 0 -58 -25 -43 -48 15
-25 84 -62 116 -62 l27 0 0 103 c0 56 4 107 8 113 15 21 57 44 83 44 17 0 39
11 57 30 27 26 34 29 57 20 47 -18 74 -13 81 15 8 31 -7 50 -58 76 -31 16 -38
25 -38 50 0 38 -26 89 -45 89 -20 0 -19 4 11 52 42 65 56 106 45 126 -5 10 -6
24 -1 32 7 11 11 10 25 -3 29 -30 65 -14 65 29 0 12 9 33 20 47 26 32 26 67 0
74 -19 5 -19 6 3 37 35 51 90 106 127 128 52 32 80 59 80 80 0 10 7 30 16 43
18 28 13 77 -11 112 -15 21 -17 21 -56 8 -46 -16 -44 -17 -137 43 -46 30 -52
38 -58 78 -14 94 16 177 72 200 19 8 37 21 41 29 4 11 19 15 53 14 60 -3 70 4
70 46 0 25 5 35 19 40 29 9 34 37 16 99 -9 30 -15 75 -13 98 3 41 5 44 55 68
40 19 53 30 53 47 0 17 -7 22 -31 25 -38 4 -62 33 -39 48 28 18 88 12 100 -10
12 -23 48 -26 74 -7 17 13 18 19 6 65 -6 29 -16 55 -21 58 -5 3 -25 -4 -45
-16 -32 -21 -36 -21 -53 -6 -10 9 -24 16 -32 16 -27 1 -49 27 -49 60 0 18 -7
53 -16 79 -19 55 -8 101 26 101 29 0 91 -27 117 -52 16 -15 29 -19 50 -14 15
4 54 11 86 16 60 8 104 30 114 57 3 9 -2 30 -11 47 -23 43 -13 133 17 158 29
22 29 84 0 106 -20 16 -27 32 -24 60 2 18 25 15 55 -9 19 -15 35 -20 55 -16
15 3 33 1 39 -5 8 -8 18 -9 34 -1 20 9 64 21 198 52 19 5 55 18 80 30 25 11
54 21 65 21 11 0 34 9 50 20 17 11 44 20 61 20 35 0 52 16 83 78 12 24 37 60
55 80 47 53 76 114 76 163 0 38 -5 48 -45 85 -25 23 -45 48 -45 56 0 7 9 31
20 53 27 54 16 69 -103 130 -91 47 -97 52 -102 85 -3 19 -10 58 -15 85 -6 31
-6 62 -1 80 8 26 9 27 10 7 3 -66 24 -112 65 -143 36 -27 46 -29 87 -24 40 6
50 3 68 -16 11 -13 21 -26 21 -31 0 -4 9 -17 20 -28 21 -21 94 -27 135 -11 11
5 48 0 90 -10 98 -26 121 -24 157 11 16 17 35 30 41 30 21 1 54 34 72 72 9 20
28 44 41 53 30 19 30 43 3 90 -21 36 -21 37 -3 71 10 19 26 34 36 34 11 0 18
7 18 19 0 24 67 111 85 111 37 0 5 -62 -65 -128 -45 -43 -60 -64 -60 -85 0
-39 37 -52 88 -32 68 28 112 123 112 246 l0 77 70 75 c39 41 70 80 70 85 0 6
10 18 23 27 18 13 22 24 21 65 l-2 49 32 -6 c40 -8 38 -5 30 -49 -5 -26 -21
-51 -50 -80 -28 -27 -44 -51 -44 -66 0 -27 -42 -72 -77 -83 -26 -7 -28 -14
-10 -39 12 -16 15 -15 51 9 72 49 175 149 190 185 8 19 26 67 41 105 15 39 35
84 46 101 10 17 19 38 19 45 1 8 22 38 49 66 41 46 55 54 101 63 29 5 54 10
56 10 2 0 15 17 29 39 26 38 26 39 9 82 -9 24 -19 62 -21 85 -4 36 -2 42 18
47 22 6 22 8 16 116 -6 106 5 211 25 237 4 6 19 9 32 7 18 -4 31 2 48 22 60
69 177 178 210 195 21 11 49 20 63 20 14 0 43 9 65 20 24 12 59 20 90 20 28 0
50 5 50 10 0 16 51 60 69 60 9 0 34 14 55 30 22 17 47 30 57 30 9 0 33 7 54
16 34 14 39 14 55 -1 14 -13 25 -14 52 -7 18 5 78 6 133 2 79 -6 105 -5 123 7
12 7 20 18 17 23 -8 13 32 47 63 53 15 3 40 15 55 27 24 19 27 28 27 79 0 49
5 65 30 99 17 23 30 51 30 62 0 11 5 20 11 20 6 0 31 12 54 28 34 21 44 34 49
64 3 20 14 43 24 50 10 7 27 28 37 46 11 17 28 35 38 38 25 8 43 55 51 134 9
88 23 127 63 179 20 27 33 55 33 74 0 36 19 107 35 127 19 25 73 182 79 230 5
48 -6 173 -18 202 -5 12 0 25 19 44 14 14 24 28 22 30 -3 3 -17 -10 -31 -27
-20 -23 -25 -38 -21 -53 13 -38 24 -160 18 -201 -6 -47 -47 -166 -75 -214 -20
-35 -49 -146 -41 -155 3 -2 -14 -31 -37 -63 -36 -52 -43 -70 -51 -139 -14
-116 -16 -120 -57 -163 -62 -65 -102 -122 -102 -145 0 -20 -18 -35 -87 -74
-13 -7 -23 -21 -23 -31 0 -9 -13 -35 -30 -57 -24 -32 -29 -49 -30 -96 0 -50
-3 -59 -31 -82 -17 -14 -39 -26 -48 -26 -26 0 -73 -40 -67 -56 9 -24 -27 -31
-129 -24 -55 4 -115 3 -133 -2 -27 -7 -38 -6 -52 7 -16 15 -21 15 -55 1 -21
-9 -47 -16 -59 -16 -12 0 -37 -13 -56 -28 -19 -16 -47 -32 -62 -36 -15 -3 -38
-20 -50 -36 -18 -25 -29 -30 -65 -30 -24 0 -61 -9 -83 -20 -22 -11 -51 -20
-65 -20 -43 0 -87 -25 -149 -84 -32 -31 -62 -56 -67 -56 -4 0 -20 -20 -35 -45
-25 -43 -60 -65 -82 -51 -17 10 -39 -28 -50 -87 -7 -36 -9 -99 -5 -163 6 -102
5 -105 -15 -111 -29 -7 -29 -58 -3 -129 19 -50 19 -51 0 -83 -20 -34 -43 -46
-101 -56 -68 -11 -148 -128 -219 -320 -27 -71 -38 -88 -106 -153 -84 -81 -129
-110 -146 -93 -7 7 -2 13 17 21 36 13 76 58 76 85 0 12 8 29 18 38 9 9 27 25
39 36 24 21 48 94 39 117 -3 8 -15 14 -26 14 -12 0 -31 5 -42 11 -20 11 -21
10 -14 -39 6 -44 3 -53 -19 -80 -14 -16 -25 -35 -25 -40 0 -6 -8 -17 -18 -24
-11 -7 -42 -40 -70 -72 l-52 -59 0 -76 c0 -85 -25 -169 -62 -208 -26 -28 -76
-44 -100 -31 -34 17 -20 50 46 113 50 46 66 69 71 98 7 35 6 37 -18 37 -17 0
-32 -12 -52 -40 -16 -22 -33 -39 -39 -37 -6 2 -35 35 -65 73 -38 49 -79 86
-143 130 -61 41 -97 74 -114 102 -21 36 -28 41 -52 36 -23 -5 -36 4 -90 58
-35 34 -68 71 -73 80 -12 22 -40 23 -80 2 -17 -8 -39 -14 -49 -12 -16 3 -10
15 38 79 31 41 84 106 117 144 33 37 74 89 90 114 25 38 41 50 94 71 36 15 67
34 70 43 8 23 110 87 139 87 14 0 38 14 57 33 28 28 33 41 40 104 4 46 3 78
-4 91 -6 12 -11 31 -11 44 0 27 -27 62 -53 71 -10 4 -30 1 -45 -7 l-27 -14 3
102 c1 55 7 117 13 136 6 20 9 49 7 65 -3 29 -6 30 -60 36 -78 9 -105 28 -113
81 -4 24 -5 48 -4 53 2 6 -3 27 -10 48 -7 21 -11 48 -8 59 9 34 -10 56 -74 88
-56 29 -64 30 -137 24 -42 -4 -84 -10 -93 -15 -9 -4 -31 -4 -50 1 l-34 10 -1
163 c-1 109 -5 170 -13 186 -11 20 -10 26 10 47 l23 24 -29 30 c-28 29 -28 30
-13 67 9 21 26 70 38 108 13 39 31 87 42 108 l19 38 -30 38 c-35 44 -117 121
-129 121 -9 0 -32 59 -32 84 0 9 9 35 21 58 11 22 17 44 12 49 -4 4 -82 13
-173 19 -91 6 -166 13 -168 14 -1 2 -11 33 -21 69 -11 36 -22 74 -26 86 -4 15
-2 21 9 21 32 0 51 77 26 104 -5 5 -6 30 -3 57 5 43 3 50 -22 73 -15 14 -35
26 -44 26 -9 0 -38 11 -66 25 -41 20 -59 23 -103 18 -48 -5 -56 -3 -92 26 -21
17 -48 31 -60 31 -35 0 -91 29 -124 64 -33 34 -55 42 -161 54 -66 8 -81 15
-108 49 -11 13 -36 32 -56 43 -21 10 -54 37 -74 59 -34 37 -36 43 -30 89 4 37
0 60 -17 101 -22 50 -22 54 -7 87 18 36 21 71 11 98 -7 19 -50 21 -144 5 -58
-9 -70 -15 -115 -58 -27 -27 -62 -51 -77 -55 -15 -3 -43 -20 -62 -36 -19 -17
-48 -35 -64 -41 -17 -6 -41 -26 -54 -45 -21 -32 -26 -35 -58 -29 -79 15 -233
4 -278 -19 -36 -19 -65 -20 -94 -5 -18 10 -19 17 -13 71 4 33 4 93 0 134 -9
104 -24 110 -114 50 -38 -24 -71 -51 -74 -59 -3 -9 -26 -18 -57 -22 -51 -7
-51 -7 -93 38 -50 54 -84 69 -136 61 -37 -6 -38 -6 -33 24 5 34 -24 96 -62
131 -14 14 -31 43 -37 65 -6 23 -22 51 -35 64 -29 28 -29 24 -4 119 26 95 35
111 65 119 13 3 31 14 41 25 14 16 15 25 5 63 -17 70 -26 49 90 234 42 67 104
102 179 102 41 0 58 6 88 29 56 43 105 58 137 41 21 -11 30 -12 45 -2 11 7 29
12 39 12 11 0 22 4 25 8 13 21 57 301 65 417 6 72 13 141 16 155 5 20 -4 38
-40 86 -25 34 -54 64 -65 67 -17 4 -20 14 -20 69 0 79 8 108 29 108 9 0 25 7
35 15 17 13 22 13 37 -1 21 -19 59 -3 59 25 0 28 -77 93 -101 86 -14 -5 -19
-2 -19 12 0 10 -3 35 -7 57 l-6 38 145 -3 c149 -4 178 2 178 37 0 8 10 13 23
13 12 -1 35 3 50 10 16 6 41 11 57 11 25 0 33 -7 54 -47 26 -49 98 -133 114
-133 6 0 12 -8 15 -19 5 -19 105 -71 139 -71 25 0 68 29 68 46 0 16 16 19 25
4 11 -19 23 -10 53 38 18 30 51 63 86 86 31 20 56 41 56 46 0 17 51 60 70 60
11 0 35 8 55 17 28 13 34 21 29 37 -9 29 -7 28 -61 33 -93 8 -94 9 -93 56 2
50 -14 137 -30 166 -6 12 -29 33 -50 46 -22 14 -40 32 -40 40 0 21 102 16 165
-8 28 -10 59 -21 70 -24 11 -3 25 -9 30 -13 6 -4 24 -11 41 -14 26 -6 36 -2
60 22 19 20 43 32 69 35 89 12 152 30 187 53 21 13 45 24 53 24 22 0 118 50
132 69 6 9 10 25 7 37 -7 30 65 62 101 46 32 -15 35 -66 5 -84 -28 -18 -25
-43 12 -94 33 -46 38 -86 18 -138 -20 -52 -12 -181 16 -267 24 -74 29 -82 63
-96 20 -8 54 -23 77 -34 54 -25 85 -24 144 6 35 18 65 25 106 25 48 0 61 4 91
30 23 20 46 31 71 32 58 3 106 -2 117 -13 14 -14 63 -11 90 7 31 20 33 59 4
74 -35 19 -16 34 47 36 32 1 74 5 91 9 26 6 34 4 39 -9 3 -9 13 -16 22 -16 9
0 25 -8 36 -18 26 -23 92 -43 114 -35 10 3 25 13 34 20 17 15 80 14 154 -2 28
-6 35 -2 71 39 50 56 209 294 214 320 4 16 6 16 29 -7 70 -72 70 -72 70 -120
0 -28 8 -64 20 -86 11 -22 19 -52 19 -67 1 -105 33 -174 81 -174 35 0 85 -40
98 -79 10 -28 7 -32 -84 -118 -51 -48 -123 -115 -159 -147 -48 -44 -65 -66
-65 -85 0 -30 -17 -57 -74 -121 -40 -44 -40 -45 -17 -48 13 -2 53 5 88 15 65
18 93 44 93 88 0 26 28 16 56 -21 27 -34 28 -35 36 -14 5 14 3 29 -7 44 -20
29 -7 68 30 92 21 14 40 16 101 11 61 -6 87 -3 134 13 74 25 97 25 138 0 37
-23 36 -20 17 -56 -8 -16 -15 -36 -15 -44 0 -25 -59 -119 -85 -136 -15 -10
-36 -14 -52 -11 -18 3 -38 -3 -63 -19 -30 -20 -41 -22 -69 -14 -23 6 -56 6
-102 -2 -61 -11 -75 -10 -120 6 -63 23 -99 12 -99 -30 0 -25 1 -26 24 -11 21
14 29 14 91 -5 56 -17 74 -19 99 -10 22 8 51 8 99 2 45 -7 74 -7 87 0 15 8 21
6 30 -7 9 -16 13 -14 43 20 17 20 37 37 43 37 6 0 17 7 24 15 7 8 23 15 36 15
14 0 25 8 29 21 4 12 18 37 31 58 62 96 67 97 159 51 33 -16 65 -30 70 -30 6
0 50 -20 100 -45 57 -29 101 -45 120 -43 39 2 92 -29 100 -59 5 -19 9 -22 25
-13 31 17 50 12 86 -24 l33 -33 -5 -99 c-3 -67 -9 -103 -19 -114 -21 -23 -19
-30 8 -30 30 0 53 25 62 68 8 40 29 50 55 27 28 -25 67 -12 87 30 l16 34 96
-50 c53 -28 103 -56 111 -63 28 -24 52 -27 71 -10 17 15 22 14 73 -15 42 -23
62 -29 86 -25 24 5 36 2 54 -15 23 -21 26 -22 54 -7 44 23 82 20 124 -9 20
-14 45 -25 55 -25 25 -1 90 -52 124 -98 16 -22 43 -45 60 -52 20 -9 47 -37 77
-84 42 -62 58 -76 145 -129 75 -45 101 -67 109 -89 9 -25 14 -28 37 -24 14 3
53 -3 86 -13 73 -23 99 -55 90 -113 -4 -27 1 -51 16 -84 17 -36 22 -64 22
-132 0 -180 -3 -213 -22 -250 -10 -20 -21 -58 -24 -85 -12 -87 -66 -165 -121
-174 -32 -5 -35 -8 -30 -30 9 -33 -43 -107 -109 -155 -28 -21 -46 -38 -41 -38
6 0 32 16 57 36 58 45 110 121 104 152 -3 18 0 22 21 22 15 0 37 14 59 38 47
50 59 75 76 158 8 39 19 80 26 91 11 22 14 76 14 239 -1 63 -6 100 -17 122 -9
17 -16 51 -16 76 0 25 -7 61 -16 80 -15 30 -26 37 -84 56 -37 12 -77 20 -89
18 -15 -2 -25 5 -34 22 -13 26 -80 74 -159 116 -26 13 -54 34 -61 47 -63 102
-82 126 -103 131 -12 3 -42 28 -64 55 -46 55 -107 101 -133 101 -9 0 -33 11
-53 25 -42 29 -82 32 -126 9 -29 -15 -31 -14 -50 6 -16 17 -28 21 -54 17 -25
-4 -47 2 -88 24 -51 28 -57 29 -77 15 -22 -15 -43 -12 -69 10 -9 7 -40 26 -70
42 -30 16 -75 40 -99 53 -24 13 -45 20 -47 14 -2 -5 -13 -25 -24 -42 -22 -37
-49 -42 -67 -13 -21 32 -54 12 -70 -44 -8 -26 -21 -50 -29 -53 -20 -8 -29 4
-15 20 6 8 13 59 16 113 3 84 1 102 -13 120 -32 38 -69 56 -102 49 -23 -5 -30
-3 -30 9 0 25 -69 66 -101 59 -20 -4 -53 7 -121 40 -51 25 -104 49 -118 53
-14 3 -32 12 -40 18 -30 24 -95 43 -116 34 -18 -8 -78 -95 -96 -140 -4 -10
-14 -18 -21 -18 -23 0 -107 -50 -107 -64 0 -7 -5 -17 -12 -24 -9 -9 -14 -8
-23 5 -9 12 -16 13 -33 4 -15 -8 -41 -8 -93 -1 -51 7 -81 7 -103 -1 -26 -9
-42 -7 -94 10 -47 16 -67 19 -82 11 -24 -13 -27 2 -4 21 13 10 25 10 69 -6 42
-14 66 -16 107 -10 71 10 98 11 129 2 20 -5 36 -1 61 17 25 16 44 22 67 18 28
-4 38 2 76 42 32 33 49 62 61 103 9 32 23 65 31 74 13 15 11 19 -16 39 -46 32
-87 35 -158 11 -51 -17 -76 -20 -138 -14 -88 7 -114 -3 -141 -52 -17 -32 -17
-34 0 -60 26 -39 9 -45 -22 -8 -22 26 -30 30 -44 22 -10 -5 -18 -18 -18 -28 0
-31 -32 -58 -87 -76 -84 -27 -95 -18 -47 35 48 52 64 80 64 110 0 24 74 102
137 144 23 15 73 62 112 103 l70 76 -16 38 c-16 40 -68 81 -105 83 -43 2 -68
63 -69 160 0 15 -8 45 -19 67 -12 23 -20 58 -20 90 0 48 -3 54 -49 100 -27 27
-54 49 -59 49 -5 0 -12 9 -15 21 -4 15 -12 20 -30 17 -26 -3 -37 5 -169 135
-53 52 -75 67 -97 67 -29 0 -61 22 -61 42 0 10 -7 9 -68 -8 -18 -5 -21 -3 -16
9 4 11 -1 17 -18 21 -82 15 -175 38 -187 45 -8 5 -27 3 -47 -5 -33 -14 -111
-17 -239 -11 -85 5 -115 -1 -115 -20 0 -8 -4 -11 -10 -8 -5 3 -10 13 -10 21 0
19 -107 127 -147 148 -48 24 -70 20 -88 -15 -21 -39 -31 -31 -16 12 6 18 11
51 11 74 0 37 -6 49 -50 94 -37 38 -50 59 -50 81 0 38 -32 60 -86 60 -25 0
-47 6 -54 15 -7 9 -15 13 -18 10 -3 -3 -14 2 -24 11 -15 14 -31 16 -98 10 -67
-5 -80 -4 -80 8 0 9 9 20 20 26 22 12 26 49 10 96 -8 23 -24 36 -75 58 -38 16
-72 25 -84 21 -10 -3 -47 3 -80 15 -33 11 -67 20 -75 20 -7 0 -31 19 -52 43
-36 39 -37 42 -17 45 11 2 36 -3 55 -11 40 -17 67 -7 94 32 16 22 16 23 -5 16
-11 -3 -37 -1 -56 6 -28 10 -51 10 -122 0 -48 -8 -119 -13 -158 -12 -50 2 -76
-2 -90 -13 -11 -9 -15 -16 -8 -16 6 0 15 5 18 11 4 6 36 9 78 8 40 -1 111 4
159 11 72 11 94 11 127 0 34 -11 39 -16 29 -27 -8 -10 -22 -13 -42 -8 -66 13
-106 17 -106 8 0 -18 48 -79 71 -90 52 -24 161 -53 183 -47 14 3 38 -3 62 -15
21 -12 44 -21 51 -21 16 0 43 -52 43 -83 0 -13 -9 -32 -19 -41 -10 -10 -21
-26 -24 -37 -5 -19 -1 -20 91 -17 l96 3 10 -27 c8 -24 6 -32 -18 -57 -16 -16
-40 -32 -55 -36 -46 -11 -71 -44 -71 -92 0 -30 5 -45 15 -49 9 -4 20 -15 26
-26 18 -33 -6 -48 -75 -48 -78 -1 -90 -16 -100 -121 l-7 -76 38 -28 c45 -35
57 -49 83 -96 15 -29 17 -40 7 -52 -13 -18 -105 -67 -125 -67 -7 0 -33 -11
-57 -25 -40 -24 -93 -38 -190 -52 -23 -3 -46 -14 -53 -24 -31 -44 -50 -43
-177 10 -53 22 -96 31 -148 31 -54 0 -57 -1 -57 -24 0 -17 11 -31 38 -47 20
-13 42 -30 49 -39 16 -20 34 -114 33 -169 -1 -51 9 -61 65 -61 59 0 85 -10 85
-30 0 -14 -14 -23 -55 -34 -40 -12 -62 -26 -82 -51 -16 -19 -52 -52 -81 -72
-31 -21 -61 -52 -73 -75 -21 -40 -25 -43 -49 -29 -10 7 -19 2 -31 -19 -10 -15
-27 -31 -39 -35 -30 -9 -150 44 -150 67 0 9 -8 19 -19 23 -32 10 -141 161
-141 196 0 11 -16 45 -35 74 l-36 53 31 48 c34 54 36 68 15 104 -62 107 -75
145 -75 222 0 71 2 80 28 110 24 27 29 43 30 90 2 75 -15 86 -89 62 -44 -15
-61 -15 -114 -6 -53 10 -69 10 -107 -4 l-44 -17 -59 56 c-45 43 -75 62 -133
83 -102 37 -221 48 -284 26 l-48 -16 -35 40 c-32 36 -35 43 -30 85 6 48 -7 98
-35 139 -10 14 -26 51 -36 82 -21 63 -40 73 -76 41 -30 -27 -33 -6 -3 33 22
29 27 46 26 87 -1 59 32 140 79 193 16 19 30 38 30 43 0 4 18 16 40 26 25 11
43 27 46 40 3 14 21 30 44 40 43 19 81 15 40 -4 -14 -7 -37 -29 -51 -49 l-26
-36 35 -64 c39 -71 39 -74 -23 -150 l-34 -43 34 -62 c42 -76 61 -86 114 -62
70 31 80 120 20 176 -26 24 -30 35 -32 90 -1 44 2 64 11 67 7 2 25 14 40 27
15 12 61 30 105 41 66 15 81 23 103 52 l26 34 -36 30 c-29 24 -34 33 -25 44
23 28 46 15 75 -42 32 -64 53 -78 111 -75 56 3 113 -28 170 -89 54 -59 109
-75 218 -66 122 11 197 6 240 -14 84 -40 277 -49 315 -15 9 8 35 16 58 17 23
2 42 5 42 8 0 9 -42 32 -48 26 -3 -3 0 -6 6 -6 7 0 12 -4 12 -10 0 -5 -12 -10
-27 -10 -14 0 -35 -8 -46 -17 -37 -34 -282 -14 -331 26 -13 11 -123 14 -221 5
-108 -9 -166 7 -210 62 -48 59 -121 96 -182 92 -51 -2 -62 8 -109 90 -24 44
-53 51 -79 21 -20 -21 -20 -21 7 -44 15 -13 32 -25 40 -27 9 -3 5 -13 -12 -34
-20 -24 -41 -34 -100 -48 -42 -11 -87 -29 -103 -42 -16 -13 -34 -24 -42 -24
-17 0 -25 -48 -18 -108 4 -39 10 -52 29 -61 28 -13 50 -84 37 -121 -4 -14 -25
-34 -46 -45 -46 -25 -60 -17 -103 55 l-31 53 18 32 c10 17 30 42 44 55 33 31
32 41 -10 117 l-34 63 79 78 c44 44 80 86 80 94 0 20 -38 68 -53 68 -7 0 -30
-9 -53 -19z m76 -11 c11 -11 20 -27 20 -35 0 -24 -46 -65 -73 -65 -35 0 -87
-29 -99 -55 -6 -13 -23 -29 -39 -35 -67 -28 -159 -185 -159 -272 0 -42 -7 -62
-30 -97 -17 -24 -30 -48 -30 -53 0 -16 37 -8 55 12 28 30 39 24 54 -27 8 -27
27 -68 42 -92 25 -38 29 -54 29 -115 0 -66 2 -73 30 -99 17 -16 30 -33 30 -38
0 -13 47 -11 73 3 13 7 55 11 100 9 108 -3 218 -43 292 -106 30 -26 55 -51 55
-56 0 -14 44 -11 85 7 29 12 44 13 68 5 42 -15 108 -14 149 3 47 20 61 8 62
-51 1 -36 -4 -55 -21 -76 -31 -39 -36 -65 -31 -157 4 -69 9 -86 43 -142 47
-78 48 -106 6 -158 l-32 -40 29 -38 c78 -100 74 -107 -70 -128 -28 -5 -38 -11
-38 -24 0 -11 -5 -22 -12 -26 -6 -4 -79 -6 -161 -5 l-150 3 7 -48 c3 -26 6
-55 6 -65 0 -15 7 -19 31 -19 31 0 89 -45 89 -70 0 -17 -26 -23 -49 -10 -17 8
-26 8 -43 -5 -13 -8 -30 -15 -39 -15 -22 0 -29 -29 -29 -118 0 -67 2 -73 24
-81 13 -5 40 -32 60 -60 l37 -50 -15 -183 c-8 -101 -17 -190 -19 -198 -3 -8
-10 -49 -17 -90 -17 -108 -17 -107 -45 -80 -14 13 -25 34 -25 46 0 34 -15 37
-60 14 -22 -11 -40 -18 -40 -15 0 4 34 49 75 100 41 52 75 96 75 99 0 2 -11 7
-25 10 -14 4 -25 13 -25 21 0 22 -33 35 -104 42 -57 5 -65 4 -75 -14 -16 -31
-40 -35 -68 -13 -36 28 -74 25 -144 -11 -34 -17 -67 -28 -75 -25 -8 3 -26 0
-40 -6 -22 -10 -27 -9 -35 5 -6 9 -15 17 -22 17 -8 0 -13 21 -14 58 -2 42 -7
60 -20 67 -10 6 -34 27 -54 48 -20 20 -41 37 -47 37 -31 0 -99 41 -115 69 -33
58 -133 111 -207 111 -32 0 -55 6 -73 20 -14 11 -30 20 -36 20 -7 0 -30 9 -52
20 -41 21 -59 20 -59 -5 0 -19 -35 -28 -59 -16 -11 6 -28 11 -39 11 -11 0 -43
18 -71 41 -34 27 -57 39 -68 35 -35 -14 -117 17 -168 63 -27 25 -53 51 -58 57
-12 20 3 44 27 44 12 0 30 6 38 13 15 11 15 16 3 52 -8 22 -15 52 -15 66 0 25
4 27 57 34 91 11 99 17 113 77 13 55 45 108 88 143 29 25 26 59 -6 63 -12 2
-22 11 -23 20 -5 120 0 302 10 321 10 18 10 30 -2 59 -8 21 -12 56 -9 79 3 37
1 44 -19 53 -29 14 -61 80 -57 117 2 22 8 27 24 25 17 -2 26 7 43 47 11 27 21
70 21 95 0 25 4 46 9 46 16 0 71 -77 71 -99 0 -15 6 -21 21 -21 21 0 22 3 15
79 l-6 80 42 25 c27 16 53 44 73 78 28 47 35 53 68 56 l37 3 0 50 c0 38 9 68
40 129 51 102 87 124 130 78 l21 -23 32 35 c18 19 40 46 50 60 15 22 26 25
105 30 82 5 92 7 125 37 20 18 58 40 84 49 35 12 58 30 84 64 31 39 105 90
132 90 4 0 16 -9 27 -20z m2225 -660 c3 -5 25 -10 47 -10 48 0 78 -22 78 -56
0 -14 20 -46 50 -79 54 -60 59 -80 39 -160 -6 -23 -9 -51 -7 -61 3 -15 10 -10
32 24 16 23 35 42 43 42 29 0 90 -40 114 -74 13 -19 34 -40 45 -47 27 -14 35
-53 27 -129 -6 -63 -23 -84 -73 -92 -20 -2 -29 -15 -47 -68 -15 -43 -21 -77
-18 -100 9 -55 55 -138 92 -166 19 -14 45 -49 59 -77 13 -29 37 -73 53 -99 29
-46 29 -46 8 -52 -12 -3 -32 -6 -44 -6 -12 0 -35 -11 -51 -25 -23 -19 -41 -25
-77 -25 -33 0 -66 -9 -107 -30 -32 -16 -69 -30 -82 -30 -13 0 -57 15 -98 34
-59 27 -77 40 -85 63 -5 15 -16 44 -23 63 -21 55 -24 180 -6 251 18 70 15 86
-25 142 -34 47 -36 63 -9 77 28 15 28 85 1 100 -28 14 -55 12 -97 -7 -32 -16
-38 -16 -42 -3 -2 8 -29 39 -60 67 l-55 53 13 72 c7 40 18 79 23 86 6 7 33 12
67 12 41 0 64 5 80 18 l23 18 -32 36 c-53 60 -39 125 31 142 40 9 88 54 88 82
0 24 14 32 25 14z m1047 -480 c20 0 39 -4 42 -8 8 -13 -49 -97 -79 -116 -24
-16 -26 -22 -22 -59 17 -130 30 -170 61 -197 18 -14 22 -65 6 -75 -5 -3 -10
-14 -10 -24 0 -11 -14 -49 -31 -85 -36 -78 -69 -96 -100 -55 -17 23 -19 23
-51 9 -20 -8 -58 -13 -95 -12 -58 2 -63 0 -63 -19 0 -11 10 -29 22 -38 44 -36
-15 -85 -76 -63 -18 7 -39 12 -48 12 -21 0 -66 67 -113 167 -13 29 -36 60 -50
69 -46 30 -87 103 -92 164 -6 77 22 154 59 158 38 5 69 43 75 94 5 43 21 88
36 99 4 3 40 4 80 2 125 -7 216 -3 248 10 28 11 40 10 98 -10 36 -12 83 -23
103 -23z m144 -45 c13 -15 34 -25 50 -25 19 0 46 -19 97 -67 39 -38 85 -82
104 -99 18 -18 33 -39 33 -48 0 -9 5 -16 10 -16 6 0 10 7 10 16 0 29 33 10 42
-24 8 -28 5 -38 -20 -70 -15 -20 -43 -62 -62 -92 -49 -79 -127 -181 -151 -198
-17 -12 -25 -12 -52 -1 -46 19 -110 15 -149 -9 -32 -20 -36 -20 -81 -5 -45 15
-59 34 -36 49 18 11 89 183 89 216 0 9 -11 34 -25 54 -14 20 -25 48 -25 61 0
13 -7 40 -15 60 -22 52 -19 81 13 111 15 15 38 41 49 58 18 25 44 40 92 53 2
1 14 -10 27 -24z m-4711 -1075 c31 -6 63 -9 71 -6 8 3 30 -9 52 -28 46 -42 66
-52 119 -60 47 -7 73 0 73 20 0 8 4 14 9 14 13 0 81 -28 122 -50 20 -11 51
-20 68 -20 21 0 31 -5 31 -15 0 -8 -3 -15 -7 -15 -5 0 -14 -4 -22 -9 -12 -8
-9 -15 12 -41 31 -36 33 -48 12 -56 -9 -4 -15 -19 -15 -38 -1 -17 -8 -49 -16
-71 -8 -22 -18 -49 -21 -60 -10 -33 -71 -112 -114 -146 -22 -17 -92 -54 -157
-81 -124 -53 -162 -84 -162 -130 0 -29 -22 -39 -36 -17 -8 14 -53 -86 -54
-119 0 -25 -28 -85 -68 -144 -21 -32 -28 -37 -51 -32 -14 4 -35 15 -47 25 -11
11 -27 19 -35 19 -8 0 -25 7 -38 16 -36 25 -91 4 -138 -51 -32 -39 -43 -45
-74 -45 -51 0 -73 23 -64 69 10 54 31 86 80 128 25 20 45 42 45 48 0 15 105
122 127 129 22 7 61 83 55 109 -4 21 -9 21 -105 -3 -70 -18 -82 -18 -106 -5
l-28 14 1 128 1 129 33 39 c20 25 32 50 32 70 0 19 14 49 36 80 30 42 35 56
30 86 -13 82 48 153 140 165 30 3 61 12 67 19 10 10 20 6 49 -20 25 -23 53
-37 93 -45z m2481 -1876 c5 -18 0 -41 -14 -70 l-21 -43 25 -56 c22 -46 25 -64
19 -106 -7 -49 -7 -49 42 -94 26 -25 51 -45 55 -45 4 0 33 -22 63 -50 50 -45
60 -50 103 -50 59 0 139 -27 170 -58 29 -29 98 -61 131 -62 13 0 41 -16 62
-35 43 -38 47 -40 101 -25 32 9 44 7 87 -15 28 -14 57 -25 64 -25 8 0 26 -9
41 -21 23 -18 27 -28 26 -73 0 -28 1 -69 2 -91 3 -35 0 -40 -19 -43 -29 -4
-29 -6 3 -118 30 -106 27 -104 145 -104 42 0 110 -3 151 -6 l76 -7 -24 -52
c-23 -50 -23 -52 -7 -96 10 -24 21 -46 26 -47 4 -2 30 -23 58 -47 62 -53 101
-105 91 -119 -10 -13 -54 -123 -77 -191 -30 -91 -30 -97 -2 -119 25 -20 25
-22 8 -44 l-17 -23 -23 49 c-22 46 -27 51 -109 86 -80 33 -95 36 -182 36 -58
0 -115 -6 -145 -16 -27 -9 -90 -21 -140 -27 l-90 -12 -47 -85 c-44 -78 -48
-91 -48 -155 -1 -76 -40 -257 -58 -263 -5 -1 -13 2 -17 7 -3 7 -44 11 -96 11
l-90 0 -24 -52 c-14 -29 -25 -63 -25 -76 0 -37 -38 -10 -42 30 -5 49 -41 66
-110 51 -48 -10 -58 -9 -107 13 -67 30 -82 30 -109 -1 -12 -14 -26 -25 -30
-25 -5 0 -14 -11 -20 -26 -7 -14 -26 -30 -42 -35 -21 -8 -36 -24 -49 -55 -16
-35 -25 -44 -44 -44 -57 0 -128 50 -91 64 22 8 17 51 -16 126 -16 38 -30 84
-30 103 0 23 -11 51 -33 83 -19 27 -39 69 -45 94 -12 50 -3 151 16 187 18 32
16 37 -33 72 -56 40 -72 64 -90 132 -8 28 -25 64 -38 78 -35 37 -98 171 -91
193 3 10 32 32 65 49 l60 30 -7 37 c-9 48 -12 52 -30 45 -8 -3 -29 1 -47 10
-18 8 -50 23 -72 33 l-40 18 30 6 c20 4 29 11 26 21 -2 8 -6 27 -9 43 -4 26
-3 27 17 17 11 -7 21 -16 21 -21 0 -6 4 -10 10 -10 18 0 37 55 44 130 5 61 11
79 32 101 25 26 25 27 14 107 -11 75 -11 85 14 172 l27 92 -81 125 c-59 90
-78 128 -69 134 29 17 98 20 128 5 44 -23 57 -20 92 23 17 22 42 42 55 45 14
4 41 22 62 41 21 18 50 37 65 40 15 4 50 29 78 56 51 49 68 56 159 62 25 2 53
4 62 5 11 1 20 -7 24 -24z m1230 -1811 c82 -35 85 -38 111 -92 34 -74 45 -140
45 -292 l1 -127 40 -12 c27 -8 47 -8 66 -2 14 6 55 13 90 15 57 5 71 2 122
-24 67 -33 70 -37 74 -92 2 -23 6 -58 10 -77 3 -19 8 -54 11 -77 6 -52 36 -74
113 -82 52 -6 56 -8 59 -33 2 -15 -3 -37 -10 -50 -11 -20 -24 -150 -31 -318
-2 -66 -10 -80 -63 -113 -23 -14 -52 -43 -65 -64 -34 -55 -48 -64 -94 -59 -24
3 -46 0 -55 -8 -21 -18 -185 -2 -265 25 -39 14 -71 18 -93 14 l-34 -6 7 33 c4
18 22 67 41 108 39 85 38 82 82 144 17 26 32 58 32 71 0 35 -67 81 -138 95
-77 16 -135 43 -191 91 -26 21 -55 39 -64 39 -9 0 -22 9 -29 20 -7 11 -21 20
-32 20 -10 0 -34 14 -53 30 -18 17 -45 30 -58 30 -43 0 -98 45 -264 217 l-50
52 24 100 c14 57 25 132 26 173 1 68 4 78 47 153 l47 80 68 7 c37 5 100 17
140 27 44 12 106 20 160 20 80 1 96 -2 173 -36z m-689 -540 c30 -21 64 -53 76
-73 28 -45 141 -150 187 -172 19 -9 47 -19 62 -22 14 -4 40 -17 56 -31 17 -14
37 -25 46 -25 8 0 20 -9 26 -20 6 -11 19 -20 28 -20 10 0 39 -18 65 -40 61
-50 139 -86 200 -94 54 -6 126 -51 127 -77 0 -22 -45 -101 -70 -124 -11 -10
-20 -24 -20 -32 0 -8 -13 -40 -30 -71 -16 -31 -32 -76 -36 -99 l-6 -42 49 2
c28 1 65 -5 88 -15 53 -23 241 -41 269 -26 12 7 40 10 62 9 36 -2 44 2 65 29
31 41 88 98 129 129 31 23 32 26 25 77 -6 53 -6 54 27 74 58 35 95 22 106 -38
3 -15 7 -66 9 -113 4 -86 4 -86 -27 -118 -19 -18 -42 -31 -57 -31 -30 0 -128
-62 -143 -90 -5 -10 -32 -26 -59 -35 -45 -15 -121 -79 -121 -103 0 -4 -23 -32
-51 -62 -27 -30 -90 -108 -139 -172 -91 -120 -112 -167 -127 -275 -3 -26 -11
-59 -18 -73 -15 -30 -35 -151 -35 -212 0 -24 -8 -56 -18 -73 -33 -55 -45 -118
-33 -172 6 -26 13 -65 16 -86 6 -36 10 -39 105 -87 55 -27 104 -58 109 -68 8
-14 5 -28 -9 -55 -29 -53 -25 -69 25 -115 39 -36 45 -46 45 -82 0 -48 -17 -83
-73 -155 -23 -29 -54 -75 -69 -104 -24 -44 -32 -51 -58 -51 -16 0 -49 -8 -72
-19 -86 -38 -154 -63 -188 -71 -84 -19 -177 -44 -197 -53 -16 -7 -27 -6 -37 2
-9 7 -24 10 -36 6 -15 -5 -34 2 -62 20 -32 22 -42 24 -49 13 -19 -29 -14 -55
17 -91 30 -36 30 -48 0 -84 -32 -39 -43 -126 -20 -172 16 -32 16 -34 -9 -58
-17 -18 -39 -26 -73 -30 -27 -2 -65 -9 -86 -15 -33 -10 -39 -8 -75 19 -21 17
-58 35 -81 41 -44 10 -44 10 -58 -24 -17 -41 -18 -59 -2 -87 7 -12 15 -44 18
-72 5 -49 6 -50 62 -78 l57 -29 27 21 c15 12 30 21 34 21 4 0 13 -21 19 -47
11 -42 10 -49 -5 -60 -25 -18 -42 -16 -56 7 -14 22 -75 28 -109 10 -40 -22
-12 -70 40 -70 34 0 24 -29 -16 -45 -21 -9 -45 -23 -55 -32 -23 -20 -23 -77
-2 -155 17 -60 10 -88 -22 -88 -10 0 -14 -13 -14 -40 l0 -40 -53 0 c-41 0 -58
-5 -72 -20 -10 -11 -24 -20 -31 -20 -6 0 -26 -16 -42 -35 -35 -39 -48 -100
-38 -172 7 -54 17 -68 65 -94 20 -10 48 -29 63 -41 25 -19 31 -20 68 -9 32 9
45 9 55 1 21 -17 30 -77 15 -95 -7 -8 -16 -30 -19 -48 -5 -22 -17 -38 -40 -52
-50 -30 -130 -105 -162 -152 -33 -48 -35 -53 -14 -53 26 0 28 -27 6 -63 -12
-19 -21 -43 -21 -55 0 -29 -29 -36 -55 -12 l-22 20 -10 -23 c-7 -15 -8 -29 -1
-41 7 -13 -2 -37 -36 -101 -25 -47 -46 -87 -46 -89 0 -2 8 -2 19 1 25 6 51
-32 51 -77 0 -33 4 -38 44 -57 76 -37 73 -97 -3 -77 -22 6 -45 7 -52 3 -8 -5
-18 0 -27 12 -11 16 -25 19 -87 19 -40 0 -96 -5 -123 -11 -80 -19 -97 -10
-123 68 -13 40 -21 87 -20 115 1 26 -3 56 -9 67 -10 19 -11 19 -51 -3 -49 -28
-67 -25 -97 18 -41 61 -24 194 38 285 33 49 37 77 15 107 -19 25 -19 95 0 141
8 19 15 45 15 57 0 11 8 43 17 69 14 39 15 52 5 67 -7 11 -12 28 -12 38 0 10
-4 22 -9 27 -16 16 3 123 23 138 33 24 16 59 -44 92 l-55 30 53 6 c44 6 102
30 102 43 0 33 -55 70 -82 55 -40 -22 -47 -5 -67 153 -5 43 -14 65 -34 86 -32
33 -34 64 -7 117 11 22 20 45 20 51 0 7 -16 45 -35 85 -34 72 -35 76 -35 199
0 80 6 147 15 183 8 32 15 71 15 88 0 21 10 38 35 61 32 27 35 34 29 67 -4 20
-18 59 -32 86 -23 43 -26 64 -28 155 -2 97 0 107 22 136 13 18 30 51 38 75 14
39 13 45 -5 80 -25 49 -25 106 -1 113 11 4 25 29 37 64 11 31 29 67 42 79 27
26 26 19 12 103 -6 42 -21 81 -40 110 -20 30 -28 52 -24 67 3 14 -5 43 -21 74
-22 44 -24 56 -14 77 10 23 7 29 -39 76 -56 56 -63 82 -28 95 37 14 50 37 43
75 -5 25 -1 47 16 80 20 42 21 50 9 79 -32 79 -35 104 -18 144 10 21 26 70 36
108 28 103 69 194 107 242 19 23 34 48 34 56 0 7 8 21 19 31 20 18 18 58 -5
77 -17 14 -18 43 -3 70 7 15 5 35 -12 85 -22 64 -22 67 -4 99 11 22 16 46 12
67 -7 52 15 82 109 139 47 29 88 58 90 64 2 5 5 66 7 133 l3 124 33 16 c18 8
37 26 42 40 5 13 18 26 29 29 11 3 22 14 25 24 8 25 22 24 88 -6 53 -25 59
-25 116 -14 63 13 91 5 91 -28 0 -8 7 -27 15 -43 19 -37 55 -41 55 -7 0 12 11
46 25 75 l24 52 77 0 c73 0 81 -2 131 -37z m1092 -1573 c65 -65 86 -80 110
-80 24 0 34 -7 46 -30 16 -31 82 -86 155 -130 44 -26 170 -179 170 -205 0 -8
-8 -15 -18 -15 -12 0 -25 -14 -36 -39 -17 -37 -17 -40 3 -79 27 -53 26 -60 -4
-84 -14 -11 -34 -37 -43 -57 -10 -21 -31 -43 -51 -53 -18 -9 -42 -26 -52 -37
-30 -32 -63 -35 -151 -13 -55 14 -87 18 -99 11 -10 -5 -36 -9 -59 -9 -42 0
-62 14 -104 75 -17 25 -22 27 -68 21 -43 -6 -53 -4 -88 21 -30 22 -41 38 -49
73 -17 72 -16 103 1 140 8 19 19 75 22 124 4 49 16 112 27 140 10 28 19 61 19
73 0 25 25 126 40 163 8 19 27 30 73 46 34 12 65 22 69 23 5 0 44 -35 87 -79z"/>
<path d="M8253 8235 c-18 -18 -48 -64 -67 -102 -21 -42 -58 -91 -95 -128 l-61
-59 -46 12 c-26 7 -49 11 -51 9 -2 -3 -7 -27 -12 -54 -5 -31 -20 -67 -40 -95
-39 -54 -41 -102 -3 -104 12 -1 22 3 22 8 0 5 -9 6 -20 3 -32 -10 -25 35 15
94 22 32 35 62 35 83 0 49 11 61 44 48 15 -5 36 -10 46 -10 32 0 134 109 170
180 17 36 50 84 73 108 23 23 37 42 32 41 -6 0 -24 -15 -42 -34z"/>
<path d="M7891 7684 c0 -11 3 -14 6 -6 3 7 2 16 -1 19 -3 4 -6 -2 -5 -13z"/>
<path d="M2145 2439 c-18 -8 -18 -8 4 -6 20 2 26 -4 33 -32 7 -25 5 -37 -5
-50 -27 -30 -30 -59 -8 -73 16 -9 21 -23 21 -53 0 -52 -7 -61 -53 -68 l-39 -6
6 62 c11 131 16 212 12 202 -7 -17 -18 -125 -19 -200 l-2 -70 40 3 c22 2 46
11 53 20 20 26 15 96 -8 117 l-20 18 20 34 c17 30 19 40 10 74 -11 41 -14 43
-45 28z"/>
<path d="M2111 1660 c-7 -48 -13 -65 -31 -90 -23 -33 -26 -68 -6 -95 19 -27
46 -13 46 25 0 33 6 36 34 15 26 -20 53 -19 65 3 8 13 14 15 28 6 24 -15 30
-65 8 -77 -13 -7 -15 -17 -10 -50 4 -23 13 -52 21 -65 10 -15 13 -34 8 -58 -4
-24 -2 -40 9 -52 8 -9 17 -28 20 -42 3 -14 15 -56 27 -95 15 -51 19 -84 15
-122 -6 -47 -4 -54 19 -74 14 -13 26 -28 26 -34 0 -7 9 -24 21 -39 11 -15 19
-33 16 -40 -3 -8 5 -36 18 -63 13 -26 26 -61 30 -76 3 -17 18 -35 35 -45 33
-19 39 -46 14 -60 -12 -7 -15 -17 -10 -36 3 -14 11 -26 16 -26 6 0 5 8 -2 19
-10 16 -9 23 6 40 23 25 17 52 -13 67 -29 15 -41 32 -41 62 0 13 -10 36 -22
52 -13 18 -21 43 -20 63 1 23 -5 41 -18 52 -11 10 -20 23 -20 30 0 6 -11 22
-25 35 -23 22 -25 30 -20 75 5 38 0 71 -19 138 -14 48 -26 94 -26 102 0 9 -7
18 -16 22 -13 5 -15 15 -9 50 5 33 3 49 -8 61 -8 10 -18 36 -22 58 -5 33 -3
43 9 47 21 8 21 61 0 81 -20 20 -43 20 -50 1 -9 -22 -34 -18 -61 7 -20 19 -25
20 -33 8 -5 -8 -10 -27 -10 -42 0 -37 -27 -37 -36 -1 -5 19 0 40 20 75 17 31
26 58 23 76 -2 15 -5 20 -6 12z"/>
<path d="M2230 1170 c-8 -5 -25 -10 -37 -10 -27 0 -27 -1 -9 -45 14 -32 13
-36 -5 -48 -18 -13 -18 -17 -5 -53 8 -21 19 -38 25 -36 6 1 16 3 23 5 6 1 23
-15 36 -35 31 -47 62 -51 62 -9 0 16 -9 57 -19 92 -10 35 -21 75 -25 89 -8 40
-28 61 -46 50z m32 -41 c4 -13 16 -54 27 -92 36 -116 24 -151 -25 -77 -21 32
-31 39 -49 34 -18 -5 -24 0 -33 25 -9 26 -8 33 9 45 17 11 19 18 10 34 -17 32
-13 50 12 55 34 6 41 3 49 -24z"/>
<path d="M3006 528 c-9 -12 -16 -29 -16 -37 0 -10 -9 -12 -40 -7 -36 6 -41 4
-51 -18 -18 -39 -3 -95 27 -102 13 -3 31 -1 38 5 24 20 31 -8 7 -30 -48 -45
-11 -112 68 -124 20 -4 47 -11 61 -16 19 -8 22 -8 13 1 -6 7 -32 16 -57 21
-65 12 -96 35 -96 70 0 18 8 34 20 41 22 14 24 25 11 46 -7 11 -12 11 -28 1
-40 -24 -73 18 -59 75 5 21 10 23 51 18 40 -4 45 -2 45 15 0 26 25 49 35 32 5
-7 22 -9 44 -6 l36 4 1 -61 c1 -33 8 -105 15 -159 l14 -98 44 -29 c32 -22 56
-30 87 -30 24 0 61 -7 81 -15 34 -13 45 -13 113 3 68 16 75 20 75 42 0 23 -4
25 -58 30 -41 4 -61 10 -68 23 -6 9 -30 22 -56 28 -46 12 -137 88 -162 137 -6
12 -18 22 -26 22 -11 0 -15 11 -15 36 0 34 -26 94 -42 94 -4 0 -10 -4 -13 -10
-9 -15 -46 -12 -66 6 -16 14 -18 13 -33 -8z m142 -89 c-3 -34 -1 -39 17 -39
13 0 28 -14 42 -39 13 -22 32 -42 42 -46 11 -3 23 -14 26 -25 5 -17 70 -50 98
-50 8 0 24 -11 37 -25 19 -21 33 -25 77 -25 45 0 53 -3 53 -18 0 -29 -126 -55
-177 -36 -21 7 -58 13 -82 14 -30 0 -57 9 -86 27 -42 26 -43 27 -49 97 -16
165 -17 242 -6 223 7 -10 10 -36 8 -58z"/>
<path d="M2390 432 c0 -13 72 -49 113 -56 61 -11 45 -30 -20 -23 -54 6 -74 17
-86 51 -2 6 -7 8 -11 5 -4 -4 4 -19 16 -34 20 -23 35 -28 93 -35 39 -4 72 -6
74 -4 11 9 -52 54 -77 54 -16 0 -46 11 -66 25 -20 13 -36 21 -36 17z"/>
<path d="M2607 296 c-25 -38 -12 -63 34 -68 39 -4 69 13 69 39 0 15 -32 40
-61 47 -21 4 -30 1 -42 -18z m75 -13 c26 -23 11 -43 -32 -43 -44 0 -60 23 -34
51 17 19 37 16 66 -8z"/>
<path d="M2895 189 c-17 -10 -44 -18 -62 -17 -37 2 -72 -20 -51 -34 7 -4 25
-5 41 -2 20 4 27 2 27 -10 0 -10 9 -16 23 -16 13 0 32 -6 42 -14 17 -12 20
-11 30 8 14 28 58 32 106 10 l38 -17 -32 -29 -31 -30 23 -19 c22 -18 26 -18
48 -4 16 11 34 14 57 9 29 -5 36 -2 46 18 17 32 16 31 39 17 26 -17 74 -1 79
26 6 28 -26 45 -85 45 l-54 0 17 -31 c15 -30 15 -32 -2 -24 -11 4 -36 9 -58
12 l-39 6 27 14 c19 10 26 21 26 43 0 34 -22 40 -57 15 -20 -14 -23 -14 -31 1
-5 9 -27 20 -48 24 -21 4 -50 10 -64 13 -16 4 -36 -1 -55 -14z m105 -6 c19 -3
44 -14 56 -24 18 -17 22 -17 40 -4 28 21 44 18 44 -8 0 -37 -38 -49 -80 -26
-46 24 -95 24 -120 -1 -11 -11 -22 -15 -25 -10 -4 6 -17 10 -30 10 -14 0 -25
7 -27 18 -5 22 59 63 87 55 11 -3 36 -7 55 -10z m-172 -34 c-7 -5 -19 -9 -27
-9 -11 0 -11 3 -1 14 6 8 18 12 27 9 12 -5 12 -7 1 -14z m472 -39 c19 -12 2
-44 -27 -48 -20 -3 -73 32 -73 49 0 12 81 11 100 -1z m-126 -41 c38 -18 22
-42 -23 -34 -24 4 -43 1 -56 -8 -23 -18 -45 -11 -45 14 0 35 71 52 124 28z"/>
</g>
</svg>
