<?xml version="1.0" standalone="no"?>
<!DOCTYPE svg PUBLIC "-//W3C//DTD SVG 20010904//EN"
 "http://www.w3.org/TR/2001/REC-SVG-20010904/DTD/svg10.dtd">
<svg version="1.0" xmlns="http://www.w3.org/2000/svg"
 width="1180.000000pt" height="1280.000000pt" viewBox="0 0 1180.000000 1280.000000"
 preserveAspectRatio="xMidYMid meet">
<metadata>
Created by potrace 1.15, written by Peter Selinger 2001-2017
</metadata>
<g transform="translate(0.000000,1280.000000) scale(0.100000,-0.100000)"
fill="#03a9f4" stroke="none">
<path d="M7782 12787 c-34 -13 -96 -92 -88 -113 3 -7 -3 -10 -15 -7 -10 3 -19
14 -19 24 0 16 -7 19 -42 19 -34 0 -53 -8 -92 -38 -80 -60 -76 -59 -87 -39
-23 40 -101 5 -185 -85 -32 -33 -46 -60 -62 -120 -12 -42 -22 -99 -22 -127 l0
-51 51 -26 c79 -39 48 -51 -41 -14 -40 17 -74 29 -76 27 -2 -1 3 -31 10 -65
l12 -61 -73 6 c-71 6 -73 5 -73 -16 0 -12 -11 -41 -24 -64 -14 -23 -28 -65
-32 -94 l-6 -51 -49 -4 c-39 -2 -48 0 -44 11 3 8 -2 22 -11 32 -10 11 -13 19
-7 19 5 0 15 18 22 41 7 23 15 47 18 54 6 17 -57 50 -120 65 -38 8 -53 6 -103
-14 l-59 -24 -24 36 -24 35 -44 -49 c-65 -73 -69 -77 -94 -100 -13 -12 -34
-34 -47 -49 -16 -19 -27 -25 -40 -19 -9 4 -58 9 -108 12 l-91 4 -12 -44 c-7
-24 -11 -66 -9 -93 3 -43 7 -52 37 -72 45 -31 103 -30 176 2 52 23 59 24 75
10 23 -21 108 -20 132 2 18 16 23 8 12 -21 -5 -12 -20 -16 -60 -16 -53 0 -53
0 -80 -47 -15 -27 -29 -50 -30 -51 -1 -2 -22 10 -47 26 l-44 31 -22 -45 c-20
-42 -20 -51 -10 -112 6 -37 20 -82 31 -99 l20 -33 -22 0 c-11 0 -39 -9 -60
-20 l-40 -20 0 -68 c0 -64 2 -70 33 -100 18 -18 42 -32 54 -32 11 0 38 -17 59
-39 30 -29 53 -42 97 -51 35 -8 53 -16 45 -21 -33 -18 -176 -39 -270 -39
l-104 0 -51 -52 c-29 -30 -59 -71 -67 -95 -14 -40 -14 -42 11 -65 14 -12 32
-36 40 -52 14 -27 17 -28 61 -21 59 8 101 8 177 0 41 -4 75 -2 106 8 42 13 48
13 72 -5 26 -19 26 -19 79 8 29 14 65 38 81 52 24 23 27 32 27 94 l0 68 -72
47 -71 48 45 3 c77 5 96 52 54 133 -13 25 -12 28 8 37 12 5 38 38 59 72 46 79
48 118 7 179 l-29 45 49 28 c34 19 50 35 50 49 0 11 6 22 14 25 19 7 50 79 43
104 -7 26 10 26 18 0 10 -31 61 -53 111 -47 l43 4 -13 -31 c-8 -21 -20 -32
-37 -34 -32 -5 -89 -60 -89 -87 0 -12 -14 -41 -30 -64 l-30 -41 20 -40 c21
-42 60 -60 130 -60 26 0 31 -3 22 -12 -7 -7 -12 -31 -12 -55 0 -40 2 -43 38
-52 20 -6 43 -11 50 -11 8 0 33 -21 56 -47 l43 -47 102 47 c55 27 125 56 154
66 30 11 68 26 85 35 45 23 59 20 112 -24 26 -22 52 -40 58 -40 5 0 29 -11 53
-24 24 -13 58 -27 75 -30 22 -5 35 -17 47 -41 15 -32 20 -35 62 -35 25 0 45
-4 45 -9 0 -6 17 -30 38 -54 22 -25 47 -69 56 -98 36 -110 85 -127 156 -54
l43 44 36 -34 c19 -19 39 -35 43 -35 4 0 8 -4 8 -10 0 -6 -28 -10 -65 -10
l-65 0 0 -38 c0 -22 7 -53 16 -70 13 -26 21 -32 49 -32 l33 0 -15 -51 c-15
-51 -15 -52 10 -77 24 -23 29 -25 62 -15 32 10 35 9 35 -8 0 -15 7 -19 38 -19
21 0 43 5 49 11 7 7 12 1 17 -22 3 -17 24 -51 46 -75 35 -38 40 -49 40 -92 0
-38 5 -53 23 -69 30 -27 61 -43 87 -43 12 0 24 -9 29 -22 16 -40 83 -94 134
-108 42 -11 53 -20 82 -66 36 -56 109 -104 158 -104 19 0 29 -12 52 -59 31
-65 59 -84 125 -85 29 -1 43 -8 64 -33 24 -28 34 -33 71 -33 24 0 55 4 69 9
19 8 30 6 48 -8 52 -41 68 -44 109 -25 31 13 41 25 49 55 6 21 15 41 20 44 5
3 36 -13 70 -34 34 -22 87 -50 118 -61 54 -21 57 -21 95 -4 l39 18 -7 105 c-6
92 -13 118 -46 196 -25 58 -50 101 -72 120 -20 18 -39 47 -46 73 -6 23 -25 58
-42 76 -25 29 -31 47 -39 113 -11 95 -15 107 -46 128 -22 14 -24 23 -24 85 0
38 -5 72 -10 75 -6 3 3 17 19 30 22 19 28 31 25 56 -2 17 -6 35 -9 39 -3 5 10
30 30 55 43 58 46 113 11 209 -30 83 -50 114 -77 118 -35 5 -36 28 -1 28 24 0
33 7 46 34 9 19 16 50 16 69 0 21 10 48 28 73 39 54 43 68 53 159 4 44 11 112
15 151 8 85 3 112 -32 153 -29 35 -67 41 -96 14 -15 -14 -18 -14 -18 -1 0 38
-62 118 -91 118 -5 0 -34 12 -65 26 -87 40 -147 29 -256 -48 -14 -10 -21 -9
-37 6 -18 16 -22 16 -49 2 -28 -14 -31 -14 -47 4 -18 19 -17 20 11 20 26 0 33
7 57 55 37 76 36 113 -7 154 -28 27 -40 32 -60 27 -25 -6 -26 -5 -26 39 0 39
-3 46 -30 60 -16 8 -38 15 -50 15 -11 0 -65 15 -119 34 l-99 34 -35 -23 c-19
-13 -45 -27 -58 -30 -24 -6 -24 -6 -21 70 l4 75 -59 -1 c-32 0 -74 -6 -93 -13
-30 -12 -39 -11 -63 2 -15 9 -30 25 -33 35 -9 27 -64 57 -105 57 -29 0 -41 7
-66 38 -21 26 -49 44 -93 61 l-62 23 -32 -31 -33 -32 -10 38 c-6 21 -17 62
-24 92 -10 38 -19 55 -35 61 -41 16 -109 19 -142 7z m88 -77 c4 0 15 -30 25
-67 9 -38 33 -101 54 -142 l37 -73 40 61 c22 35 46 61 56 61 30 0 64 -21 81
-50 15 -26 17 -97 17 -789 l0 -761 -27 0 c-18 0 -41 -13 -70 -42 -38 -37 -43
-39 -49 -22 -20 62 -31 83 -63 121 -20 23 -46 55 -59 72 -18 24 -31 31 -58 31
-29 0 -36 5 -54 40 -19 37 -23 40 -63 40 -29 0 -54 8 -79 25 -20 14 -42 25
-49 25 -6 0 -33 18 -59 40 -56 47 -104 53 -173 21 -23 -11 -77 -33 -120 -50
-43 -17 -100 -43 -128 -56 l-49 -25 -17 35 c-13 27 -24 36 -51 41 l-35 7 27
20 c15 10 35 36 46 57 l19 37 -34 33 -35 34 -24 -23 c-26 -24 -89 -37 -131
-27 l-26 7 25 42 c14 23 25 45 25 50 1 4 1 12 1 17 0 6 10 10 23 10 29 0 80
54 96 99 6 19 11 51 11 71 0 33 -4 39 -39 55 -34 15 -44 15 -75 4 -49 -18 -64
-3 -42 40 16 30 18 31 85 31 l68 0 6 80 c5 83 36 156 62 146 7 -2 34 -8 59
-11 41 -6 50 -4 71 15 17 16 23 30 19 44 -4 19 0 21 38 22 24 0 55 6 71 12 23
10 27 17 27 51 0 57 -18 90 -62 112 -44 22 -45 32 -22 118 13 47 27 70 66 108
46 45 50 47 63 29 13 -17 16 -17 61 -2 26 9 56 23 66 33 17 15 18 15 18 -3 0
-11 -13 -27 -30 -36 -26 -15 -30 -23 -30 -57 0 -23 8 -59 18 -81 l17 -41 59 3
c59 3 60 3 69 38 5 19 24 51 43 70 19 20 34 46 34 59 0 30 16 18 41 -32 12
-23 33 -54 47 -70 l26 -27 43 42 c24 23 43 47 43 53 0 5 -30 51 -65 100 -36
50 -65 96 -65 103 0 15 39 33 58 26 8 -2 17 -4 22 -4z m-296 -255 c-4 -8 -8
-15 -10 -15 -2 0 -4 7 -4 15 0 8 4 15 10 15 5 0 7 -7 4 -15z m749 -38 c14 -18
51 -47 84 -64 l58 -31 28 24 c43 37 61 32 53 -13 -4 -21 -10 -58 -13 -82 l-6
-44 65 5 c46 3 81 12 118 31 29 15 55 25 58 22 3 -3 0 -5 -6 -5 -8 0 -12 -22
-12 -65 0 -36 3 -65 8 -65 4 0 39 7 77 15 52 10 75 21 90 40 25 30 35 32 35 4
0 -14 -10 -24 -30 -32 -28 -11 -30 -15 -30 -64 l0 -53 32 0 33 0 -27 -27 -27
-26 19 -36 c10 -20 48 -65 84 -100 l66 -65 24 23 c25 23 26 23 61 7 l36 -17
46 40 c25 23 63 46 84 52 34 11 45 9 106 -17 72 -30 83 -39 83 -66 0 -25 -59
-24 -106 2 -33 19 -40 20 -91 8 -51 -12 -57 -17 -76 -55 l-21 -43 23 -24 c13
-13 33 -27 46 -30 13 -3 27 -16 30 -27 4 -12 31 -46 60 -75 48 -49 57 -54 98
-54 l44 0 6 58 c7 82 27 116 87 146 64 32 68 25 52 -89 -7 -44 -12 -100 -12
-123 0 -51 -17 -96 -53 -138 -21 -25 -27 -43 -27 -78 l0 -47 -37 7 c-21 4 -48
11 -61 15 -47 18 -52 13 -52 -50 0 -59 0 -60 34 -71 25 -8 36 -19 41 -39 4
-19 15 -31 40 -39 29 -11 36 -21 54 -74 30 -88 27 -108 -20 -162 -37 -42 -40
-49 -30 -76 10 -29 9 -30 -20 -30 -25 0 -33 -7 -52 -46 l-22 -46 33 -26 c30
-26 32 -31 32 -94 0 -65 1 -67 34 -87 36 -23 46 -44 46 -102 0 -48 18 -98 45
-129 29 -33 41 -57 49 -103 5 -28 16 -43 41 -60 39 -25 95 -136 95 -188 0 -16
5 -50 11 -75 6 -25 9 -47 6 -50 -9 -9 -79 25 -158 76 -48 32 -86 50 -105 50
-29 0 -32 -4 -49 -60 -10 -34 -22 -63 -26 -66 -4 -2 -25 7 -46 22 -38 26 -45
26 -124 8 -23 -5 -31 0 -58 40 -29 41 -34 44 -57 36 -55 -21 -72 -14 -103 48
-37 73 -55 88 -114 95 -60 6 -78 22 -131 119 -42 78 -43 78 -61 58 -36 -39
-95 -6 -120 66 -11 34 -17 39 -47 42 -70 5 -78 10 -78 47 0 48 -15 82 -56 128
l-36 39 38 39 38 39 -22 23 c-12 13 -31 50 -42 84 -17 50 -26 62 -56 76 -19 9
-46 17 -61 17 -20 0 -23 3 -14 14 17 21 -23 90 -65 110 l-34 16 0 778 c0 428
3 782 7 785 14 14 31 6 56 -26z m750 -333 c3 -4 0 -19 -8 -34 -11 -22 -19 -26
-40 -23 -32 7 -32 16 1 42 28 22 37 25 47 15z m-2341 -54 c32 0 15 -22 -32
-40 -43 -17 -45 -19 -48 -64 l-3 -46 40 0 c23 0 41 -4 41 -8 0 -5 -13 -26 -30
-48 -25 -33 -29 -48 -30 -97 0 -54 -2 -59 -30 -75 -18 -10 -30 -25 -30 -37 0
-13 -16 -30 -45 -47 -27 -17 -52 -42 -65 -67 -11 -22 -20 -42 -20 -44 0 -3 14
-10 30 -17 34 -14 60 -45 60 -72 0 -31 -52 -98 -89 -118 -20 -10 -47 -30 -61
-45 l-25 -27 24 -17 c14 -9 34 -24 45 -34 21 -18 20 -18 -19 -12 -22 4 -54 13
-72 20 l-32 14 19 57 c11 31 20 60 20 65 0 4 -25 -6 -55 -23 -72 -39 -99 -35
-103 15 l-3 37 49 0 c39 0 53 5 73 26 l24 25 -39 73 c-21 40 -36 79 -33 87 4
11 6 10 6 -3 1 -10 11 -23 24 -30 24 -13 117 -28 117 -19 0 3 -5 35 -10 69
-15 92 -10 102 53 102 50 0 53 1 80 44 19 30 27 56 27 88 0 38 -5 49 -38 81
l-38 37 -34 -35 c-39 -40 -64 -44 -95 -15 l-22 20 -74 -30 c-109 -44 -163 -38
-144 16 9 25 14 27 55 25 25 -2 70 -4 101 -5 l56 -1 78 80 c43 44 80 76 82 70
12 -35 20 -35 94 -1 41 20 80 33 87 31 8 -3 23 -5 34 -5z m2668 -305 c14 -8
39 -14 56 -15 l32 0 -16 -44 -16 -44 -29 22 c-16 11 -31 33 -34 48 -3 17 -15
31 -32 37 -21 7 -22 10 -6 10 11 0 31 -6 45 -14z m-2892 -873 c-2 -29 -10 -40
-36 -55 -33 -20 -34 -20 -62 1 l-29 22 -47 -22 c-30 -13 -64 -20 -89 -18 -22
2 -76 3 -121 4 -71 1 -83 4 -98 23 -16 22 -15 24 20 63 l36 40 92 1 c50 0 127
8 171 18 l80 17 43 -29 c39 -26 43 -32 40 -65z m1839 -245 c0 -1 3 -11 5 -22
2 -14 -2 -19 -12 -16 -8 3 -27 5 -42 4 -32 0 -32 1 -17 29 8 15 17 18 37 13
15 -4 28 -7 29 -8z"/>
<path d="M2204 11362 l-62 -37 -4 -60 c-3 -53 -10 -70 -57 -140 -70 -105 -66
-102 -93 -71 -22 26 -105 56 -154 56 -11 0 -31 12 -45 26 -24 26 -89 64 -109
64 -19 0 -12 -137 10 -180 27 -52 25 -71 -3 -38 -18 22 -94 68 -112 68 -3 0
-5 -38 -5 -84 l0 -83 54 -68 c75 -94 83 -110 63 -129 -8 -9 -18 -28 -22 -43
-11 -53 -36 -74 -95 -80 -47 -4 -58 -2 -74 16 -13 14 -31 21 -55 21 -28 0 -42
7 -62 31 l-25 31 -110 -32 c-191 -57 -234 -90 -234 -179 0 -23 9 -64 19 -91
l20 -51 -27 3 c-26 3 -27 5 -32 86 l-5 83 -60 -118 c-51 -103 -60 -127 -65
-191 l-5 -73 25 6 c21 5 18 1 -18 -30 -36 -31 -42 -42 -42 -75 0 -32 -6 -43
-30 -60 -27 -19 -30 -27 -30 -77 0 -53 1 -55 23 -49 84 24 107 16 107 -39 0
-19 8 -39 20 -50 25 -23 25 -35 1 -35 -28 0 -68 -36 -126 -115 l-54 -72 -60
-7 c-38 -4 -68 -3 -81 4 -21 11 -68 3 -141 -25 -34 -13 -37 -13 -42 4 -6 25
-88 51 -161 51 -54 0 -63 3 -93 32 -31 30 -34 31 -59 17 -42 -22 -82 -63 -89
-91 -5 -18 2 -37 24 -70 26 -38 37 -46 80 -56 35 -8 59 -8 77 -2 40 16 69 12
90 -11 10 -12 36 -30 56 -40 31 -16 45 -17 89 -9 80 15 131 12 164 -10 17 -11
38 -20 49 -20 40 0 232 63 343 114 65 29 156 65 203 81 99 32 134 60 149 120
10 41 12 42 51 42 34 0 38 -2 28 -14 -6 -8 -24 -21 -40 -29 -22 -12 -28 -21
-28 -49 0 -19 8 -50 17 -70 15 -31 21 -35 55 -35 22 0 53 7 69 16 28 14 33 14
54 0 31 -20 140 -21 175 -1 33 19 40 18 40 -3 0 -10 11 -25 25 -32 26 -14 30
-30 15 -65 -6 -16 0 -28 28 -57 19 -21 47 -57 61 -82 14 -24 43 -67 64 -95 38
-49 41 -51 88 -51 27 0 49 -3 49 -6 0 -3 -8 -18 -19 -32 -10 -15 -24 -46 -32
-70 -12 -41 -11 -43 16 -72 17 -18 39 -30 54 -30 46 0 55 -14 59 -89 l4 -71
54 0 c65 0 74 -12 74 -103 0 -51 -4 -67 -20 -82 -30 -27 -29 -188 1 -247 18
-34 19 -47 11 -81 -10 -36 -8 -46 18 -98 29 -56 29 -58 13 -96 -8 -21 -26 -67
-39 -102 -23 -63 -23 -66 -7 -128 10 -41 20 -63 30 -63 8 0 22 -4 32 -10 18
-9 18 -12 0 -87 -10 -43 -18 -97 -19 -120 0 -55 -15 -91 -52 -130 -28 -29 -30
-35 -20 -57 11 -24 10 -25 -19 -19 -47 9 -79 -27 -79 -89 0 -41 3 -48 20 -48
15 0 20 -7 20 -27 0 -20 16 -44 59 -88 50 -51 68 -79 115 -187 31 -70 56 -131
56 -136 0 -6 -9 -8 -19 -5 -15 4 -24 -5 -41 -36 -20 -40 -20 -44 -5 -88 18
-53 18 -59 7 -193 -9 -111 -27 -155 -102 -248 -58 -71 -86 -149 -67 -189 15
-33 -6 -86 -55 -142 -44 -50 -53 -77 -44 -124 14 -64 8 -105 -40 -276 -25 -89
-35 -107 -65 -116 -16 -5 -19 -16 -19 -61 0 -41 4 -54 15 -54 21 0 45 -92 45
-176 0 -48 4 -75 14 -83 7 -6 17 -30 20 -53 4 -23 11 -47 17 -54 6 -8 2 -16
-15 -28 -25 -16 -25 -16 -9 -63 9 -27 26 -59 38 -73 19 -21 22 -33 18 -81 -5
-52 -2 -62 52 -169 52 -103 56 -118 47 -144 -20 -51 10 -90 111 -144 106 -57
196 -129 197 -157 0 -12 22 -42 49 -69 33 -32 51 -59 53 -80 12 -80 73 -274
113 -357 25 -51 45 -104 45 -119 0 -14 17 -62 39 -106 34 -70 46 -85 112 -134
117 -87 116 -90 -3 -90 l-93 0 138 -135 c75 -74 137 -139 137 -144 0 -5 13
-12 29 -16 22 -5 37 -19 57 -53 15 -26 37 -60 49 -77 15 -20 24 -50 28 -90 7
-81 23 -113 71 -137 60 -31 155 -119 156 -144 0 -33 117 -184 142 -184 23 0
92 58 110 93 l20 39 -30 32 c-16 17 -38 47 -47 66 -27 54 -65 90 -96 90 -26 0
-27 1 -16 35 10 33 8 38 -25 73 -29 31 -38 53 -58 137 -22 92 -98 272 -100
233 -1 -39 -19 -23 -45 40 -85 203 -99 225 -178 281 -75 53 -87 69 -136 184
-12 27 -21 70 -21 98 0 28 -7 64 -16 80 -8 17 -14 32 -12 34 2 2 37 -6 78 -19
77 -23 95 -41 69 -72 -10 -12 -7 -20 13 -42 15 -15 31 -51 38 -82 7 -30 34
-101 61 -157 55 -118 117 -193 179 -213 53 -18 75 -42 61 -69 -16 -30 -14 -34
29 -61 22 -13 45 -38 52 -54 7 -17 41 -62 76 -100 61 -66 65 -76 48 -116 -4
-11 9 -23 46 -44 67 -37 257 -222 310 -301 22 -33 69 -89 103 -125 52 -53 68
-78 90 -140 18 -53 38 -87 67 -117 39 -39 39 -42 20 -52 -11 -6 -27 -24 -35
-41 -13 -26 -13 -37 -2 -81 8 -29 26 -65 42 -81 48 -51 190 -148 225 -154 18
-4 47 -19 63 -34 81 -73 97 -80 181 -80 61 0 87 -5 114 -20 68 -40 235 -119
265 -125 17 -4 54 -16 83 -26 29 -10 71 -19 93 -19 24 0 61 -11 92 -27 30 -15
78 -30 112 -34 33 -3 84 -15 113 -26 43 -16 61 -18 95 -11 23 6 71 13 107 17
36 4 91 19 124 34 46 21 74 27 131 27 l73 0 54 -48 c29 -27 93 -77 143 -113
49 -35 107 -81 130 -101 26 -25 41 -33 43 -24 2 11 14 10 63 -5 34 -11 83 -19
109 -19 27 0 71 -4 97 -10 26 -5 71 -12 98 -14 28 -3 93 -17 145 -31 104 -28
141 -24 188 18 l22 20 0 -46 c0 -26 5 -47 10 -47 16 0 171 -89 198 -114 12
-11 44 -32 70 -46 45 -24 47 -27 53 -80 8 -70 24 -109 46 -116 10 -3 38 -14
62 -25 23 -11 51 -17 62 -14 13 5 25 -4 45 -34 30 -45 36 -48 55 -25 29 36
121 -17 134 -78 7 -31 48 -58 89 -58 14 0 28 -4 31 -10 3 -5 33 -10 65 -10 48
0 60 3 64 18 4 11 17 28 29 40 20 19 27 20 62 11 22 -6 61 -22 86 -34 30 -16
50 -20 60 -15 9 6 22 2 39 -15 14 -13 44 -29 66 -35 40 -12 44 -11 88 19 37
26 46 38 46 62 0 36 -25 86 -53 109 -21 17 -21 17 6 35 19 12 27 26 27 46 0
28 2 29 44 29 25 0 48 -4 51 -10 3 -5 31 -10 60 -10 54 0 54 0 45 -26 -15 -39
-12 -71 10 -114 11 -22 22 -40 24 -40 2 0 23 7 46 15 23 8 64 15 90 15 45 0
48 1 65 40 l18 40 -27 29 c-23 23 -25 29 -12 34 12 5 16 20 16 57 l0 50 -36 0
c-23 0 -55 11 -83 28 -69 42 -189 74 -232 62 -19 -6 -50 -10 -69 -10 -50 0
-99 -20 -145 -57 -144 -117 -121 -106 -220 -107 -44 -1 -63 3 -72 15 -6 9 -40
32 -75 53 -35 20 -100 68 -144 106 -84 71 -80 66 -111 188 -4 15 2 34 16 52
26 36 26 64 0 151 -16 52 -19 83 -15 126 4 32 9 101 12 153 l5 95 -41 40 c-33
32 -48 40 -78 40 -33 0 -37 3 -40 28 -3 25 -7 27 -45 27 -23 0 -127 -18 -230
-39 -141 -29 -194 -44 -211 -60 -24 -23 -155 -71 -193 -71 -20 0 -22 3 -13 19
15 29 12 96 -9 184 l-19 78 37 18 c20 11 44 28 54 38 16 19 16 22 -2 75 -13
37 -17 70 -14 102 5 41 2 51 -19 74 -14 15 -31 38 -38 51 -11 21 -8 27 23 60
43 46 57 86 57 172 0 67 -1 69 -32 85 -41 22 -82 20 -238 -11 -151 -30 -258
-63 -285 -86 -11 -9 -29 -19 -40 -21 -14 -2 -23 -18 -34 -62 -16 -67 -6 -112
33 -154 l21 -24 -24 -19 c-13 -10 -29 -19 -36 -19 -21 0 -68 -105 -61 -134 7
-27 -12 -40 -35 -25 -8 5 -45 9 -83 9 -60 0 -74 -3 -95 -24 -31 -28 -182 -80
-209 -72 -11 4 -24 17 -30 31 -11 23 -17 24 -104 27 l-92 3 -40 53 c-59 77
-167 192 -181 192 -12 0 -28 47 -43 130 -7 40 -11 45 -37 48 -49 6 -58 20 -51
77 5 41 -1 76 -30 176 -38 129 -41 185 -14 254 l11 30 19 -40 18 -40 3 75 c4
136 -2 182 -28 232 -21 38 -25 56 -21 98 3 32 13 59 25 73 12 12 29 38 38 57
39 76 63 97 138 121 40 12 75 22 79 21 4 -1 25 16 46 39 28 29 38 46 35 63 -4
20 1 24 53 35 32 7 74 24 93 37 42 27 63 31 114 20 29 -7 49 -4 89 13 l50 21
37 -39 c20 -21 53 -44 74 -51 49 -15 97 3 173 65 30 24 63 47 74 50 26 8 28
80 4 107 -14 14 -14 18 -3 21 8 2 30 9 49 15 19 6 82 18 140 27 58 9 129 20
159 25 63 11 80 4 132 -50 63 -68 166 -65 210 6 19 32 25 35 52 30 45 -9 125
-75 146 -121 46 -98 61 -140 61 -172 0 -30 3 -34 20 -28 16 5 20 2 20 -15 0
-12 14 -41 30 -66 24 -34 37 -44 58 -44 21 0 33 -10 54 -43 15 -24 39 -50 53
-57 14 -8 34 -28 45 -45 10 -16 29 -40 42 -52 22 -20 129 -83 142 -83 16 0 66
123 66 162 0 24 5 61 11 82 12 45 4 84 -43 211 -21 55 -43 94 -73 126 -53 57
-64 78 -82 152 -18 81 -78 193 -117 219 -57 39 -63 53 -54 116 22 140 17 131
97 196 63 52 85 78 140 173 43 73 72 112 83 113 16 0 93 104 128 173 12 24 19
28 50 25 34 -3 35 -2 38 36 2 22 -2 50 -9 63 -10 19 -9 26 7 44 23 25 20 61
-7 108 -11 18 -17 41 -14 50 2 9 -4 30 -15 46 -23 35 -25 45 -6 45 18 0 46
113 33 135 -5 10 -4 35 4 66 9 33 10 58 3 76 -8 24 -5 31 37 70 46 43 46 43
36 87 -9 39 -7 48 18 90 20 34 25 54 21 74 -4 15 -9 36 -12 47 -4 18 -3 17 8
-2 13 -22 14 -22 88 35 54 42 83 72 104 111 23 42 26 55 15 62 -10 6 -9 10 6
15 11 4 39 20 62 36 36 24 43 34 43 61 0 19 -10 44 -24 62 -18 23 -22 37 -19
66 3 21 0 59 -6 86 -10 41 -9 55 5 88 23 56 149 177 221 211 81 38 103 60 103
102 0 42 34 92 62 92 20 0 20 -1 5 -18 -20 -21 -22 -78 -7 -149 9 -42 17 -52
57 -78 35 -22 56 -28 87 -26 52 3 60 15 108 148 51 142 82 185 148 206 56 18
97 43 148 91 25 24 32 38 32 68 0 37 1 38 35 38 33 0 35 2 35 34 0 18 7 53 15
76 8 23 15 46 15 51 0 5 -22 9 -49 9 -45 0 -50 2 -60 30 -10 29 -12 30 -70 30
l-61 0 0 -50 0 -50 -64 0 c-35 0 -80 -7 -101 -15 -25 -11 -51 -14 -79 -10 -34
6 -53 2 -90 -17 l-48 -24 39 -35 c22 -19 53 -44 69 -56 l29 -22 -25 0 c-14 -1
-44 9 -67 21 -33 18 -43 29 -48 56 -4 22 -13 36 -26 39 -15 4 -19 14 -19 54 0
42 -3 49 -20 49 -25 0 -25 0 1 50 21 41 21 63 -3 123 -10 27 -12 27 -101 27
-117 0 -160 -13 -198 -62 -24 -30 -37 -38 -62 -37 l-32 0 23 16 c17 12 22 25
22 62 0 29 7 54 18 67 19 23 209 120 218 111 3 -3 -2 -19 -10 -36 -15 -28 -15
-33 1 -66 l17 -35 139 0 c140 0 141 0 188 31 l48 31 -35 53 c-33 49 -39 53
-91 64 -31 6 -70 11 -87 12 l-31 1 35 9 c19 5 61 13 92 18 66 11 197 82 244
133 38 41 74 128 74 180 0 28 5 40 18 45 9 3 26 16 37 29 l20 23 -2 -67 c-1
-52 3 -74 18 -99 17 -27 18 -38 10 -69 -7 -24 -7 -43 -1 -55 6 -10 10 -55 10
-101 0 -46 5 -89 10 -94 7 -7 6 -26 -4 -57 -13 -44 -12 -51 7 -48 4 0 7 -12 7
-29 0 -29 1 -30 51 -30 57 0 79 9 132 56 20 19 47 34 60 34 12 0 38 10 57 23
63 42 69 42 72 -11 3 -46 3 -47 40 -50 33 -3 40 1 58 30 12 20 20 51 20 77 l0
44 40 -46 c30 -34 48 -46 68 -45 15 0 40 -5 55 -11 16 -6 34 -11 41 -11 21 0
46 68 46 123 0 47 -4 57 -33 85 -26 26 -41 32 -74 32 -42 0 -42 0 -45 41 -3
40 -5 42 -54 60 -57 21 -87 49 -101 94 -9 27 -14 30 -60 33 -48 3 -51 2 -57
-25 -10 -38 -35 -75 -46 -68 -6 4 -10 26 -10 51 l0 44 -80 0 -80 0 0 101 0
101 -37 -4 c-21 -3 -46 -8 -55 -12 -16 -7 -18 -1 -18 72 0 79 0 80 -29 92 -20
8 -39 30 -58 66 -27 52 -29 54 -70 54 -23 0 -45 -4 -48 -10 -11 -18 -22 -10
-40 30 -10 22 -20 40 -23 40 -3 0 -17 -10 -30 -22 -16 -15 -23 -17 -20 -8 3 8
-3 32 -14 53 -17 33 -22 37 -58 37 -21 0 -42 -4 -45 -10 -3 -5 -30 -10 -58
-10 -36 0 -60 -6 -77 -20 -33 -26 -39 -25 -84 12 -21 17 -61 39 -89 48 -50 16
-51 18 -66 73 -11 39 -28 69 -57 99 -22 24 -55 67 -73 96 -25 40 -48 61 -95
87 -34 19 -95 60 -136 91 -41 31 -97 67 -125 80 -27 12 -70 37 -95 53 -25 17
-48 31 -52 31 -5 0 -8 -28 -8 -62 -1 -40 -6 -70 -15 -82 -9 -12 -15 -42 -15
-77 0 -49 3 -59 20 -64 27 -9 49 -54 43 -87 -7 -36 -53 -78 -95 -84 -24 -4
-47 0 -76 15 -23 12 -53 21 -67 21 -23 0 -25 4 -25 43 -1 31 -9 55 -34 91 -29
41 -32 53 -25 79 7 25 4 35 -16 59 -14 16 -25 36 -25 44 0 26 -27 26 -80 -1
-39 -20 -60 -25 -83 -20 -47 10 -93 42 -116 78 -16 26 -34 37 -89 55 -88 28
-114 28 -169 -5 -45 -26 -46 -26 -92 -10 -58 21 -87 21 -130 -2 -33 -18 -34
-20 -33 -78 0 -35 7 -74 16 -91 9 -17 16 -42 16 -56 0 -36 38 -132 65 -164 29
-35 56 -98 49 -117 -3 -7 -18 -17 -34 -20 -23 -5 -31 -15 -44 -55 -9 -27 -16
-64 -16 -83 0 -31 7 -41 65 -87 104 -81 175 -212 175 -322 0 -63 -36 -136 -90
-178 -92 -73 -88 -131 20 -275 84 -113 92 -135 75 -210 -8 -31 -16 -59 -19
-62 -2 -3 -12 10 -22 28 l-17 34 -21 -29 c-58 -79 -47 -79 -118 -2 -77 85
-136 183 -148 248 -5 27 -21 65 -35 85 -22 33 -23 39 -10 53 10 11 15 37 15
72 0 52 -2 56 -27 63 -68 17 -171 26 -345 31 l-186 6 -13 29 c-20 49 -123 109
-188 109 -14 0 -38 13 -56 29 -17 16 -51 33 -79 40 l-49 12 -41 -40 c-23 -23
-45 -41 -49 -41 -14 0 -37 60 -37 96 0 43 -35 151 -58 177 -12 13 -31 17 -84
17 -67 0 -68 0 -68 26 0 15 5 44 12 66 8 27 8 42 1 49 -7 7 12 43 62 117 39
59 77 121 84 138 6 17 48 66 91 109 86 86 98 116 60 150 -35 32 -25 45 35 45
50 0 61 4 132 56 63 44 83 66 106 111 l29 55 -32 33 c-17 18 -53 43 -81 55
-27 13 -49 27 -49 32 0 14 24 8 50 -12 29 -23 128 -28 149 -7 12 10 13 8 6 -8
-4 -11 -11 -69 -15 -130 -4 -60 -12 -123 -19 -138 -17 -42 -14 -47 23 -47 29
0 39 -7 63 -40 40 -57 80 -53 151 13 21 21 32 40 32 59 0 26 3 28 43 28 24 0
64 7 90 16 l47 16 0 69 0 69 -51 40 c-36 29 -60 40 -84 40 -29 0 -35 4 -45 36
-9 25 -16 34 -27 30 -46 -18 -59 -16 -86 12 -19 20 -35 28 -48 25 -10 -3 -19
0 -19 6 0 6 15 11 33 11 24 0 41 8 62 30 34 35 43 36 89 11 l34 -20 16 33 c8
17 37 66 65 108 l49 76 -41 40 c-23 22 -53 43 -67 47 -31 10 -40 22 -40 60 0
38 8 48 45 60 28 10 30 14 33 68 l3 57 -61 0 c-34 0 -60 4 -60 10 0 6 -16 18
-35 27 -63 30 -41 42 39 21 34 -9 62 -9 130 2 81 12 87 15 106 47 24 40 37 42
51 6 15 -39 59 -83 84 -83 12 0 30 7 41 15 28 21 34 18 34 -19 0 -24 7 -38 22
-48 l23 -15 -35 -18 c-19 -10 -54 -31 -77 -47 l-43 -29 19 -38 c11 -20 38 -50
62 -65 39 -26 44 -27 85 -16 23 7 52 22 63 34 18 19 19 27 10 61 -6 22 -27 56
-46 76 l-35 37 29 2 c79 7 111 3 137 -14 28 -18 72 -102 96 -182 12 -41 12
-41 -44 -126 l-57 -84 15 -55 c8 -30 19 -67 24 -84 10 -36 76 -76 168 -101 60
-16 62 -17 89 -74 l28 -58 83 -13 c70 -10 88 -17 110 -41 26 -26 33 -28 111
-28 54 0 94 -5 112 -14 27 -15 29 -14 71 29 l44 45 -30 31 c-16 17 -49 42 -74
55 -30 17 -37 23 -20 20 14 -2 41 -7 60 -11 l35 -6 20 57 19 57 -28 22 c-21
17 -26 27 -21 47 12 47 -48 125 -125 163 -48 24 -177 112 -186 126 -5 9 1 10
22 5 30 -8 37 -11 146 -70 l66 -37 45 22 c41 20 44 24 36 46 -14 37 -12 41 31
54 22 7 40 13 40 14 0 1 -9 24 -21 50 -20 44 -20 48 -4 66 18 19 17 36 -6 121
l-10 38 -84 0 c-50 0 -85 4 -85 10 0 6 -10 10 -22 10 -12 0 -36 5 -54 12 -26
9 -47 8 -108 -5 -42 -9 -84 -17 -93 -17 -8 0 -53 36 -98 81 -81 78 -83 82 -73
111 10 28 8 33 -36 76 l-46 47 -35 -19 c-39 -21 -38 -21 -110 45 -69 63 -88
69 -153 45 l-55 -20 -16 24 c-26 41 -67 79 -93 85 -17 4 -41 -4 -83 -30 -76
-46 -97 -51 -143 -33 -30 11 -38 20 -40 43 -2 17 -15 60 -29 98 -30 78 -32 78
-135 45 l-68 -22 -33 32 c-25 24 -42 32 -69 32 -31 0 -40 -7 -81 -58 -25 -33
-57 -84 -71 -115 -14 -31 -36 -72 -50 -90 -20 -26 -26 -46 -26 -85 0 -47 3
-53 47 -91 56 -50 246 -171 268 -171 23 0 18 -11 -20 -50 l-35 -36 20 -59 20
-59 -26 -70 c-14 -39 -28 -79 -31 -88 -9 -30 -20 -20 -32 30 -14 54 -68 167
-91 186 -19 17 -147 59 -158 52 -4 -2 -14 -1 -22 4 -11 7 -11 11 2 23 8 9 20
29 27 45 11 25 10 35 -3 61 -9 17 -25 35 -35 41 -11 5 -25 26 -31 45 -6 19
-32 62 -56 96 -49 66 -40 63 -134 39 -41 -11 -90 -80 -90 -126 0 -16 -7 -40
-16 -52 -8 -12 -21 -44 -28 -72 -12 -48 -12 -52 15 -99 16 -27 33 -52 39 -56
12 -7 14 -55 2 -55 -4 0 -19 24 -34 53 l-25 52 -62 -3 c-50 -3 -61 -7 -61 -21
0 -9 -18 -35 -40 -56 -57 -55 -54 -83 10 -130 28 -20 50 -40 50 -44 0 -9 -46
-23 -131 -41 -54 -12 -58 -12 -95 14 -25 17 -52 26 -77 26 -34 0 -45 7 -97 62
-33 34 -57 64 -54 67 3 4 16 -6 28 -21 12 -16 32 -28 44 -28 13 0 40 -9 62
-20 81 -42 150 -13 150 62 0 35 2 37 55 53 l54 17 -20 42 c-31 62 -85 113
-135 127 -49 15 -60 33 -44 75 8 20 8 41 -2 76 -9 38 -9 58 0 93 6 24 10 50 7
57 -2 7 -13 46 -25 86 l-21 72 -44 0 c-24 0 -47 -4 -50 -10 -3 -5 -30 -10 -60
-10 -46 0 -56 -4 -74 -27 -12 -14 -22 -24 -24 -22 -1 2 -7 13 -13 23 -6 11
-24 24 -40 29 -16 5 -45 25 -65 44 -35 34 -37 34 -79 23 -29 -8 -62 -29 -99
-65 -31 -29 -69 -57 -84 -60 -15 -4 -31 -15 -36 -24 -5 -9 -41 -32 -80 -51
-39 -18 -71 -36 -71 -39 0 -3 33 -5 73 -3 58 3 76 0 87 -13 11 -13 10 -15 -4
-9 -26 10 -66 -33 -66 -71 0 -27 7 -35 63 -67 34 -20 76 -40 92 -43 38 -9 115
-53 115 -65 0 -20 -62 -9 -108 20 -27 17 -63 30 -79 30 -17 0 -36 7 -43 15
-11 13 -16 13 -44 -1 -17 -9 -43 -28 -58 -41 l-27 -25 32 -48 c17 -26 51 -60
74 -75 34 -21 43 -33 43 -56 0 -15 8 -45 17 -65 l18 -37 75 7 c151 13 256 24
280 30 14 4 1 -6 -28 -21 -53 -28 -54 -28 -50 -70 2 -27 -1 -44 -9 -47 -7 -3
-15 -17 -19 -31 l-7 -26 -31 30 c-39 38 -151 80 -232 88 -61 6 -63 7 -58 30 4
13 1 44 -6 69 -12 40 -21 51 -76 87 -53 35 -70 53 -98 107 -54 102 -119 149
-191 137 -32 -5 -35 -4 -35 18 0 43 -21 71 -68 94 -42 21 -46 21 -55 5 -8 -13
-16 -4 -48 52 -21 38 -40 73 -42 78 -2 5 -21 -3 -43 -18 -33 -21 -46 -25 -66
-17 -17 6 -41 4 -79 -6 -81 -23 -139 -28 -139 -12 0 27 -17 39 -70 53 -48 13
-58 12 -85 -1 -16 -9 -33 -20 -36 -25 -11 -17 -46 55 -64 132 -26 112 -78 213
-135 261 -26 22 -53 51 -60 64 -7 14 -20 25 -29 26 -11 0 -12 2 -3 6 6 2 12
19 12 37 0 25 -9 41 -35 65 -20 18 -35 41 -35 54 0 43 -21 98 -49 126 -16 16
-31 45 -35 64 -6 33 -8 35 -62 41 -30 3 -104 22 -163 41 -123 40 -160 42 -252
16 l-65 -18 -33 38 c-42 51 -75 51 -157 1z m122 -82 c31 -47 41 -48 139 -20
91 26 119 25 212 -7 43 -14 102 -31 132 -37 48 -10 56 -15 65 -43 6 -17 23
-41 38 -52 21 -17 28 -33 34 -83 4 -35 7 -89 6 -121 -2 -49 1 -61 22 -82 15
-15 37 -25 54 -25 19 0 33 -7 41 -22 7 -13 27 -32 44 -43 20 -12 43 -42 60
-78 28 -59 29 -59 9 -80 -11 -12 -221 -258 -467 -547 -247 -289 -502 -587
-567 -662 l-119 -138 21 -39 c26 -51 25 -61 -3 -61 -26 0 -82 62 -115 125 -11
22 -29 48 -40 58 -17 15 -19 24 -11 44 15 41 10 61 -21 80 -27 15 -30 23 -30
65 0 43 -5 54 -40 92 -34 37 -38 45 -25 56 22 18 -15 86 -60 107 -32 15 -36
15 -87 -5 -29 -12 -94 -30 -144 -40 -79 -16 -95 -17 -129 -5 -48 16 -56 9 -82
-77 -9 -30 -21 -60 -27 -67 -6 -6 -53 -26 -104 -43 -51 -17 -134 -51 -185 -74
-51 -24 -141 -58 -199 -76 l-106 -33 -37 23 c-32 20 -45 22 -108 17 -77 -6
-74 1 9 26 35 10 56 12 68 5 13 -7 48 -6 112 2 l94 13 55 78 c30 43 65 85 78
93 12 8 66 26 120 41 l97 28 0 53 0 54 -80 0 -80 0 0 29 c0 21 -11 39 -41 65
-37 34 -40 40 -37 84 3 44 6 49 52 77 62 39 159 126 149 135 -4 4 -40 15 -80
25 -95 22 -90 42 10 37 l73 -4 17 39 c17 37 17 40 -3 97 -11 33 -20 74 -20 91
0 30 5 34 57 58 32 14 85 33 117 42 l60 17 19 -26 c15 -21 27 -26 61 -26 30 0
48 -6 61 -20 21 -24 76 -26 155 -8 56 13 90 45 111 105 11 33 31 43 87 43 l32
0 0 55 c0 45 -3 55 -17 56 -41 1 -84 27 -117 72 l-36 47 38 0 c34 0 40 4 55
35 21 45 22 89 1 120 -10 15 -12 25 -5 25 6 0 11 -4 11 -10 0 -5 17 -10 38
-10 34 0 112 -17 112 -24 0 -2 -11 -24 -25 -49 -25 -44 -25 -46 -9 -80 10 -20
30 -41 51 -51 44 -21 92 -8 160 44 43 32 48 40 45 71 -1 18 -11 47 -21 65
l-18 31 42 59 c45 65 65 112 65 155 0 20 9 32 33 47 17 11 35 21 39 21 4 1 20
-17 34 -39z m-256 -331 c0 -10 -17 -25 -42 -38 -64 -31 -79 -11 -28 38 22 20
28 34 24 47 -6 16 -3 15 19 -5 15 -14 27 -32 27 -42z m4206 -375 c-4 -15 -18
-43 -32 -63 -27 -41 -31 -83 -9 -101 11 -9 14 -22 10 -41 -4 -15 -2 -53 4 -85
6 -32 9 -59 7 -61 -6 -6 -127 87 -133 103 -3 8 8 34 25 58 17 23 39 62 48 87
15 38 72 128 83 129 2 0 0 -12 -3 -26z m242 -29 c7 -14 12 -43 12 -64 0 -32 6
-45 33 -68 40 -35 114 -58 160 -49 18 3 59 22 90 40 l57 35 29 -42 c54 -78 57
-80 134 -55 l67 22 43 -40 c23 -22 61 -54 84 -72 42 -32 43 -32 68 -16 33 21
50 8 36 -28 -9 -23 -2 -33 87 -120 53 -52 110 -104 126 -115 29 -20 29 -20
118 0 87 19 140 17 135 -4 -1 -8 28 -11 89 -10 87 2 92 1 97 -21 5 -16 -1 -30
-18 -48 -22 -23 -22 -27 -9 -53 14 -26 14 -29 -16 -54 -21 -17 -30 -32 -27
-45 7 -24 4 -23 -58 12 -72 41 -159 70 -212 70 l-43 0 0 -58 c0 -54 3 -60 38
-93 50 -48 126 -101 188 -132 28 -14 63 -40 77 -56 23 -28 24 -34 14 -67 -10
-33 -9 -38 14 -55 l24 -20 -30 7 c-16 4 -49 15 -73 26 -29 12 -68 18 -118 18
l-74 0 0 -39 c0 -37 3 -40 68 -79 37 -22 88 -51 114 -64 26 -12 48 -25 48 -28
0 -3 -28 -3 -62 -2 -48 3 -69 9 -88 26 -17 16 -49 27 -98 35 l-73 13 -29 58
c-26 51 -33 58 -66 65 -56 10 -144 45 -164 65 -9 9 -20 38 -24 63 -7 44 -4 50
49 131 l57 85 -30 78 c-54 140 -78 184 -115 208 -43 30 -118 49 -157 41 -25
-5 -30 -2 -30 14 0 10 -8 35 -17 54 -15 29 -24 36 -49 36 -16 0 -39 -7 -50
-15 -30 -23 -42 -18 -55 24 -9 31 -20 43 -50 56 -38 17 -38 17 -84 -11 -25
-16 -48 -37 -51 -46 -6 -20 -96 -34 -146 -23 -47 10 -89 11 -118 3 -38 -11
-55 4 -40 33 32 60 38 111 19 179 -19 67 -23 141 -10 174 7 17 56 43 87 45 6
1 16 -10 22 -24z m-3233 -182 c29 -51 31 -53 75 -53 35 0 48 5 65 25 25 32 57
25 72 -16 11 -28 14 -29 73 -29 34 0 87 7 118 16 43 13 63 14 90 6 24 -8 41
-8 54 -1 15 8 23 7 33 -8 23 -30 61 -115 75 -165 7 -27 15 -48 19 -48 3 0 18
26 33 58 l26 57 1 -62 1 -62 33 5 c17 3 49 10 70 15 58 15 85 -4 133 -91 32
-60 53 -83 99 -116 74 -52 83 -73 50 -122 -14 -20 -25 -40 -25 -44 0 -19 81
-46 156 -51 128 -10 212 -55 255 -138 29 -57 45 -69 95 -69 41 0 44 2 39 23
-12 50 -21 126 -16 134 3 4 39 29 79 56 59 38 74 45 78 32 11 -28 90 -75 126
-75 20 0 53 -12 80 -29 39 -25 51 -28 84 -21 73 15 139 30 160 36 20 5 21 1
27 -68 3 -40 12 -90 18 -110 l12 -37 46 24 c70 35 85 56 78 109 l-6 45 70 67
70 68 -3 55 c-3 52 -5 55 -33 63 -29 7 -30 10 -27 48 3 33 -2 49 -31 93 -41
59 -41 87 0 147 12 19 23 48 23 65 0 37 9 50 36 59 17 5 26 -1 47 -31 14 -21
32 -57 39 -80 8 -26 21 -46 35 -52 30 -14 29 -25 -2 -39 -21 -10 -25 -18 -25
-55 0 -38 4 -46 39 -72 36 -27 40 -36 50 -100 15 -90 45 -125 107 -125 36 0
45 4 61 30 l20 31 18 -60 c10 -33 28 -70 41 -82 22 -21 24 -21 72 -5 50 17 50
17 82 99 17 45 38 96 45 114 12 28 12 38 0 74 -25 68 -16 95 22 71 20 -13 43
-91 43 -146 0 -29 7 -73 16 -99 14 -43 19 -47 47 -47 18 0 39 -4 47 -10 15
-10 8 -30 -29 -79 -15 -20 -21 -21 -37 -11 -17 10 -27 9 -60 -8 -21 -11 -47
-29 -57 -40 -11 -11 -24 -19 -30 -16 -7 2 -34 8 -61 13 l-48 9 4 -69 c4 -72 0
-79 -45 -79 -12 0 -35 9 -52 20 -20 13 -47 20 -81 20 l-52 0 -16 -65 c-9 -35
-16 -67 -16 -69 0 -3 31 -21 69 -41 38 -19 72 -39 75 -44 12 -18 -8 -43 -69
-86 -58 -42 -67 -45 -126 -45 l-64 0 -33 -51 -34 -51 31 -32 31 -32 -70 -69
c-41 -41 -75 -84 -81 -105 -16 -48 -118 -196 -168 -244 l-41 -40 22 -23 c20
-21 22 -33 19 -101 l-3 -78 37 -17 c20 -9 59 -17 89 -17 l54 0 16 -49 c9 -28
16 -63 16 -79 0 -46 20 -94 53 -129 44 -46 88 -45 138 3 42 41 70 40 115 -7
21 -21 37 -29 64 -29 59 0 121 -38 146 -90 l23 -45 203 -7 c218 -7 328 -16
328 -27 0 -4 -11 -18 -25 -31 l-25 -23 39 -71 c21 -39 41 -87 44 -107 7 -47
78 -173 126 -224 21 -22 55 -61 76 -87 35 -45 40 -48 84 -48 26 0 78 11 116
23 l70 24 23 89 c31 123 22 163 -65 273 -97 124 -103 151 -42 196 27 20 52 52
75 97 44 87 47 168 10 270 -37 100 -70 151 -148 223 -68 63 -70 66 -58 94 7
19 21 31 39 34 23 5 30 14 41 52 15 53 3 106 -37 159 -37 51 -63 109 -63 146
0 19 -9 55 -20 79 -21 45 -26 91 -11 91 5 0 35 -10 66 -22 l57 -22 59 33 59
32 55 -17 c42 -13 61 -26 75 -49 42 -68 183 -114 248 -81 36 18 46 9 32 -29
-9 -23 -5 -34 30 -82 37 -53 40 -61 40 -125 l0 -68 55 0 c36 0 70 -7 95 -20
108 -55 243 9 274 129 13 51 13 54 -16 106 -16 30 -34 57 -39 60 -14 9 -11 33
7 60 15 23 17 23 52 8 20 -8 71 -40 112 -72 41 -31 101 -72 133 -90 38 -22 67
-47 84 -75 14 -22 44 -61 67 -86 32 -35 46 -61 60 -115 11 -38 20 -71 21 -72
1 -2 26 -7 55 -13 37 -7 69 -22 105 -50 60 -46 99 -51 151 -19 23 14 47 20 77
18 23 -2 48 1 55 5 7 4 12 3 12 -3 0 -14 -29 -41 -44 -41 -17 0 -63 -69 -79
-118 -12 -33 -11 -42 7 -79 17 -37 24 -43 52 -43 24 0 37 7 51 29 10 15 38 51
62 80 48 55 79 65 113 34 17 -15 20 -15 43 7 14 13 27 22 29 19 2 -2 20 -25
40 -52 31 -40 36 -55 36 -100 0 -67 -27 -113 -72 -125 -33 -8 -33 -9 -38 -78
-7 -84 -26 -130 -71 -169 -52 -46 -155 -92 -234 -106 -87 -14 -195 -54 -345
-126 -101 -47 -120 -60 -143 -97 -16 -26 -27 -57 -27 -78 0 -26 -6 -38 -24
-47 -34 -19 -96 -128 -96 -171 0 -19 -20 -95 -45 -169 -36 -111 -51 -141 -82
-173 l-37 -38 47 0 c26 0 57 -6 70 -12 12 -7 23 -13 24 -14 1 0 -6 -28 -16
-62 -24 -79 -57 -131 -90 -144 -50 -20 -136 -37 -185 -38 -27 0 -57 -6 -65
-14 -9 -7 -43 -28 -76 -46 -33 -18 -72 -44 -87 -58 -31 -28 -78 -138 -78 -181
0 -25 -11 -35 -105 -90 -58 -34 -131 -69 -162 -77 -32 -8 -59 -17 -61 -19 -3
-2 10 -23 27 -46 30 -42 30 -43 10 -57 -11 -7 -47 -25 -80 -38 -78 -32 -134
-67 -184 -115 -22 -21 -57 -45 -78 -54 l-38 -15 7 27 c3 16 10 41 15 57 5 16
9 70 9 120 0 83 -3 98 -34 161 -50 105 -143 255 -184 298 -21 21 -56 47 -80
57 -23 11 -62 34 -85 53 -23 18 -71 46 -107 62 -36 15 -94 42 -130 60 -36 17
-102 42 -148 55 -81 23 -84 23 -120 5 -36 -17 -195 -37 -309 -39 -43 -1 -56 3
-80 27 l-29 27 -1002 0 c-567 0 -1033 4 -1074 9 -40 6 -125 15 -188 21 -205
19 -312 30 -460 46 -411 45 -463 53 -476 66 -33 35 -74 133 -74 177 0 87 -50
182 -107 206 -20 8 -53 30 -73 49 -21 19 -47 37 -59 41 -12 3 -28 20 -37 37
-15 29 -15 31 9 57 29 31 47 81 47 130 0 20 7 68 15 106 32 143 33 131 -20
185 -55 56 -55 61 -4 194 18 47 29 90 26 105 -5 25 3 141 24 356 13 132 13
167 2 250 -11 86 -30 123 -103 200 -49 51 -58 67 -64 109 -6 51 -51 142 -91
186 -12 14 -27 40 -33 58 l-11 33 472 552 c260 304 506 592 547 640 l75 89 15
-49 c8 -26 29 -72 45 -100z m1526 131 c7 -8 29 -24 50 -35 l37 -19 -14 -52
c-7 -29 -14 -54 -14 -55 0 -2 26 -3 58 -3 l57 0 30 55 c16 30 34 54 40 52 5
-2 11 -36 13 -76 l3 -73 48 4 49 3 7 -45 c3 -25 6 -56 5 -70 -5 -57 -2 -87 9
-127 12 -42 13 -43 55 -43 29 0 52 -7 70 -21 33 -26 29 -33 -9 -19 -27 10 -32
7 -81 -41 -57 -56 -75 -59 -96 -13 -10 22 -16 25 -42 19 -33 -7 -120 -19 -251
-34 -44 -5 -108 -12 -142 -16 l-63 -8 0 51 0 52 -49 25 c-63 31 -72 45 -30 45
18 0 53 -13 81 -30 58 -36 111 -39 168 -10 39 20 40 22 40 73 l-1 52 -63 37
c-34 20 -80 40 -101 44 -35 6 -37 8 -20 20 10 8 41 14 69 14 l50 0 -44 46
c-25 25 -57 53 -72 62 -29 17 -38 42 -15 42 7 0 37 25 67 55 57 57 79 66 101
39z m1509 -40 c0 -8 -5 -12 -10 -9 -6 4 -8 11 -5 16 9 14 15 11 15 -7z m29
-172 c1 -24 -3 -41 -8 -38 -12 8 -24 104 -14 119 10 16 21 -25 22 -81z m-744
-442 c14 -27 25 -52 25 -56 0 -12 -62 6 -92 27 l-29 21 27 29 c15 16 31 29 36
29 4 0 19 -22 33 -50z m469 8 c18 -36 20 -58 6 -58 -12 0 -16 9 -24 58 -7 40
-2 41 18 0z m946 -18 c-21 -13 -44 8 -28 27 10 12 14 12 27 -2 14 -14 14 -17
1 -25z m-1755 20 c3 -5 -1 -10 -9 -10 -8 0 -18 5 -21 10 -3 6 1 10 9 10 8 0
18 -4 21 -10z m-230 -90 c3 -5 -1 -10 -9 -10 -8 0 -18 5 -21 10 -3 6 1 10 9
10 8 0 18 -4 21 -10z m715 1 c0 -11 -110 -111 -122 -111 -4 0 -8 11 -8 25 0
21 5 25 30 25 25 0 33 6 47 35 10 21 24 35 35 35 10 0 18 -4 18 -9z m-4074
-77 c-3 -9 -6 -20 -6 -26 0 -6 -9 -3 -21 8 -19 17 -19 19 -2 25 29 12 36 10
29 -7z m-60 -95 c33 -20 54 -47 54 -68 0 -20 -81 -12 -117 10 l-35 22 -45 -22
c-54 -26 -67 -20 -28 11 21 18 107 61 134 67 2 1 19 -8 37 -20z m-1481 -119
c10 -11 28 -20 39 -20 19 -1 19 -2 4 -11 -32 -18 -100 14 -83 41 9 15 20 12
40 -10z m199 -36 c9 -8 16 -23 16 -32 0 -12 -8 -8 -30 13 -16 16 -30 30 -30
32 0 9 31 1 44 -13z m6092 -145 c12 -13 26 -18 40 -15 16 4 24 -1 32 -19 10
-22 18 -25 59 -25 59 0 96 -25 91 -61 -3 -23 -6 -24 -90 -27 l-88 -3 0 -52 c0
-82 -29 -100 -69 -41 -21 30 -24 45 -22 107 2 90 11 157 21 157 4 0 15 -9 26
-21z m-4258 -286 c6 -10 13 -38 17 -61 7 -42 6 -43 -13 -33 -12 6 -30 11 -41
11 -27 0 -27 23 0 66 24 39 25 40 37 17z m102 -231 c-26 -4 -25 -5 -34 33 l-8
30 32 -30 c30 -29 31 -30 10 -33z m71 -460 c-8 -12 -10 4 -11 64 0 44 3 84 8
88 11 12 14 -132 3 -152z m7297 -487 c-3 -3 -9 2 -12 12 -6 14 -5 15 5 6 7 -7
10 -15 7 -18z m147 -57 c20 -71 22 -73 76 -72 43 1 56 7 81 32 l31 30 24 -28
c13 -16 44 -36 68 -46 36 -13 45 -21 45 -41 0 -15 -4 -22 -11 -18 -13 8 -58
-32 -69 -61 -6 -16 -20 -22 -53 -26 -41 -5 -67 -15 -122 -46 -11 -6 -31 -13
-45 -16 -14 -3 -47 -24 -74 -46 -27 -22 -51 -39 -53 -36 -3 2 -5 26 -5 53 0
26 -3 52 -8 58 -4 5 -10 60 -13 120 -4 95 -3 107 9 90 11 -16 22 -20 54 -17
l40 4 0 44 c0 47 14 59 25 22z m470 -218 c7 -11 -52 -43 -65 -35 -6 3 -15 15
-20 26 -10 17 -7 19 34 19 25 0 47 -4 51 -10z m-1105 -125 c26 -16 -9 -25
-103 -25 -102 0 -116 8 -47 29 35 10 131 8 150 -4z m-217 -201 c3 -3 1 -17 -5
-30 -10 -21 -58 -44 -94 -44 -6 0 -21 -11 -33 -24 l-22 -23 19 -54 c18 -51 20
-54 53 -53 19 0 42 4 52 8 13 6 17 3 17 -13 0 -14 11 -27 34 -37 24 -12 35
-26 42 -53 7 -28 16 -38 42 -47 18 -5 40 -18 49 -27 16 -16 16 -17 -6 -17 -14
0 -37 -14 -57 -35 -18 -19 -39 -35 -47 -35 -8 0 -31 -19 -52 -41 -22 -24 -40
-37 -44 -31 -3 6 -19 14 -34 17 -21 6 -35 21 -56 64 -16 31 -32 67 -36 81 -4
14 -26 44 -48 68 -44 45 -76 52 -145 33 -30 -9 -33 -8 -30 9 4 29 140 189 160
190 9 0 31 18 49 41 18 22 42 45 53 49 24 10 130 13 139 4z m-373 -108 c-31
-30 -32 -30 -25 -6 4 14 17 41 29 60 l21 35 3 -29 c3 -22 -4 -37 -28 -60z
m-6200 24 c8 -5 11 -10 5 -10 -5 0 -17 5 -25 10 -8 5 -10 10 -5 10 6 0 17 -5
25 -10z m-10 -90 c5 0 13 -14 19 -32 6 -18 20 -41 30 -53 16 -17 45 -114 37
-122 -1 -2 -17 32 -36 75 -22 52 -50 95 -84 130 -50 53 -50 54 -12 28 21 -14
42 -26 46 -26z m122 9 c29 -16 58 -86 58 -146 0 -41 8 -68 39 -127 24 -45 34
-73 26 -69 -26 9 -72 107 -90 188 -9 44 -25 89 -35 100 -46 52 -45 79 2 54z
m6978 -84 c0 -34 -1 -35 -37 -34 -34 0 -36 2 -17 11 12 5 27 21 33 34 15 33
21 30 21 -11z m-9 -129 c-5 -6 -31 -17 -58 -25 -26 -7 -58 -20 -70 -27 -21
-13 -23 -13 -23 6 0 14 -7 20 -22 21 -32 2 104 34 146 35 24 0 33 -3 27 -10z
m-784 -18 c13 -12 23 -26 23 -32 0 -5 16 -45 36 -88 31 -65 42 -79 69 -88 18
-6 37 -22 44 -36 14 -31 14 -34 -1 -34 -24 0 -124 -75 -189 -140 -42 -43 -72
-83 -87 -119 -25 -60 -27 -88 -11 -145 8 -30 8 -49 -2 -78 -12 -36 -11 -40 14
-66 15 -16 27 -33 27 -39 0 -6 -30 -23 -66 -39 -36 -15 -73 -38 -81 -51 -11
-16 -25 -23 -48 -23 -27 0 -35 -5 -45 -30 -7 -17 -28 -56 -47 -88 -32 -53 -34
-61 -28 -114 5 -51 3 -62 -19 -95 -21 -30 -24 -44 -19 -78 6 -49 -8 -65 -27
-30 -12 22 -20 25 -72 25 -57 0 -59 -1 -52 -22 20 -66 47 -129 64 -151 11 -14
20 -38 20 -54 0 -26 -2 -25 -23 17 -18 36 -30 47 -69 61 l-47 17 -27 -29 c-27
-28 -27 -30 -15 -84 9 -38 20 -60 35 -70 15 -10 29 -37 40 -77 11 -40 29 -75
51 -100 31 -34 33 -40 23 -63 -10 -23 -8 -29 21 -59 39 -41 34 -56 -20 -56
l-39 0 31 -42 c25 -35 28 -44 15 -46 -9 -2 -26 -22 -37 -45 -12 -23 -37 -68
-57 -99 -33 -54 -37 -58 -73 -58 -37 0 -39 -2 -39 -32 0 -51 -86 -193 -149
-247 -123 -105 -121 -103 -130 -161 -5 -30 -15 -85 -21 -122 -11 -63 -11 -70
10 -102 11 -20 38 -49 59 -65 45 -36 97 -130 107 -192 9 -60 38 -116 88 -169
63 -67 122 -233 105 -293 -5 -17 -9 -50 -9 -72 0 -59 -12 -73 -45 -51 -14 9
-38 34 -53 55 -15 21 -42 48 -59 60 -18 11 -47 46 -64 76 -26 46 -35 55 -59
55 -34 0 -59 25 -42 42 21 21 13 63 -17 92 -16 15 -33 27 -37 26 -10 -3 -12 2
-54 93 -25 54 -44 78 -95 120 -66 55 -137 84 -180 73 -14 -4 -37 -24 -51 -46
-40 -60 -69 -63 -113 -12 -51 57 -107 83 -157 72 -110 -24 -149 -30 -185 -30
-58 0 -329 -79 -358 -104 -21 -20 -86 -134 -79 -141 2 -2 35 7 73 20 119 40
123 40 68 -3 -27 -22 -64 -47 -82 -57 l-33 -16 -36 39 c-21 21 -54 45 -75 52
-34 10 -44 9 -87 -9 -38 -16 -54 -19 -75 -11 -42 16 -69 12 -126 -18 -86 -45
-84 -45 -113 -1 -28 42 -46 48 -66 24 -7 -8 -24 -15 -38 -15 -24 0 -25 -1 -19
-62 3 -35 9 -73 13 -86 6 -19 0 -25 -47 -46 -30 -13 -72 -26 -93 -30 -47 -9
-90 -51 -135 -135 -17 -31 -41 -68 -52 -82 -11 -14 -25 -55 -32 -92 -10 -59
-9 -71 7 -97 l17 -30 -40 0 c-22 0 -65 11 -95 24 -60 27 -92 67 -115 146 -9
30 -44 84 -110 165 -53 65 -100 127 -106 136 -5 10 -31 34 -57 53 -47 36 -47
36 -150 36 l-103 0 -24 -56 c-13 -31 -30 -58 -38 -61 -7 -3 -29 9 -48 26 -20
17 -39 31 -44 31 -5 0 -14 15 -22 33 -12 30 -26 50 -109 150 -20 23 -43 58
-52 78 -12 26 -24 38 -45 42 -19 4 -40 21 -61 51 l-33 46 -154 0 -153 0 -45
-51 -45 -51 -83 6 c-138 9 -221 22 -269 39 -25 9 -58 17 -73 17 -15 0 -42 7
-59 16 -33 17 -128 44 -156 44 -10 0 -42 25 -72 55 l-54 54 -150 3 -150 3 -7
34 c-4 20 -25 51 -53 80 -26 26 -46 56 -46 68 0 38 -198 191 -293 226 -20 7
-21 16 -7 52 8 22 1 43 -50 145 -61 121 -69 147 -49 167 15 15 -6 85 -37 122
-31 37 -24 51 22 51 19 0 34 4 34 8 0 4 -9 36 -21 70 -15 46 -26 62 -39 62
-12 0 -21 10 -25 30 -4 16 -11 32 -16 35 -5 4 -9 36 -9 73 0 37 -9 98 -20 137
l-20 70 24 45 c13 25 38 101 55 170 42 177 45 196 31 230 -13 32 -4 55 45 110
12 14 31 48 43 77 17 43 19 59 11 88 -14 48 -3 75 61 160 73 96 92 143 102
255 13 138 13 161 4 198 -8 32 -7 33 13 20 17 -10 21 -23 21 -66 0 -29 7 -66
15 -82 14 -28 20 -30 68 -30 45 0 57 4 79 28 60 65 70 89 70 164 l0 71 67 -7
c36 -3 100 -10 141 -15 268 -32 414 -47 675 -71 66 -7 153 -16 193 -21 40 -5
522 -9 1071 -9 965 0 998 -1 1015 -19 26 -29 98 -45 169 -37 34 4 105 11 157
15 52 5 110 15 128 21 25 9 43 10 80 0 78 -19 333 -140 382 -180 25 -21 56
-41 70 -45 14 -4 40 -21 58 -39 34 -32 147 -210 182 -288 26 -56 26 -149 0
-252 l-20 -79 32 -50 c18 -28 36 -55 40 -61 4 -6 25 7 52 32 25 23 52 42 59
42 8 0 50 29 95 65 45 36 111 79 148 95 36 17 93 47 125 67 l59 36 -25 33
c-15 19 -21 34 -15 34 6 0 69 35 140 77 l130 76 0 43 c0 53 39 145 71 168 85
60 138 83 205 88 69 5 167 34 209 62 52 34 109 178 125 316 6 48 13 68 30 82
30 25 79 23 107 -4z m-6159 -123 c-3 -3 -9 2 -12 12 -6 14 -5 15 5 6 7 -7 10
-15 7 -18z m6612 6 c0 -12 -9 -20 -25 -23 -29 -6 -31 -1 -8 24 21 23 33 23 33
-1z m113 -43 c-6 -7 -13 -26 -16 -43 -9 -49 -46 -124 -67 -135 -31 -16 -47 -2
-55 48 -6 40 -4 49 15 64 12 10 28 18 35 18 7 0 29 14 50 30 40 32 54 38 38
18z m-6603 -92 c0 -33 -7 -52 -26 -75 -31 -38 -44 -39 -44 -6 0 35 48 125 67
125 1 0 3 -20 3 -44z m394 -2935 c56 -56 60 -59 119 -64 36 -3 85 -16 117 -31
30 -14 69 -26 85 -26 17 0 46 -5 65 -11 50 -17 157 -29 295 -35 l120 -6 32 46
33 46 122 0 123 0 23 -34 c13 -19 37 -39 53 -45 16 -5 29 -17 29 -26 0 -8 18
-34 39 -58 61 -66 121 -150 121 -169 0 -9 10 -23 22 -29 12 -7 46 -34 74 -61
l52 -49 49 16 c44 14 52 22 76 71 l27 54 63 0 c58 0 66 -3 98 -33 71 -68 223
-271 234 -311 6 -23 25 -66 43 -98 31 -53 37 -58 110 -87 51 -21 94 -31 128
-31 66 0 70 -11 39 -98 -46 -126 -47 -161 -3 -313 31 -110 36 -139 28 -163 -7
-21 -7 -41 1 -65 12 -37 65 -101 83 -101 6 0 20 -39 31 -88 20 -85 21 -87 51
-90 20 -2 44 -17 70 -43 l39 -40 3 -299 3 -300 -46 20 c-26 11 -66 20 -90 20
-28 0 -62 10 -100 30 -37 19 -72 30 -99 30 -85 0 -231 56 -451 173 -26 14 -65
23 -120 27 -84 5 -89 7 -158 67 -20 18 -48 33 -61 33 -12 0 -58 25 -102 56
-96 69 -102 76 -115 114 -10 29 -9 33 32 69 l43 38 -24 37 c-13 21 -40 58 -61
82 -22 26 -46 70 -60 111 -18 56 -34 80 -89 138 -37 39 -82 93 -100 120 -43
66 -234 260 -283 288 -27 15 -37 27 -34 39 5 19 -40 86 -108 158 -24 25 -51
61 -60 80 -10 19 -26 41 -36 48 -10 7 -16 19 -12 28 11 28 -44 93 -100 118
-29 12 -69 42 -90 65 -45 50 -108 181 -126 261 -7 30 -16 64 -21 75 -5 11 -14
45 -21 75 -6 30 -15 60 -20 66 -5 6 -35 17 -66 24 -32 7 -77 22 -100 32 -23
11 -56 18 -74 16 -30 -3 -35 -8 -51 -52 -16 -47 -16 -50 2 -87 12 -23 20 -58
20 -88 0 -34 11 -74 36 -133 45 -105 69 -136 146 -190 57 -40 65 -50 108 -143
26 -55 71 -157 101 -228 40 -95 58 -126 70 -124 12 3 19 -13 33 -72 11 -51 25
-85 43 -103 18 -19 23 -32 18 -48 -7 -22 -7 -22 -38 8 -18 16 -47 37 -64 46
-32 16 -33 18 -33 81 0 60 -3 69 -42 124 -24 32 -55 78 -69 103 -19 32 -35 47
-55 51 -18 4 -38 20 -53 42 -14 20 -44 50 -68 68 -27 19 -39 33 -31 36 35 10
58 45 58 89 0 49 -17 70 -124 151 -45 34 -65 58 -87 105 -16 34 -29 73 -29 87
0 14 -20 66 -44 116 -36 75 -86 217 -86 246 0 4 53 7 118 7 l118 0 58 -59z
m578 -1418 c24 -28 66 -111 60 -117 -11 -12 -19 -5 -49 37 -43 60 -53 128 -11
80z m3536 -174 c-4 -38 -12 -58 -35 -82 -17 -18 -38 -47 -47 -64 -16 -32 -15
-35 10 -85 15 -29 33 -57 40 -61 8 -4 14 -14 14 -22 0 -23 -22 -65 -31 -59 -5
2 -18 -14 -29 -36 -13 -25 -34 -47 -55 -57 -22 -10 -36 -26 -40 -42 -5 -24
-15 -28 -165 -65 l-160 -39 0 -54 c0 -58 13 -85 66 -143 22 -24 32 -44 31 -62
-2 -30 -6 -31 -159 -59 -75 -14 -87 -28 -97 -111 l-6 -48 -65 46 c-36 25 -81
60 -100 78 -65 62 -77 66 -176 66 -81 0 -100 -4 -159 -30 -48 -21 -82 -30
-121 -30 l-54 0 0 227 0 226 23 -21 c20 -19 35 -22 105 -22 60 0 83 -4 89 -14
11 -21 63 -46 95 -46 40 0 210 58 234 80 23 23 88 27 128 9 19 -9 36 -9 70 1
63 17 80 39 72 90 -8 49 6 78 43 91 31 11 61 64 61 106 0 15 -11 38 -24 52
-59 63 -32 124 71 157 74 23 297 71 342 73 l34 1 -5 -51z m-20 -414 c-3 -3 -9
2 -12 12 -6 14 -5 15 5 6 7 -7 10 -15 7 -18z m-51 -250 c17 -79 20 -111 12
-128 -11 -23 -47 -52 -55 -44 -3 3 -17 52 -33 110 l-27 106 29 10 c16 6 31 20
34 31 10 38 18 20 40 -85z m-149 -99 c17 -68 32 -138 32 -155 0 -17 4 -31 8
-31 15 0 107 33 119 42 7 5 14 5 17 -1 3 -5 -13 -16 -36 -23 -34 -12 -44 -21
-55 -54 -9 -25 -12 -57 -7 -90 6 -50 6 -51 -27 -65 -19 -7 -50 -28 -70 -46
l-37 -34 -99 10 c-54 5 -117 17 -140 27 -43 17 -43 15 -59 126 -6 36 -5 37 33
46 21 5 70 15 108 22 82 15 115 39 115 84 0 23 12 42 47 78 l47 48 -59 0 c-42
1 -66 6 -81 18 -27 23 -58 71 -51 79 7 7 124 40 147 42 12 1 24 -31 48 -123z
m832 -11 c0 -24 3 -25 56 -25 l55 0 -18 -31 c-26 -45 -46 -53 -105 -39 -43 11
-55 10 -89 -5 l-39 -18 0 -64 0 -63 -41 0 c-98 0 -149 -37 -149 -108 0 -40
-29 -132 -41 -132 -29 0 -47 22 -53 65 -6 37 -13 48 -39 62 -43 22 -124 43
-169 43 -32 0 -37 3 -43 30 -7 31 7 60 28 60 18 0 97 55 102 71 4 10 38 27 88
44 45 14 91 35 102 45 14 13 75 31 180 54 88 18 163 34 168 35 4 1 7 -10 7
-24z m161 -208 c-17 -47 -13 -123 10 -207 l20 -77 -20 -34 c-25 -40 -26 -67
-6 -131 13 -46 13 -48 -5 -48 -10 0 -22 5 -25 10 -9 14 -65 12 -92 -3 -12 -6
-41 -22 -64 -35 l-42 -23 -51 27 c-28 15 -62 37 -76 49 -14 12 -58 42 -99 65
l-74 43 29 12 c39 16 84 121 84 196 0 33 15 39 88 39 79 0 102 23 102 102 0
52 2 59 18 54 88 -26 151 -12 184 43 l23 36 3 -44 c2 -23 -2 -57 -7 -74z
m-692 -208 c49 -17 37 -71 -21 -92 -14 -5 -161 28 -218 49 -9 3 1 13 30 28 51
27 154 34 209 15z m636 -359 c3 -5 29 -10 57 -10 47 0 54 -4 121 -61 39 -34
78 -66 88 -72 15 -9 16 -14 3 -50 -10 -29 -11 -44 -3 -59 16 -30 17 -108 2
-108 -7 0 -15 11 -19 24 -3 13 -24 42 -48 65 -33 33 -53 43 -101 53 -48 9 -66
18 -90 46 -28 31 -33 34 -53 23 -28 -15 -87 1 -96 25 -16 43 -6 60 56 97 68
40 74 42 83 27z m1064 -110 c37 -11 75 -27 86 -35 18 -15 17 -15 -12 0 -18 8
-52 15 -77 15 -25 0 -48 5 -51 10 -3 6 -18 10 -33 11 -24 0 -25 1 -7 9 11 5
22 9 24 9 2 1 34 -8 70 -19z m-247 -32 c-7 -7 -12 -24 -12 -39 0 -20 -8 -33
-30 -46 -26 -15 -30 -23 -30 -60 0 -24 4 -43 8 -43 4 0 23 -13 42 -29 30 -24
33 -31 22 -44 -17 -20 -38 -13 -84 31 -32 30 -41 34 -60 25 -17 -7 -33 -5 -67
10 -25 11 -74 22 -110 25 l-65 5 -33 -39 -33 -39 0 36 c0 21 7 42 15 49 14 12
13 16 -10 40 -25 26 -34 60 -15 60 13 0 49 -35 71 -69 14 -22 17 -23 52 -12
27 9 46 10 67 2 24 -8 40 -6 82 11 29 12 64 31 78 44 56 50 146 116 112 82z
m380 -64 c-3 -27 1 -41 19 -60 l22 -24 -42 0 c-40 0 -43 2 -37 23 4 12 10 41
13 64 3 26 10 40 17 37 7 -3 10 -19 8 -40z"/>
<path d="M4812 11277 c-85 -20 -94 -25 -117 -59 -32 -47 -32 -84 0 -131 26
-37 26 -37 93 -36 37 0 88 4 115 8 26 4 47 5 47 2 0 -4 -11 -23 -25 -43 -30
-44 -33 -101 -8 -153 16 -33 20 -36 48 -30 58 13 60 12 63 -30 7 -86 80 -114
158 -61 l39 27 22 -28 c24 -30 56 -34 116 -14 36 12 37 14 37 58 0 38 -9 60
-47 121 -43 71 -45 76 -34 108 10 28 9 38 -7 70 -18 35 -21 37 -72 37 -50 0
-54 -2 -71 -34 -10 -19 -18 -48 -19 -66 l0 -31 -56 30 -56 30 26 27 c58 61 19
157 -80 198 -67 27 -54 27 -172 0z m141 -72 c35 -15 70 -52 62 -65 -3 -4 -24
-5 -47 -3 -24 3 -77 0 -118 -6 -63 -8 -77 -8 -90 5 -25 25 1 47 76 66 38 9 72
17 75 17 4 1 23 -6 42 -14z m90 -246 c23 -12 57 -35 75 -50 48 -43 78 -47 110
-16 l27 26 37 -59 c38 -61 36 -94 -2 -40 -29 41 -75 41 -133 -1 l-42 -31 -7
39 c-4 21 -10 53 -14 71 l-7 34 -53 -4 c-49 -3 -54 -1 -54 18 0 19 8 34 17 34
2 0 23 -10 46 -21z"/>
<path d="M4420 10855 c-39 -24 -73 -58 -115 -114 -32 -45 -62 -81 -66 -81 -3
0 -27 -18 -53 -41 -45 -40 -46 -42 -46 -98 0 -50 4 -61 28 -83 44 -42 129 -80
170 -76 32 3 42 11 78 62 l41 60 84 19 c55 12 93 27 109 43 30 27 100 60 153
69 34 7 37 10 37 42 0 53 -94 163 -160 187 -27 10 -54 24 -61 32 -8 10 -32 14
-78 14 -57 -1 -73 -5 -121 -35z m188 -65 c22 -11 45 -20 51 -20 10 0 81 -70
81 -80 0 -3 -21 -14 -47 -24 -25 -11 -60 -32 -78 -47 -24 -21 -53 -32 -118
-45 l-86 -17 -36 -54 c-20 -30 -42 -56 -50 -59 -8 -3 -34 5 -57 18 -35 19 -44
29 -46 55 -3 28 3 36 42 65 25 18 70 66 100 107 88 117 154 144 244 101z"/>
<path d="M5805 10618 c-44 -67 -71 -197 -44 -213 5 -4 48 -1 95 5 71 10 91 18
127 46 23 18 53 42 67 52 22 18 23 22 12 46 -7 15 -12 37 -12 50 0 21 -8 26
-65 40 -35 9 -84 16 -108 16 -41 0 -46 -3 -72 -42z m166 -55 c13 -13 -56 -63
-96 -70 -41 -7 -45 8 -19 59 15 29 19 30 61 25 24 -2 49 -9 54 -14z"/>
<path d="M5513 10603 c-35 -18 -38 -26 -23 -88 5 -22 8 -41 6 -42 -1 -2 -25 8
-52 22 -27 14 -52 25 -56 25 -3 0 -6 -33 -6 -72 0 -68 2 -75 31 -107 18 -18
55 -51 84 -72 42 -31 61 -39 96 -39 36 0 49 6 75 33 39 40 43 93 11 167 l-20
48 25 49 25 50 -45 21 c-52 26 -106 27 -151 5z m87 -71 c0 -5 -7 -17 -15 -28
-14 -18 -14 -18 -15 9 0 17 5 27 15 27 8 0 15 -4 15 -8z m-20 -137 c0 -8 9
-15 21 -15 17 0 20 -5 17 -32 -2 -24 -8 -34 -23 -36 -21 -3 -105 51 -105 67 0
8 51 28 78 30 6 1 12 -6 12 -14z"/>
<path d="M6985 9458 c-55 -30 -65 -49 -65 -118 0 -80 12 -94 90 -115 50 -13
55 -13 99 10 26 12 67 28 91 34 25 7 50 14 57 16 8 3 2 21 -17 57 -16 29 -30
60 -30 69 0 8 -10 25 -23 37 -20 19 -35 22 -103 22 -43 0 -88 -6 -99 -12z
m156 -89 c13 -24 9 -29 -48 -53 -26 -11 -52 -16 -67 -12 -22 5 -26 12 -26 40
0 40 7 44 77 45 43 1 54 -3 64 -20z"/>
<path d="M960 9320 c-8 -5 -30 -10 -48 -10 -86 0 -126 -63 -103 -165 10 -45
18 -58 41 -70 16 -8 34 -15 40 -15 23 0 80 33 80 45 0 8 24 25 53 38 28 14 65
39 80 55 33 34 31 54 -10 102 -21 25 -32 30 -71 30 -26 0 -54 -5 -62 -10z m80
-75 c0 -2 -24 -16 -53 -29 -29 -14 -63 -35 -75 -46 -18 -17 -23 -18 -28 -6 -3
8 -4 25 -2 38 2 19 11 24 45 29 24 3 46 8 49 12 8 8 64 10 64 2z"/>
<path d="M2083 8418 c-28 -31 -47 -116 -34 -151 7 -18 7 -36 1 -53 -6 -14 -10
-55 -10 -91 0 -57 4 -73 31 -115 17 -26 33 -48 35 -48 21 0 87 46 99 70 23 44
20 298 -3 360 -16 42 -20 45 -58 48 -31 2 -44 -2 -61 -20z m56 -120 c0 -38 -1
-40 -10 -19 -8 22 -4 61 7 61 2 0 4 -19 3 -42z m1 -153 c0 -43 -4 -75 -10 -75
-11 0 -13 91 -4 128 11 38 14 25 14 -53z"/>
<path d="M1922 7893 c-17 -60 -18 -129 -2 -149 13 -15 13 -16 -5 -11 -46 14
-75 19 -75 13 0 -4 11 -29 25 -56 14 -27 25 -63 25 -79 0 -40 24 -100 73 -183
l39 -68 49 0 49 0 0 73 c-1 91 -14 152 -45 199 -30 46 -30 46 -3 50 14 2 25
15 35 43 13 35 12 47 -2 95 -33 113 -31 110 -95 110 l-57 0 -11 -37z m97 -123
c1 -10 -5 -9 -20 7 -17 16 -20 27 -14 50 l7 28 13 -35 c8 -19 14 -42 14 -50z
m-27 -183 c8 -17 18 -48 22 -67 5 -30 1 -26 -24 25 -31 65 -34 75 -22 75 5 0
15 -15 24 -33z"/>
<path d="M9843 4798 c-55 -57 -73 -115 -50 -163 14 -30 22 -35 50 -35 25 0 42
9 70 38 32 33 37 44 37 85 0 35 -4 47 -15 47 -8 0 -23 16 -33 35 l-18 35 -41
-42z"/>
<path d="M8403 3371 c-7 -11 -43 -29 -83 -42 -38 -13 -70 -26 -70 -29 0 -3 21
-16 48 -29 26 -12 68 -36 94 -53 30 -19 57 -28 75 -26 26 3 28 7 29 45 1 33
-7 56 -33 98 -19 30 -38 55 -41 55 -4 0 -13 -9 -19 -19z"/>
<path d="M8430 3172 c0 -4 28 -36 63 -70 62 -62 63 -62 120 -62 l57 0 0 38 c0
20 -9 52 -20 70 l-20 32 -100 0 c-55 0 -100 -4 -100 -8z"/>
<path d="M8301 3008 c-12 -34 -21 -76 -21 -93 0 -42 45 -85 88 -85 20 0 32 -5
32 -13 0 -27 36 -47 83 -47 l47 0 0 48 c0 56 -20 82 -63 82 -25 0 -26 2 -15
26 11 24 9 29 -22 55 -19 16 -51 42 -71 59 l-37 31 -21 -63z"/>
<path d="M8015 2620 c-11 -5 -70 -9 -131 -9 -100 -1 -113 -3 -130 -22 -18 -21
-128 -79 -149 -79 -6 0 -19 -14 -29 -30 -9 -17 -29 -38 -43 -47 -14 -10 -39
-35 -54 -57 -25 -34 -29 -48 -29 -108 l0 -68 48 0 c43 0 50 3 66 31 11 18 36
38 63 50 24 10 71 44 104 75 32 32 60 54 60 51 1 -4 2 -10 3 -14 1 -5 5 -14 9
-20 6 -9 1 -13 -16 -13 -39 0 -67 -39 -67 -93 l0 -47 48 0 c61 0 82 20 82 78
l0 42 45 0 c30 0 55 7 74 20 23 18 32 19 57 10 17 -7 53 -9 91 -6 45 5 73 2
99 -9 21 -8 66 -15 105 -15 61 0 72 -3 101 -28 38 -33 87 -52 134 -52 27 0 31
-3 27 -20 -3 -10 -11 -25 -19 -31 -8 -6 -14 -24 -14 -40 0 -25 7 -33 43 -50
l43 -21 115 32 c175 49 284 91 337 130 43 33 47 40 50 82 l3 46 -48 10 c-26 6
-88 18 -138 27 -199 36 -194 34 -211 68 -9 18 -18 34 -20 35 -1 2 -23 -10 -48
-27 -52 -36 -88 -39 -135 -10 -18 11 -68 34 -110 50 -42 17 -85 39 -96 49 -20
18 -54 24 -225 35 -41 2 -84 1 -95 -5z m215 -86 c30 -3 62 -12 70 -19 8 -7 46
-25 85 -40 38 -14 89 -37 113 -51 37 -22 53 -25 125 -24 53 2 100 -3 132 -14
28 -9 79 -21 116 -26 125 -18 171 -31 160 -44 -20 -24 -381 -144 -381 -127 0
3 7 30 14 59 l14 52 -31 17 c-18 9 -57 20 -88 24 -42 5 -67 15 -103 43 -44 34
-52 36 -119 36 -46 0 -90 7 -122 19 -33 12 -57 16 -70 10 -11 -4 -61 -5 -110
-2 -76 4 -93 3 -104 -11 -7 -9 -20 -16 -27 -16 -11 0 -10 9 6 40 11 21 20 42
20 45 0 3 -25 5 -55 5 -69 0 -121 -25 -191 -90 -53 -50 -108 -84 -127 -77 -6
2 2 11 19 21 16 10 39 33 52 52 12 19 29 34 37 34 22 0 108 45 124 64 11 12
35 16 110 17 53 0 105 5 116 10 19 8 97 6 215 -7z"/>
<path d="M9152 2507 c-34 -34 -62 -65 -62 -67 0 -3 54 -5 120 -5 l120 0 0 68
0 67 -58 0 c-57 0 -58 0 -120 -63z"/>
<path d="M10360 2480 c-30 -16 -69 -29 -86 -30 -44 0 -64 -27 -64 -84 0 -60
23 -106 53 -106 12 0 70 14 128 31 93 27 112 36 148 73 l41 41 -17 53 -17 52
-65 0 c-53 -1 -77 -7 -121 -30z m125 -51 c19 -19 -179 -98 -199 -79 -14 14 3
30 32 30 15 1 52 14 82 29 51 27 73 32 85 20z"/>
<path d="M9785 2450 c-171 -5 -183 -6 -245 -34 -40 -18 -92 -31 -135 -35 -87
-9 -118 -24 -139 -67 -22 -47 -20 -67 7 -92 17 -16 36 -22 70 -22 43 0 67 -13
52 -28 -4 -4 -37 -10 -73 -14 -163 -17 -172 -19 -187 -49 -19 -37 -19 -112 0
-149 12 -22 23 -30 43 -30 45 0 240 38 340 66 91 26 94 26 137 9 25 -9 54 -28
65 -42 l20 -26 0 96 0 97 49 25 c27 13 52 29 56 35 3 5 35 10 71 10 69 0 141
28 178 69 17 19 18 25 6 67 -11 40 -19 49 -58 67 -33 16 -46 19 -49 10 -8 -22
-22 -14 -25 15 l-3 27 -180 -5z m80 -120 l25 -50 -33 0 c-22 0 -41 -8 -53 -21
-10 -12 -40 -32 -65 -44 -25 -13 -51 -31 -58 -39 -23 -27 -27 -18 -23 44 4 59
4 60 -22 60 -15 0 -25 4 -21 10 3 5 6 25 7 44 1 42 4 43 125 45 l93 1 25 -50z
m136 -31 c-13 -10 -35 -19 -50 -18 -25 1 -25 1 5 10 17 5 37 16 44 24 7 9 16
13 19 9 3 -3 -5 -14 -18 -25z m-476 -20 c0 -38 10 -53 43 -65 1 0 -5 -17 -13
-37 -8 -20 -15 -50 -15 -66 0 -28 -3 -30 -77 -49 -105 -28 -252 -54 -263 -47
-7 5 -6 43 2 50 2 2 48 8 104 14 55 6 124 16 152 22 47 11 52 15 52 40 0 17
-16 50 -41 84 -40 52 -44 55 -86 55 -27 0 -42 4 -38 10 3 6 36 10 73 10 37 0
74 5 82 10 23 15 25 13 25 -31z"/>
<path d="M11160 2300 l0 -80 40 0 c37 0 40 -2 40 -28 0 -28 35 -72 56 -72 6 0
18 -25 28 -55 13 -43 21 -55 37 -55 17 0 20 -4 14 -29 -3 -17 -2 -32 4 -36 6
-3 11 -19 11 -36 0 -35 -1 -35 79 -8 l62 21 -3 62 c-3 58 -4 61 -30 64 -24 3
-26 6 -18 28 6 14 10 39 10 55 l0 29 -65 0 c-36 0 -65 2 -65 5 0 3 11 28 25
55 14 27 25 52 25 55 0 3 -19 5 -42 5 -23 0 -39 3 -36 6 3 3 -15 25 -42 50
-40 37 -53 44 -89 44 l-41 0 0 -80z"/>
<path d="M11670 1992 c-41 -16 -45 -20 -46 -54 -1 -24 8 -49 27 -77 15 -23 29
-47 31 -53 3 -8 20 -3 48 13 37 20 47 32 59 72 l15 47 -34 35 c-39 40 -39 40
-100 17z"/>
<path d="M8735 1979 c-22 -4 -58 -8 -81 -8 -39 -1 -44 -4 -80 -58 -21 -32 -40
-61 -42 -64 -1 -3 23 -11 55 -19 32 -7 79 -23 105 -36 57 -29 101 -31 125 -5
10 10 27 20 37 22 13 3 25 21 36 54 17 48 16 52 -2 88 -18 35 -21 37 -66 36
-26 -1 -65 -5 -87 -10z m84 -76 c0 -5 -13 -18 -29 -31 l-29 -23 -38 20 -38 19
30 7 c17 4 35 8 40 10 20 7 65 5 64 -2z"/>
</g>
</svg>
